SplineFontDB: 3.2
FontName: Wasabe-Black
FullName: Wasabe Black
FamilyName: Wasabe Black
Weight: Black
Copyright: Copyright (c) 2020 - Present The Teriyake Project Authors (https://github.com/keepsjh/teriyake)\nCopyright (c) 2025 - RandomMaerks (Bao Nguyen) (https://github.com/RandomMaerks/Wasabe)
Version: 001.000
ItalicAngle: 0
UnderlinePosition: -100
UnderlineWidth: 50
Ascent: 800
Descent: 200
InvalidEm: 0
sfntRevision: 0x00010000
LayerCount: 2
Layer: 0 0 "Back" 1
Layer: 1 0 "Fore" 0
XUID: [1021 366 1780442531 25826]
StyleMap: 0x0040
FSType: 0
OS2Version: 3
OS2_WeightWidthSlopeOnly: 0
OS2_UseTypoMetrics: 0
CreationTime: 1606590360
ModificationTime: 1761276810
PfmFamily: 33
TTFWeight: 900
TTFWidth: 5
LineGap: 0
VLineGap: 0
Panose: 0 0 10 0 0 0 0 0 0 0
OS2TypoAscent: 800
OS2TypoAOffset: 0
OS2TypoDescent: -200
OS2TypoDOffset: 0
OS2TypoLinegap: 200
OS2WinAscent: 1000
OS2WinAOffset: 0
OS2WinDescent: 200
OS2WinDOffset: 0
HheadAscent: 1000
HheadAOffset: 0
HheadDescent: -200
HheadDOffset: 0
OS2SubXSize: 650
OS2SubYSize: 600
OS2SubXOff: 0
OS2SubYOff: 75
OS2SupXSize: 650
OS2SupYSize: 600
OS2SupXOff: 0
OS2SupYOff: 350
OS2StrikeYSize: 50
OS2StrikeYPos: 300
OS2CapHeight: 700
OS2XHeight: 500
OS2Vendor: 'RDMK'
OS2CodePages: 20000093.00000000
OS2UnicodeRanges: 00000007.02000000.00000000.00000000
Lookup: 6 0 0 "'ccmp' Glyph Composition/Decomposition in Latin lookup 1" { "'ccmp' Glyph Composition/Decomposition in Latin lookup 1 contextual 0"  "'ccmp' Glyph Composition/Decomposition in Latin lookup 1 contextual 1"  } ['ccmp' ('DFLT' <'dflt' > 'latn' <'AZE ' 'CAT ' 'CRT ' 'KAZ ' 'MOL ' 'ROM ' 'TAT ' 'TRK ' 'dflt' > ) ]
Lookup: 1 0 0 "'locl' Localized Forms in Latin lookup 2" { "'locl' Localized Forms in Latin lookup 2 subtable"  } ['locl' ('latn' <'TRK ' > ) ]
Lookup: 1 0 0 "'locl' Localized Forms in Latin lookup 3" { "'locl' Localized Forms in Latin lookup 3 subtable"  } ['locl' ('latn' <'MOL ' > ) ]

StartChar: .notdef
Encoding: 65536 -1 0
GlifName: _notdef
Width: 834
GlyphClass: 1
Flags: W
HStem: -200 86<134 700> 714 86<134 700>
VStem: 48 86<-114 714> 700 86<-114 714>
LayerCount: 2
Fore
SplineSet
786 800 m 1
 786 -200 l 1
 48 -200 l 1
 48 800 l 1
 786 800 l 1
134 -114 m 1
 700 -114 l 1
 700 714 l 1
 134 714 l 1
 134 -114 l 1
EndSplineSet
EndChar

StartChar: exclam
Encoding: 33 33 2
GlifName: exclam
Width: 312
GlyphClass: 2
Flags: W
HStem: 0 174<56 256> 680 20G<56 256>
VStem: 56 200<0 174 515.667 700> 74 164<226 410.333>
LayerCount: 2
Fore
SplineSet
56 0 m 5xe0
 56 174 l 5
 256 174 l 5
 256 0 l 5
 56 0 l 5xe0
74 226 m 1xd0
 56 700 l 1
 256 700 l 1xe0
 238 226 l 1
 74 226 l 1xd0
EndSplineSet
EndChar

StartChar: quotedbl
Encoding: 34 34 3
GlifName: quotedbl
Width: 428
GlyphClass: 2
Flags: W
HStem: 382 318<36 180 248 392>
VStem: 36 144<382 700> 248 144<382 700>
LayerCount: 2
Fore
SplineSet
248 382 m 1
 248 700 l 1
 392 700 l 1
 392 382 l 1
 248 382 l 1
36 382 m 1
 36 700 l 1
 180 700 l 1
 180 382 l 1
 36 382 l 1
EndSplineSet
EndChar

StartChar: numbersign
Encoding: 35 35 4
GlifName: numbersign
Width: 862
GlyphClass: 2
Flags: W
HStem: 0 21G<135 299.364 405 569.364> 165 144<79 171 363 441 633 728> 417 144<134 226 418 496 688 783> 680 20G<283.683 448 553.683 718>
LayerCount: 2
Fore
SplineSet
814 561 m 1
 783 417 l 1
 656 417 l 1
 633 309 l 1
 759 309 l 1
 728 165 l 1
 601 165 l 1
 565 0 l 1
 405 0 l 1
 441 165 l 1
 331 165 l 1
 295 0 l 1
 135 0 l 1
 171 165 l 1
 48 165 l 1
 79 309 l 1
 203 309 l 1
 226 417 l 1
 103 417 l 1
 134 561 l 1
 258 561 l 1
 288 700 l 1
 448 700 l 1
 418 561 l 1
 528 561 l 1
 558 700 l 1
 718 700 l 1
 688 561 l 1
 814 561 l 1
363 309 m 1
 473 309 l 1
 496 417 l 1
 386 417 l 1
 363 309 l 1
EndSplineSet
EndChar

StartChar: dollar
Encoding: 36 36 5
GlifName: dollar
Width: 727
GlyphClass: 2
Flags: W
HStem: -16 144<273.245 471.82> 571 144<268.992 488.507> 780 20G<313 429>
VStem: 59 176<467.116 537.763> 313 116<-100 800> 511 176<162.412 237.602>
LayerCount: 2
Fore
SplineSet
313 800 m 1
 429 800 l 1
 429 -100 l 1
 313 -100 l 1
 313 800 l 1
678 516 m 1
 511 471 l 1
 504.230088496 532.176470588 441.946902655 571 358 571 c 0
 283.935483871 571 235 542 235 499 c 0
 235 458.62493453 302.749858309 445.812242404 385.790169359 430.107856208 c 0
 517.238346952 405.248689384 687 373.143769172 687 213 c 0
 687 76.0182648402 561.013071895 -16 371 -16 c 0
 188.485981308 -16 64.7476635514 68.68 40 203 c 1
 207 242 l 1
 211.895522388 172.65 274.313432836 128 371 128 c 0
 449.909090909 128 511 158 511 203 c 0
 511 251.709601268 438.225870092 263.857539206 351.079420778 278.404599529 c 0
 221.040581867 300.111540534 59 327.160423625 59 489 c 0
 59 625.018518519 179.01384083 715 358 715 c 0
 535.066666667 715 654.533333333 638.137566138 678 516 c 1
EndSplineSet
EndChar

StartChar: percent
Encoding: 37 37 6
GlifName: percent
Width: 888
GlyphClass: 2
Flags: W
HStem: -16 120<632.872 711.128> 0 21G<95 308.257> 200 120<632.872 711.128> 380 120<176.872 255.128> 596 120<176.872 255.128> 680 20G<579.743 793>
VStem: 48 120<508.872 587.128> 264 120<508.872 587.128> 504 120<112.872 191.128> 720 120<112.872 191.128>
LayerCount: 2
Fore
SplineSet
216 380 m 0x3bc0
 124 380 48 456 48 548 c 0
 48 640 124 716 216 716 c 0
 308 716 384 640 384 548 c 0
 384 456 308 380 216 380 c 0x3bc0
95 0 m 1x77c0
 594 700 l 1
 793 700 l 1
 294 0 l 1
 95 0 l 1x77c0
216 500 m 0
 243 500 264 521 264 548 c 0
 264 575 243 596 216 596 c 0x3bc0
 189 596 168 575 168 548 c 0
 168 521 189 500 216 500 c 0
672 -16 m 0xb3c0
 580 -16 504 60 504 152 c 0
 504 244 580 320 672 320 c 0
 764 320 840 244 840 152 c 0
 840 60 764 -16 672 -16 c 0xb3c0
672 104 m 0
 699 104 720 125 720 152 c 0
 720 179 699 200 672 200 c 0
 645 200 624 179 624 152 c 0
 624 125 645 104 672 104 c 0
EndSplineSet
EndChar

StartChar: ampersand
Encoding: 38 38 7
GlifName: ampersand
Width: 772
GlyphClass: 2
Flags: W
HStem: -15 147<185.102 376.14> 0 21G<485 656> 285 144<255.62 460 656 748> 480 20G<460 656> 555 145<246.955 445>
VStem: 36 191<153.239 253.377> 47 183<446.923 537.125> 460 196<197.494 285 429 500> 485 171<0 118>
LayerCount: 2
Fore
SplineSet
656 285 m 1xbb
 656 0 l 1
 485 0 l 1x7880
 485 118 l 1
 460.872621887 34.2911389957 373.408645925 -15 249 -15 c 0
 124.252240573 -15 36 61.6510070707 36 170 c 0xbc80
 36 255.53316465 96.4585658242 327.54432267 193 357 c 1
 106.966293139 367.500445235 47 433.216930866 47 517 c 0
 47 623.731779133 140.355636471 700 271 700 c 2
 445 700 l 1
 445 555 l 1
 305 555 l 2
 258.163311254 555 230 528.054108613 230 488 c 0
 230 453.911343908 260.778093434 429 310 429 c 2
 460 429 l 1
 460 500 l 1
 656 500 l 1
 656 429 l 1
 748 429 l 1
 748 285 l 1
 656 285 l 1xbb
329 285 m 2
 264.885682562 285 227 252.685741344 227 198 c 0
 227 159.056531594 260.615690768 132 309 132 c 0
 403.637903227 132 460 189.108614612 460 285 c 1xbd
 329 285 l 2
EndSplineSet
EndChar

StartChar: parenleft
Encoding: 40 40 8
GlifName: parenleft
Width: 350
GlyphClass: 2
Flags: W
HStem: 780 20G<124.368 322>
VStem: 48 178<130.555 569.445>
LayerCount: 2
Fore
SplineSet
156 800 m 1
 322 800 l 5
 265.764501988 700.416305603 226 514.020202536 226 350 c 4
 226 185.979797464 265.764501988 -0.416305603426 322 -100 c 5
 156 -100 l 1
 92.7350647363 -12.132034356 48 174.264068712 48 350 c 0
 48 525.735931288 92.7350647363 712.132034356 156 800 c 1
EndSplineSet
EndChar

StartChar: parenright
Encoding: 41 41 9
GlifName: parenright
Width: 350
GlyphClass: 2
Flags: W
HStem: 780 20G<28 225.632>
VStem: 124 178<130.555 569.445>
LayerCount: 2
Fore
SplineSet
194 800 m 5
 257.264935264 712.132034356 302 525.735931288 302 350 c 4
 302 174.264068712 257.264935264 -12.132034356 194 -100 c 5
 28 -100 l 1
 84.2354980122 -0.416305603426 124 185.979797464 124 350 c 0
 124 514.020202536 84.2354980122 700.416305603 28 800 c 1
 194 800 l 5
EndSplineSet
EndChar

StartChar: asterisk
Encoding: 42 42 10
GlifName: asterisk
Width: 504
GlyphClass: 2
Flags: W
HStem: 680 20G<190 314>
LayerCount: 2
Fore
SplineSet
394 654 m 1
 456 546 l 1
 335 500 l 1
 456 454 l 1
 394 346 l 1
 294 428 l 1
 314 300 l 1
 190 300 l 1
 210 428 l 1
 110 346 l 1
 48 454 l 1
 169 500 l 1
 48 546 l 1
 110 654 l 1
 210 572 l 1
 190 700 l 1
 314 700 l 1
 294 572 l 1
 394 654 l 1
EndSplineSet
EndChar

StartChar: plus
Encoding: 43 43 11
GlifName: plus
Width: 624
GlyphClass: 2
Flags: W
HStem: 232 144<48 234 390 576>
VStem: 234 156<40 232 376 568>
LayerCount: 2
Fore
SplineSet
390 376 m 1
 576 376 l 1
 576 232 l 1
 390 232 l 1
 390 40 l 1
 234 40 l 1
 234 232 l 1
 48 232 l 1
 48 376 l 1
 234 376 l 1
 234 568 l 1
 390 568 l 1
 390 376 l 1
EndSplineSet
EndChar

StartChar: comma
Encoding: 44 44 12
GlifName: comma
Width: 312
GlyphClass: 2
Flags: W
HStem: -182 88<55 162.685> 0 184<56 170>
VStem: 56 200<-136.809 -94 0 184> 170 86<-87.6633 0>
LayerCount: 2
Fore
SplineSet
56 0 m 1xe0
 56 184 l 1
 256 184 l 1xe0
 256 -58 l 2
 256 -131.80952381 217.759259259 -182 138 -182 c 2
 55 -182 l 1
 55 -94 l 1
 120 -94 l 2
 154 -94 170 -75.6 170 -48 c 2
 170 0 l 1xd0
 56 0 l 1xe0
EndSplineSet
EndChar

StartChar: hyphen
Encoding: 45 45 13
GlifName: hyphen
Width: 476
GlyphClass: 2
Flags: W
HStem: 212 144<48 428>
LayerCount: 2
Fore
SplineSet
48 212 m 5
 48 356 l 5
 428 356 l 5
 428 212 l 5
 48 212 l 5
EndSplineSet
EndChar

StartChar: period
Encoding: 46 46 14
GlifName: period
Width: 312
GlyphClass: 2
Flags: W
HStem: 0 184<56 256>
VStem: 56 200<0 184>
LayerCount: 2
Fore
SplineSet
56 0 m 5
 56 184 l 5
 256 184 l 5
 256 0 l 5
 56 0 l 5
EndSplineSet
EndChar

StartChar: slash
Encoding: 47 47 15
GlifName: slash
Width: 474
GlyphClass: 2
Flags: W
LayerCount: 2
Fore
SplineSet
20 -80 m 1
 278 740 l 1
 454 740 l 1
 196 -80 l 1
 20 -80 l 1
EndSplineSet
EndChar

StartChar: zero
Encoding: 48 48 16
GlifName: zero
Width: 718
GlyphClass: 2
Flags: W
HStem: -16 164<292.008 425.992> 552 164<292.008 425.992>
VStem: 40 196<217.782 483.338> 482 196<217.782 483.338>
LayerCount: 2
Fore
SplineSet
40 351 m 0
 40 590 172 716 359 716 c 0
 546 716 678 590 678 351 c 0
 678 111 546 -16 359 -16 c 0
 172 -16 40 111 40 351 c 0
236 351 m 0
 236 209.01793722 279 148 359 148 c 0
 439 148 482 209.01793722 482 351 c 0
 482 491.963800905 439 552 359 552 c 0
 279 552 236 491.963800905 236 351 c 0
EndSplineSet
Substitution2: "'zero' Slashed Zero in Latin lookup 7 subtable" zero.zero
EndChar

StartChar: one
Encoding: 49 49 17
GlifName: one
Width: 549
GlyphClass: 2
Flags: W
HStem: 0 21G<245 441> 393 186<40 187.859> 696 20G<245 441>
VStem: 245 20<491.25 613>
LayerCount: 2
Fore
SplineSet
441 0 m 1
 245 0 l 1
 245 613 l 1
 265 613 l 1
 265 491.25 228.5781147 393 100 393 c 2
 40 393 l 1
 40 579 l 1
 90 579 l 2
 167.87804878 579 245 593.171171171 245 700 c 2
 245 716 l 1
 441 716 l 1
 441 0 l 1
EndSplineSet
EndChar

StartChar: two
Encoding: 50 50 18
GlifName: two
Width: 655
GlyphClass: 2
Flags: W
HStem: 0 174<304 615> 556 160<268.877 384.665>
VStem: 415 199<426.407 527.706>
LayerCount: 2
Fore
SplineSet
473 278 m 6
 304 174 l 5
 615 174 l 1
 615 0 l 1
 47 0 l 1
 47 202 l 5
 268 334 l 6
 376.697381725 398.923323021 415 435.289268863 415 474 c 4
 415 521.700423914 377.772411321 556 326 556 c 4
 267.845015269 556 228.504135523 508.397535508 226 435 c 5
 40 471 l 5
 56.2615671517 613.740422776 154.381813496 716 323 716 c 4
 508.314391897 716 614 609.750310676 614 470 c 4
 614 397.306115691 564.948497854 334.583690987 473 278 c 6
EndSplineSet
EndChar

StartChar: three
Encoding: 51 51 19
GlifName: three
Width: 676
GlyphClass: 2
Flags: W
HStem: -16 154<259.44 409.661> 286 148<259 414.98> 562 154<257.409 399.508>
VStem: 428 188<447.539 536.978> 444 192<169.296 269.547>
LayerCount: 2
Fore
SplineSet
498 363 m 1xf0
 579.673584984 347.056767829 636 294.687776941 636 207 c 0
 636 72.5946207298 511.649702743 -16 323 -16 c 0
 166.11319814 -16 56.9602360064 66.5396957479 40 198 c 1
 212 241 l 1
 219.929925952 178.423931094 267.418233354 138 333 138 c 0
 402.709007122 138 444 169.991219707 444 224 c 0xe8
 444 268.387949018 414.457204804 286 340 286 c 2
 259 286 l 1
 259 434 l 1
 340 434 l 2
 400.14528154 434 428 451.725729929 428 490 c 0
 428 533.170046059 386.757149224 562 325 562 c 0
 261.855375952 562 222 522.959209819 217 468 c 1
 41 512 l 1
 60.5322747747 645.361735419 178.32738676 716 339 716 c 0
 501.956492349 716 616 633.246407806 616 515 c 0
 616 432.968844188 567.22812045 383.025406123 498 363 c 1xf0
EndSplineSet
EndChar

StartChar: four
Encoding: 52 52 20
GlifName: four
Width: 719
GlyphClass: 2
Flags: W
HStem: 0 21G<390 586> 111 164<236 390 586 679> 680 20G<260.142 586>
VStem: 390 196<0 111 275 575>
LayerCount: 2
Fore
SplineSet
390 111 m 1
 36 111 l 1
 37 269 l 1
 271 700 l 1
 586 700 l 1
 586 275 l 1
 679 275 l 1
 679 111 l 1
 586 111 l 1
 586 0 l 1
 390 0 l 1
 390 111 l 1
390 575 m 1
 236 275 l 1
 390 275 l 1
 390 575 l 1
EndSplineSet
EndChar

StartChar: five
Encoding: 53 53 21
GlifName: five
Width: 693
GlyphClass: 2
Flags: W
HStem: -16 154<264.274 415.263> 341 142<315.328 493.855> 546 154<261 613>
VStem: 457 196<178.463 299.848>
LayerCount: 2
Fore
SplineSet
40 203 m 1
 220 236 l 1
 227.699261784 172.828188151 271.056802135 138 342 138 c 0
 409.270248888 138 457 180.33421403 457 240 c 0
 457 297.544017801 408.811188057 341 345 341 c 0
 302.188805419 341 269.439761521 321.489931295 251 285 c 1
 45 335 l 1
 99 700 l 1
 613 700 l 1
 613 546 l 1
 261 546 l 1
 229 392 l 1
 277.434206776 453.245531031 337.943930467 483 427 483 c 0
 560.709674546 483 653 390.301310274 653 256 c 0
 653 99.697389497 521.564362667 -16 344 -16 c 0
 165.352496711 -16 53.0447117054 64.9059372241 40 203 c 1
EndSplineSet
EndChar

StartChar: six
Encoding: 54 54 22
GlifName: six
Width: 702
GlyphClass: 2
Flags: W
HStem: -16 154<295.686 431.435> 315 148<317.517 503.427> 562.69 153.31<297.02 446.674>
VStem: 40 186.423<373 486.838> 466 196<173.121 283.197>
LayerCount: 2
Fore
SplineSet
40 356 m 4
 40 572.443367864 174.783726839 716 378 716 c 4
 532.548204656 716 632.783581707 646.819467257 658 540 c 5
 481 494 l 5
 474.850573837 532.221603112 427.313937018 562.690429688 373.831054688 562.690429688 c 4
 285.826572528 562.690429688 226.422851562 494.158088477 226.422851562 392.629882812 c 4
 226.422851562 386.137998309 226.615357546 379.590514774 227 373 c 5
 267.897243528 428.629668795 344.275757316 463 427 463 c 4
 574.039144927 463 662 376.536350971 662 232 c 4
 662 88.2545029316 531.261490275 -16 351 -16 c 4
 152.434266063 -16 40 118.487289311 40 356 c 4
259 230 m 4
 259 176.983594608 303.068411296 138 363 138 c 4
 422.106023371 138 466 177.206270387 466 230 c 4
 466 278.107166317 421.294566243 315 363 315 c 4
 303.886356119 315 259 278.314035864 259 230 c 4
EndSplineSet
EndChar

StartChar: seven
Encoding: 55 55 23
GlifName: seven
Width: 598
GlyphClass: 2
Flags: W
HStem: 0 21G<166 372> 546 154<20 444>
VStem: 166 206<0 221.92>
LayerCount: 2
Fore
SplineSet
444 546 m 5
 20 546 l 5
 20 700 l 1
 578 700 l 1
 578 488 l 1
 409.917400963 354.830684271 372 265.006938301 372 0 c 1
 166 0 l 1
 166 282.341328201 224.848317476 397.921117202 444 546 c 5
EndSplineSet
EndChar

StartChar: eight
Encoding: 56 56 24
GlifName: eight
Width: 706
GlyphClass: 2
Flags: W
HStem: -16 149<273.271 432.729> 303 130<283.498 420.054> 571 145<286.248 419.403>
VStem: 40 195<166.536 268.109> 66 195<455.513 545.673> 445 195<456.117 545.023> 471 195<166.536 268.109>
LayerCount: 2
Fore
SplineSet
40 197 m 0xf2
 40 307.13559322 116.342541436 348.677966102 181 368 c 1
 126.838709677 386.75 66 420.5 66 518 c 0
 66 632.79787234 189.69023569 716 353 716 c 0
 516.30976431 716 640 632.79787234 640 518 c 0xec
 640 420.5 579.161290323 386.75 525 368 c 1
 589.657458564 348.677966102 666 307.13559322 666 197 c 0
 666 65.2898550725 522.582043344 -16 353 -16 c 0
 183.417956656 -16 40 65.2898550725 40 197 c 0xf2
261 500 m 0
 261 466.064935065 292.568627451 433 353 433 c 0
 411.62745098 433 445 466.064935065 445 500 c 0
 445 534.185185185 411.62745098 571 353 571 c 0
 292.568627451 571 261 534.185185185 261 500 c 0
235 219 m 0xf2
 235 179.583333333 265.421875 133 353 133 c 0
 440.578125 133 471 179.583333333 471 219 c 0
 471 256.531914894 436.890625 303 353 303 c 0
 269.109375 303 235 256.531914894 235 219 c 0xf2
EndSplineSet
EndChar

StartChar: nine
Encoding: 57 57 25
GlifName: nine
Width: 702
GlyphClass: 2
Flags: W
HStem: -16 153.31<255.326 404.98> 237 148<198.573 384.483> 562 154<270.565 406.314>
VStem: 40 196<416.803 526.879> 475.577 186.423<213.162 327>
LayerCount: 2
Fore
SplineSet
662 344 m 4
 662 127.556632136 527.216273161 -16 324 -16 c 4
 169.451795344 -16 69.2164182926 53.1805327433 44 160 c 5
 221 206 l 5
 227.149426163 167.778396888 274.686062982 137.309570312 328.168945312 137.309570312 c 4
 416.173427472 137.309570312 475.577148438 205.841911523 475.577148438 307.370117188 c 4
 475.577148438 313.862001691 475.384642454 320.409485226 475 327 c 5
 434.102756472 271.370331205 357.724242684 237 275 237 c 4
 127.960855073 237 40 323.463649029 40 468 c 4
 40 611.745497068 170.738509725 716 351 716 c 4
 549.565733937 716 662 581.512710689 662 344 c 4
443 470 m 4
 443 523.016405392 398.931588704 562 339 562 c 4
 279.893976629 562 236 522.793729613 236 470 c 4
 236 421.892833683 280.705433757 385 339 385 c 4
 398.113643881 385 443 421.685964136 443 470 c 4
EndSplineSet
EndChar

StartChar: colon
Encoding: 58 58 26
GlifName: colon
Width: 312
GlyphClass: 2
Flags: W
HStem: 0 184<56 256> 316 184<56 256>
VStem: 56 200<0 184 316 500>
LayerCount: 2
Fore
SplineSet
56 316 m 5
 56 500 l 5
 256 500 l 5
 256 316 l 5
 56 316 l 5
56 0 m 5
 56 184 l 5
 256 184 l 5
 256 0 l 5
 56 0 l 5
EndSplineSet
EndChar

StartChar: semicolon
Encoding: 59 59 27
GlifName: semicolon
Width: 312
GlyphClass: 2
Flags: W
HStem: -182 88<55 162.685> 0 184<56 170> 316 184<56 256>
VStem: 56 200<-136.809 -94 0 184 316 500> 170 86<-87.6633 0>
LayerCount: 2
Fore
SplineSet
56 316 m 1xf0
 56 500 l 1
 256 500 l 1
 256 316 l 1
 56 316 l 1xf0
56 0 m 1
 56 184 l 1
 256 184 l 1xf0
 256 -58 l 2
 256 -131.80952381 217.759259259 -182 138 -182 c 2
 55 -182 l 1
 55 -94 l 1
 120 -94 l 2
 154 -94 170 -75.6 170 -48 c 2
 170 0 l 1xe8
 56 0 l 1
EndSplineSet
EndChar

StartChar: less
Encoding: 60 60 28
GlifName: less
Width: 607
GlyphClass: 2
Flags: W
LayerCount: 2
Fore
SplineSet
40 378 m 1
 559 587 l 1
 559 430 l 1
 233 306 l 1
 559 182 l 1
 559 25 l 1
 40 234 l 1
 40 378 l 1
EndSplineSet
EndChar

StartChar: equal
Encoding: 61 61 29
GlifName: equal
Width: 624
GlyphClass: 2
Flags: W
HStem: 102 144<48 576> 366 144<48 576>
LayerCount: 2
Fore
SplineSet
48 366 m 1
 48 510 l 1
 576 510 l 1
 576 366 l 1
 48 366 l 1
48 102 m 1
 48 246 l 1
 576 246 l 1
 576 102 l 1
 48 102 l 1
EndSplineSet
EndChar

StartChar: greater
Encoding: 62 62 30
GlifName: greater
Width: 607
GlyphClass: 2
Flags: W
LayerCount: 2
Fore
SplineSet
48 430 m 1
 48 587 l 1
 567 378 l 1
 567 234 l 1
 48 25 l 1
 48 182 l 1
 374 306 l 1
 48 430 l 1
EndSplineSet
EndChar

StartChar: question
Encoding: 63 63 31
GlifName: question
Width: 626
GlyphClass: 2
Flags: W
HStem: 0 174<203 403> 556 160<254.186 369.871>
VStem: 203 200<0 174> 391 199<423.764 532.742>
LayerCount: 2
Fore
SplineSet
203 0 m 1xe0
 203 174 l 1
 403 174 l 1
 403 0 l 1
 203 0 l 1xe0
184 229 m 1
 328 375 l 2
 372.295720071 419.910938406 391 452.272311615 391 484 c 0
 391 525.882960839 357.954915365 556 312 556 c 0
 259.660465656 556 224.253919574 516.265987175 222 455 c 1
 36 491 l 1
 52.7570334443 631.033843451 155.84930339 716 309 716 c 0
 478.408586866 716 590 622.279097866 590 480 c 0xd0
 590 425.287444855 553.686037419 360.611653416 484 294 c 2
 416 229 l 1
 184 229 l 1
EndSplineSet
EndChar

StartChar: at
Encoding: 64 64 32
GlifName: at
Width: 1032
GlyphClass: 2
Flags: W
HStem: -178 144<402.141 858> 34 113<738.668 802.538> 60 144<439.254 515.937> 372 144<439.254 516.961> 480 20G<587 719> 607 144<406.243 656.445>
VStem: 40 168<163.477 410.456> 276 144<221.864 354.025> 534 185<220.016 356.114> 587 132<163.858 177 439 500> 824 168<167.94 433.654>
LayerCount: 2
Fore
SplineSet
40 290 m 0xcfa0
 40 557 251 751 530 751 c 0
 813 751 992 559 992 290 c 0
 992 84 856 34 778 34 c 0xcfa0
 675 34 587 107 587 177 c 1
 587 177 563 60 456 60 c 0
 348 60 276 169 276 290 c 0
 276 415 348 516 456 516 c 0xb760
 552 516 587 439 587 439 c 1
 587 500 l 1
 719 500 l 1x8f60
 719 253 l 2
 719 175 745 147 771 147 c 0
 798 147 824 175 824 290 c 0
 824 516 709 607 530 607 c 0
 342 607 208 478 208 290 c 0
 208 116 316 -34 509 -34 c 2
 858 -34 l 1
 858 -178 l 1
 506 -178 l 2
 214 -178 40 29 40 290 c 0xcfa0
477 204 m 0xb7a0
 515 204 534 243 534 288 c 0
 534 333 515 372 477 372 c 0
 440 372 420 333 420 288 c 0
 420 243 440 204 477 204 c 0xb7a0
EndSplineSet
EndChar

StartChar: A
Encoding: 65 65 33
GlifName: A_
Width: 800
GlyphClass: 2
Flags: W
HStem: 0 21G<16 228.159 571.841 784> 132 168<202 568> 680 20G<235.543 564.457>
AnchorPoint: "Anchor-2" 400 716 basechar 0
AnchorPoint: "Anchor-1" 722 -6 basechar 0
AnchorPoint: "Anchor-0" 400 0 basechar 0
LayerCount: 2
Fore
SplineSet
202 300 m 5
 568 300 l 5
 568 132 l 5
 202 132 l 5
 202 300 l 5
400 578 m 5
 222 0 l 5
 16 0 l 5
 242 700 l 5
 558 700 l 5
 784 0 l 5
 578 0 l 5
 400 578 l 5
EndSplineSet
EndChar

StartChar: B
Encoding: 66 66 34
GlifName: B_
Width: 730
GlyphClass: 2
Flags: W
HStem: 0 154<256 481.651> 284 154<256 456.024> 546 154<256 451.533>
VStem: 60 196<154 284 438 546> 466 196<448.952 532.948> 497 197<169.38 268.158>
AnchorPoint: "Anchor-2" 334 716 basechar 0
AnchorPoint: "Anchor-0" 354 0 basechar 0
LayerCount: 2
Fore
SplineSet
490 0 m 2xf4
 60 0 l 1
 60 700 l 1
 439 700 l 2
 574.175996001 700 662 627.53535096 662 516 c 0xf8
 662 450.878899971 614.804094311 391.884017861 546 371 c 1
 633.203589603 354.817890589 694 276.357658252 694 180 c 0
 694 68.1594950593 616.752572266 0 490 0 c 2xf4
256 546 m 1
 256 438 l 1
 408 438 l 2
 442.32956362 438 466 458.813659575 466 489 c 0
 466 522.517475755 442.105501645 546 408 546 c 2
 256 546 l 1
256 284 m 1
 256 154 l 1
 431 154 l 2
 469.661904883 154 497 180.923881554 497 219 c 0xf4
 497 256.866485604 469.449046921 284 431 284 c 2
 256 284 l 1
EndSplineSet
EndChar

StartChar: C
Encoding: 67 67 35
GlifName: C_
Width: 819
GlyphClass: 2
Flags: W
HStem: -16 172<328.92 512.631> 544 172<329.213 511.581>
VStem: 40 196<252.015 450.099>
AnchorPoint: "Anchor-2" 426 716 basechar 0
AnchorPoint: "Anchor-0" 421 0 basechar 0
LayerCount: 2
Fore
SplineSet
589 288 m 1
 779 244 l 1
 737.601990962 82.7261406904 601.66368955 -16 421 -16 c 0
 197.522244523 -16 40 136.147469775 40 352 c 0
 40 565.254467758 197.785845561 716 421 716 c 0
 602.181337516 716 737.703515773 617.954625228 779 457 c 1
 588 414 l 1
 573.45092124 496.07940736 511.891390694 544 421 544 c 0
 306.727708288 544 236 470.596108155 236 352 c 0
 236 229.727030473 305.589288967 156 421 156 c 0
 514.954657627 156 576.671657485 204.49192846 589 288 c 1
EndSplineSet
EndChar

StartChar: D
Encoding: 68 68 36
GlifName: D_
Width: 796
GlyphClass: 2
Flags: HW
HStem: 0 164<256 477.512> 536 164<256 477.512>
VStem: 60 196<164 536> 559.5 196.25<248.514 451.486>
AnchorPoint: "Anchor-3" 178 350 basechar 0
AnchorPoint: "Anchor-2" 348 716 basechar 0
AnchorPoint: "Anchor-0" 348 0 basechar 0
LayerCount: 2
Fore
SplineSet
408 0 m 2
 60 0 l 1
 60 700 l 1
 408 700 l 2
 631 700 756 555 756 350 c 0
 756 145 631 0 408 0 c 2
256 536 m 1
 256 164 l 1
 388 164 l 2
 506 164 560 241 560 350 c 0
 560 459 506 536 388 536 c 2
 256 536 l 1
EndSplineSet
EndChar

StartChar: E
Encoding: 69 69 37
GlifName: E_
Width: 663
GlyphClass: 2
Flags: W
HStem: 0 164<256 627> 280 164<256 555> 536 164<256 621>
VStem: 60 196<164 280 444 536>
AnchorPoint: "Anchor-2" 352 716 basechar 0
AnchorPoint: "Anchor-1" 569 8 basechar 0
AnchorPoint: "Anchor-0" 362 0 basechar 0
LayerCount: 2
Fore
SplineSet
627 0 m 5
 60 0 l 5
 60 700 l 5
 621 700 l 5
 621 536 l 5
 256 536 l 5
 256 444 l 5
 555 444 l 5
 555 280 l 5
 256 280 l 5
 256 164 l 5
 627 164 l 5
 627 0 l 5
EndSplineSet
EndChar

StartChar: F
Encoding: 70 70 38
GlifName: F_
Width: 663
GlyphClass: 2
Flags: W
HStem: 0 21G<60 256> 240 164<256 567> 536 164<256 633>
VStem: 60 196<0 240 404 536>
LayerCount: 2
Fore
SplineSet
256 0 m 1
 60 0 l 1
 60 700 l 1
 633 700 l 5
 633 536 l 5
 256 536 l 1
 256 404 l 1
 567 404 l 5
 567 240 l 5
 256 240 l 1
 256 0 l 1
EndSplineSet
EndChar

StartChar: G
Encoding: 71 71 39
GlifName: G_
Width: 816
GlyphClass: 2
Flags: W
HStem: -16 167<323.571 499.625> 0 21G<592 758> 258 144<366 562> 545 171<328.121 498.566>
VStem: 40 196<246.209 448.404> 592 166<0 88>
AnchorPoint: "Anchor-2" 396 716 basechar 0
AnchorPoint: "Anchor-0" 389 0 basechar 0
LayerCount: 2
Fore
SplineSet
40 352 m 0xbc
 40 563.483365261 185.449646946 716 411 716 c 0
 588.162634017 716 705.807973948 645.547633107 760 507 c 1
 559 448 l 1
 542.077356732 508.288853969 486.821404974 545 413 545 c 0
 300.530905869 545 236 463.731837104 236 352 c 0
 236 234.381332017 296.106692094 151 405 151 c 0xbc
 494.199124227 151 551.545519136 190.083211817 562 258 c 1
 366 258 l 1
 366 402 l 1
 758 402 l 1
 758 0 l 1
 592 0 l 1x7c
 592 88 l 1
 555.085360223 19.7257495726 487.576490976 -16 362 -16 c 0
 165.067649089 -16 40 138.36302753 40 352 c 0xbc
EndSplineSet
EndChar

StartChar: H
Encoding: 72 72 40
GlifName: H_
Width: 784
GlyphClass: 2
Flags: W
HStem: 0 21G<60 256 528 724> 262 174<256 528> 680 20G<60 256 528 724>
VStem: 60 196<0 262 436 700> 528 196<0 262 436 700>
AnchorPoint: "Anchor-3" 392 540 basechar 0
AnchorPoint: "Anchor-2" 392 700 basechar 0
AnchorPoint: "Anchor-0" 392 0 basechar 0
LayerCount: 2
Fore
SplineSet
256 0 m 5
 60 0 l 5
 60 700 l 5
 256 700 l 5
 256 436 l 5
 528 436 l 5
 528 700 l 5
 724 700 l 5
 724 0 l 5
 528 0 l 5
 528 262 l 5
 256 262 l 5
 256 0 l 5
EndSplineSet
EndChar

StartChar: I
Encoding: 73 73 41
GlifName: I_
Width: 316
GlyphClass: 2
Flags: W
HStem: 0 21G<60 256> 680 20G<60 256>
VStem: 60 196<0 700>
AnchorPoint: "Anchor-2" 160 716 basechar 0
AnchorPoint: "Anchor-1" 194 -6 basechar 0
AnchorPoint: "Anchor-0" 160 0 basechar 0
LayerCount: 2
Fore
SplineSet
60 0 m 5
 60 700 l 5
 256 700 l 5
 256 0 l 5
 60 0 l 5
EndSplineSet
EndChar

StartChar: J
Encoding: 74 74 42
GlifName: J_
Width: 484
GlyphClass: 2
Flags: W
HStem: 0 174<36 216.903> 680 20G<232 428>
VStem: 232 196<193.082 700>
AnchorPoint: "Anchor-2" 330 716 basechar 0
AnchorPoint: "Anchor-0" 232 0 basechar 0
LayerCount: 2
Fore
SplineSet
232 232 m 6
 232 700 l 5
 428 700 l 5
 428 206 l 6
 428 65.8897058824 358.503355705 0 210 0 c 6
 36 0 l 1
 36 174 l 1
 160 174 l 6
 203 174 232 197.446808511 232 232 c 6
EndSplineSet
EndChar

StartChar: K
Encoding: 75 75 43
GlifName: K_
Width: 767
GlyphClass: 2
Flags: W
HStem: 0 21G<60 256 505.394 747> 680 20G<60 256 486.721 728>
VStem: 60 196<0 269 453 700>
AnchorPoint: "Anchor-2" 372 716 basechar 0
AnchorPoint: "Anchor-0" 372 0 basechar 0
LayerCount: 2
Fore
SplineSet
256 0 m 1
 60 0 l 1
 60 700 l 1
 256 700 l 1
 256 453 l 1
 336 453 l 1
 500 700 l 1
 728 700 l 1
 506 361 l 1
 747 0 l 1
 519 0 l 1
 336 269 l 1
 256 269 l 1
 256 0 l 1
EndSplineSet
EndChar

StartChar: L
Encoding: 76 76 44
GlifName: L_
Width: 647
GlyphClass: 2
Flags: W
HStem: 0 174<256 611> 680 20G<60 256>
VStem: 60 196<174 700>
AnchorPoint: "Anchor-4" 787 700 basechar 0
AnchorPoint: "Anchor-3" 526 350 basechar 0
AnchorPoint: "Anchor-2" 159 716 basechar 0
AnchorPoint: "Anchor-0" 348 0 basechar 0
LayerCount: 2
Fore
SplineSet
611 0 m 1
 60 0 l 1
 60 700 l 1
 256 700 l 1
 256 174 l 1
 611 174 l 1
 611 0 l 1
EndSplineSet
EndChar

StartChar: M
Encoding: 77 77 45
GlifName: M_
Width: 1100
GlyphClass: 2
Flags: W
HStem: 0 21G<60 256 405.301 694.699 844 1040> 680 20G<60 406.676 693.324 1040>
VStem: 60 196<0 544> 844 196<0 544>
LayerCount: 2
Fore
SplineSet
256 0 m 1
 60 0 l 1
 60 700 l 1
 401 700 l 1
 550 175 l 1
 699 700 l 1
 1040 700 l 1
 1040 0 l 1
 844 0 l 1
 844 544 l 1
 689 0 l 1
 411 0 l 1
 256 544 l 1
 256 0 l 1
EndSplineSet
EndChar

StartChar: N
Encoding: 78 78 46
GlifName: N_
Width: 784
GlyphClass: 2
Flags: W
HStem: 0 21G<60 256 455.543 724> 680 20G<60 328.457 528 724>
VStem: 60 196<0 442> 528 196<258 700>
AnchorPoint: "Anchor-2" 395 716 basechar 0
AnchorPoint: "Anchor-0" 395 0 basechar 0
LayerCount: 2
Fore
SplineSet
256 0 m 1
 60 0 l 1
 60 700 l 1
 319 700 l 1
 528 258 l 1
 528 700 l 1
 724 700 l 1
 724 0 l 1
 465 0 l 1
 256 442 l 1
 256 0 l 1
EndSplineSet
EndChar

StartChar: O
Encoding: 79 79 47
GlifName: O_
Width: 827
GlyphClass: 2
Flags: W
HStem: -16 182<326.275 501.346> 532 182<326.304 501.317>
VStem: 40 196<255.299 443.883> 591 196<255.307 443.875>
AnchorPoint: "Anchor-4" 513 699 basechar 0
AnchorPoint: "Anchor-3" 414 350 basechar 0
AnchorPoint: "Anchor-2" 414 716 basechar 0
AnchorPoint: "Anchor-1" 470 10 basechar 0
AnchorPoint: "Anchor-0" 414 0 basechar 0
LayerCount: 2
Fore
SplineSet
236 350 m 4
 236 239.629632935 307.125752675 166 414 166 c 4
 520.028129902 166 591 239.858881124 591 350 c 4
 591 459.039711222 520.174131802 532 414 532 c 4
 306.979059023 532 236 459.266331475 236 350 c 4
40 350 m 4
 40 557.97175218 200.314738145 714 414 714 c 4
 627.375140128 714 787 558.226678302 787 350 c 4
 787 140.240672596 627.771117819 -16 414 -16 c 4
 199.917504121 -16 40 140.496808846 40 350 c 4
EndSplineSet
EndChar

StartChar: P
Encoding: 80 80 48
GlifName: P_
Width: 736
GlyphClass: 2
Flags: W
HStem: 0 21G<60 256> 191 164<256 468.639> 536 164<256 468.639>
VStem: 60 196<0 191 355 536> 505 196<389.716 500.526>
LayerCount: 2
Fore
SplineSet
256 0 m 5
 60 0 l 5
 60 700 l 5
 436 700 l 6
 615.996268657 700 701 572.5 701 445 c 4
 701 317.468619247 615.996268657 191 436 191 c 6
 256 191 l 5
 256 0 l 5
256 536 m 5
 256 355 l 5
 396 355 l 6
 471.991071429 355 505 399.526315789 505 445 c 4
 505 490.5 471.991071429 536 396 536 c 6
 256 536 l 5
EndSplineSet
EndChar

StartChar: Q
Encoding: 81 81 49
GlifName: Q_
Width: 827
GlyphClass: 2
Flags: W
HStem: 0 182<329.375 505.756> 0 172<624 787> 532 182<320.942 502.168>
VStem: 40 196<269.265 445.894> 591 196<290.246 447.439>
LayerCount: 2
Fore
SplineSet
40 358 m 0xb8
 40 571.208791209 206.926553672 714 414 714 c 4
 621.104815864 714 787 571.616099071 787 399 c 4
 787 265.203765075 703.96373057 188.256574174 624 172 c 5
 787 172 l 5
 787 0 l 5x78
 414 0 l 6
 206.926553672 0 40 142.808743169 40 358 c 0xb8
236 358 m 0
 236 252.762886598 306.974683544 182 414 182 c 4xb8
 519.974522293 182 591 252.762886598 591 358 c 4
 591 462.21875 519.974522293 532 414 532 c 4
 306.974683544 532 236 462.21875 236 358 c 0
EndSplineSet
EndChar

StartChar: R
Encoding: 82 82 50
GlifName: R_
Width: 747
GlyphClass: 2
Flags: W
HStem: 0 21G<60 256 495 691> 223 164<256 462.928> 536 164<256 457.807>
VStem: 60 196<0 223 387 536> 483.25 193.031<410.761 513.704> 495 196<0 209.986>
AnchorPoint: "Anchor-2" 355 716 basechar 0
AnchorPoint: "Anchor-0" 385 0 basechar 0
LayerCount: 2
Fore
SplineSet
256 536 m 1xf8
 256 387 l 1
 405 387 l 2
 452.847125037 387 483.25 415.945868175 483.25 461.5 c 0
 483.25 507.054131825 452.847125037 536 405 536 c 2
 256 536 l 1xf8
256 0 m 1
 60 0 l 1
 60 700 l 1
 445 700 l 2
 583.023743508 700 676.28125 619.56957462 676.28125 500.530273438 c 0xf8
 676.28125 415.360698021 625.506480008 347.333118072 549 330 c 1
 645.964702137 318.504870125 691 260.783572864 691 148 c 2
 691 0 l 1
 495 0 l 1
 495 128 l 2xf4
 495 209.028219011 482.204790042 223 408 223 c 2
 256 223 l 1
 256 0 l 1
EndSplineSet
EndChar

StartChar: S
Encoding: 83 83 51
GlifName: S_
Width: 727
GlyphClass: 2
Flags: W
HStem: -16 154<280.433 462.592> 561 154<277.757 444.588>
VStem: 59 196<471.872 537.763> 491 196<166.875 238.645>
AnchorPoint: "Anchor-2" 357 716 basechar 0
AnchorPoint: "Anchor-0" 371 0 basechar 0
LayerCount: 2
Fore
SplineSet
678 516 m 1
 491 471 l 1
 485.115044248 526.058823529 430.973451327 561 358 561 c 0
 295.978494624 561 255 536.027777778 255 499 c 0
 255 459.998420603 314.947031042 451.590811345 390.178941598 441.039488007 c 0
 516.904595706 423.266134361 687 399.410145649 687 213 c 0
 687 76.0182648402 561.013071895 -16 371 -16 c 0
 188.485981308 -16 64.7476635514 68.68 40 203 c 1
 227 242 l 1
 231.298507463 178.733333333 286.104477612 138 371 138 c 0
 438.636363636 138 491 164 491 203 c 0
 491 249.925413567 426.500397049 257.56418655 347.346430301 266.938495151 c 0
 221.650364672 281.824845861 59 301.08774291 59 489 c 0
 59 625.018518519 179.01384083 715 358 715 c 0
 535.066666667 715 654.533333333 638.137566138 678 516 c 1
EndSplineSet
EndChar

StartChar: T
Encoding: 84 84 52
GlifName: T_
Width: 674
GlyphClass: 2
Flags: W
HStem: 0 21G<239 435> 526 174<20 239 435 654>
VStem: 239 196<0 526>
AnchorPoint: "Anchor-3" 337 406 basechar 0
AnchorPoint: "Anchor-2" 337 716 basechar 0
AnchorPoint: "Anchor-0" 337 0 basechar 0
LayerCount: 2
Fore
SplineSet
239 526 m 1
 20 526 l 1
 20 700 l 1
 654 700 l 1
 654 526 l 1
 435 526 l 1
 435 0 l 1
 239 0 l 1
 239 526 l 1
EndSplineSet
EndChar

StartChar: U
Encoding: 85 85 53
GlifName: U_
Width: 779
GlyphClass: 2
Flags: W
HStem: -15.5 182.5<309.811 469.189> 680 20G<56 252 527 723>
VStem: 56 196<224.224 700> 527 196<224.224 700>
AnchorPoint: "Anchor-4" 527 700 basechar 0
AnchorPoint: "Anchor-2" 390 716 basechar 0
AnchorPoint: "Anchor-1" 392 -10 basechar 0
AnchorPoint: "Anchor-0" 390 0 basechar 0
LayerCount: 2
Fore
SplineSet
56 290 m 6
 56 700 l 5
 252 700 l 5
 252 300 l 6
 252 201.553921569 320.75 167 389.5 167 c 4
 458.25 167 527 201.553921569 527 300 c 6
 527 700 l 5
 723 700 l 5
 723 290 l 6
 723 76.3333333333 556.25 -15.5 389.5 -15.5 c 4
 222.75 -15.5 56 76.3333333333 56 290 c 6
EndSplineSet
EndChar

StartChar: V
Encoding: 86 86 54
GlifName: V_
Width: 800
GlyphClass: 2
Flags: W
HStem: 0 21G<235.543 564.457> 680 20G<16 228.159 571.841 784>
LayerCount: 2
Fore
SplineSet
400 122 m 5
 578 700 l 5
 784 700 l 5
 558 0 l 5
 242 0 l 5
 16 700 l 5
 222 700 l 5
 400 122 l 5
EndSplineSet
EndChar

StartChar: W
Encoding: 87 87 55
GlifName: W_
Width: 1152
GlyphClass: 2
Flags: W
HStem: 0 21G<183.2 472.17 679.83 968.8> 680 20G<20 229.946 433.745 718.255 922.054 1132>
AnchorPoint: "Anchor-2" 576 716 basechar 0
AnchorPoint: "Anchor-0" 576 0 basechar 0
LayerCount: 2
Fore
SplineSet
188 0 m 1
 20 700 l 1
 226 700 l 1
 328 183 l 1
 438 700 l 1
 714 700 l 5
 824 183 l 1
 926 700 l 1
 1132 700 l 1
 964 0 l 1
 684 0 l 1
 576 518 l 1
 468 0 l 1
 188 0 l 1
EndSplineSet
EndChar

StartChar: X
Encoding: 88 88 56
GlifName: X_
Width: 792
GlyphClass: 2
Flags: W
HStem: 0 21G<26 273.391 518.609 766> 680 20G<26 273.391 518.609 766>
LayerCount: 2
Fore
SplineSet
263 0 m 1
 26 0 l 1
 226 350 l 1
 26 700 l 1
 263 700 l 1
 396 444 l 1
 529 700 l 1
 766 700 l 1
 566 350 l 1
 766 0 l 1
 529 0 l 1
 396 256 l 1
 263 0 l 1
EndSplineSet
EndChar

StartChar: Y
Encoding: 89 89 57
GlifName: Y_
Width: 758
GlyphClass: 2
Flags: W
HStem: 0 21G<280 476> 680 20G<20 238.49 519.382 738>
VStem: 280 196<0 198>
AnchorPoint: "Anchor-2" 379 716 basechar 0
AnchorPoint: "Anchor-0" 379 0 basechar 0
LayerCount: 2
Fore
SplineSet
280 198 m 1
 20 700 l 1
 229 700 l 1
 378 386 l 1
 529 700 l 1
 738 700 l 1
 476 198 l 1
 476 0 l 1
 280 0 l 1
 280 198 l 1
EndSplineSet
EndChar

StartChar: Z
Encoding: 90 90 58
GlifName: Z_
Width: 692
GlyphClass: 2
Flags: W
HStem: 0 164<241 652> 536 164<50 451>
AnchorPoint: "Anchor-3" 351 350 basechar 0
AnchorPoint: "Anchor-2" 351 716 basechar 0
AnchorPoint: "Anchor-0" 351 0 basechar 0
LayerCount: 2
Fore
SplineSet
652 0 m 1
 40 0 l 1
 40 242 l 1
 451 536 l 1
 50 536 l 1
 50 700 l 1
 642 700 l 1
 642 458 l 1
 241 164 l 1
 652 164 l 1
 652 0 l 1
EndSplineSet
EndChar

StartChar: bracketleft
Encoding: 91 91 59
GlifName: bracketleft
Width: 407
GlyphClass: 2
Flags: W
HStem: -100 154<228 379> 647 154<228 379>
VStem: 60 319<-100 54 647 801> 60 168<54 647>
LayerCount: 2
Fore
SplineSet
379 801 m 5xe0
 379 647 l 5xe0
 228 647 l 1
 228 54 l 1xd0
 379 54 l 5
 379 -100 l 5
 60 -100 l 1
 60 801 l 1
 379 801 l 5xe0
EndSplineSet
EndChar

StartChar: backslash
Encoding: 92 92 60
GlifName: backslash
Width: 474
GlyphClass: 2
Flags: W
LayerCount: 2
Fore
SplineSet
20 740 m 1
 196 740 l 1
 454 -80 l 1
 278 -80 l 1
 20 740 l 1
EndSplineSet
EndChar

StartChar: bracketright
Encoding: 93 93 61
GlifName: bracketright
Width: 407
GlyphClass: 2
Flags: W
HStem: -100 154<28 179> 647 154<28 179>
VStem: 28 319<-100 54 647 801> 179 168<54 647>
LayerCount: 2
Fore
SplineSet
28 647 m 1xe0
 28 801 l 1
 347 801 l 5
 347 -100 l 5
 28 -100 l 1
 28 54 l 1xe0
 179 54 l 5
 179 647 l 5xd0
 28 647 l 1xe0
EndSplineSet
EndChar

StartChar: asciicircum
Encoding: 94 94 62
GlifName: asciicircum
Width: 560
GlyphClass: 2
Flags: W
HStem: 371 329
LayerCount: 2
Fore
SplineSet
364 700 m 1
 520 371 l 1
 364 371 l 1
 280 560 l 1
 196 371 l 1
 40 371 l 1
 196 700 l 1
 364 700 l 1
EndSplineSet
EndChar

StartChar: underscore
Encoding: 95 95 63
GlifName: underscore
Width: 596
GlyphClass: 2
Flags: W
HStem: -144 144<48 548>
LayerCount: 2
Fore
SplineSet
48 -144 m 1
 48 0 l 1
 548 0 l 1
 548 -144 l 1
 48 -144 l 1
EndSplineSet
EndChar

StartChar: grave
Encoding: 96 96 64
GlifName: grave
Width: 244
GlyphClass: 2
Flags: W
HStem: 572 168
VStem: 40 164
LayerCount: 2
Fore
SplineSet
140 572 m 1
 40 740 l 1
 132 740 l 1
 204 572 l 1
 140 572 l 1
EndSplineSet
EndChar

StartChar: a
Encoding: 97 97 65
GlifName: a
Width: 649
GlyphClass: 2
Flags: HW
HStem: -16 129<162.826 311.545> 0 21G<464.363 623> 382 134<243.009 349.277>
VStem: 36 194<119.742 185.941> 365 199<145.805 213 317 363.467>
AnchorPoint: "Anchor-2" 308 540 basechar 0
AnchorPoint: "Anchor-1" 572 -14 basechar 0
AnchorPoint: "Anchor-0" 323 0 basechar 0
LayerCount: 2
Fore
SplineSet
592 144 m 2xb8
 623 144 l 1
 623 0 l 1
 494 0 l 2x78
 434.726208959 0 396 35.5648857783 396 90 c 2
 396 94 l 1
 373.364197308 28.6990111659 300.626715502 -16 217 -16 c 0
 108.65177085 -16 36 43.4058678771 36 132 c 0
 36 214.684579213 103.002357358 269.722229899 232 293 c 2
 365 317 l 1
 365 325 l 2
 365 356.873664674 335.90634857 382 299 382 c 0
 255.306425592 382 223.238117784 355.142792211 219 315 c 1
 34 343 l 1
 52.3010424316 451.323812868 158.283255726 516 306 516 c 0
 458.008612142 516 564 433.836133443 564 316 c 2
 564 175 l 2
 564 151.775684214 571.023198645 144 592 144 c 2xb8
283 113 m 0xb8
 329.853728152 113 368 157.87796688 368 213 c 1
 288 199 l 2
 250.811102443 192.491942927 230 175.986585818 230 153 c 0
 230 128.641418699 250.724879776 113 283 113 c 0xb8
EndSplineSet
EndChar

StartChar: b
Encoding: 98 98 66
GlifName: b
Width: 674
GlyphClass: 2
Flags: W
HStem: -16 153<322.016 480.408> 0 21G<56 252> 363 153<327.882 488.122> 680 20G<56 252>
VStem: 56 196<0 81 173.996 326.004 419 700> 442 196<179.479 322.411>
LayerCount: 2
Fore
SplineSet
252 0 m 5x7c
 56 0 l 5x7c
 56 700 l 5
 252 700 l 5
 252 419 l 5
 281 472.05982906 335 516 422 516 c 4
 554.244897959 516 638 410 638 250 c 4
 638 74 538.816326531 -16 422 -16 c 4xbc
 325 -16 282 22.9658119658 252 81 c 5
 252 0 l 5x7c
252 250 m 4
 252 187.528455285 284.452380952 137 346 137 c 4xbc
 402.930232558 137 442 187.528455285 442 250 c 4
 442 312.471544715 407.395348837 363 346 363 c 4
 284.452380952 363 252 312.471544715 252 250 c 4
EndSplineSet
EndChar

StartChar: c
Encoding: 99 99 67
GlifName: c
Width: 637
GlyphClass: 2
Flags: W
HStem: -16 154<266.438 386.442> 362 154<266.997 384.962>
VStem: 36 192<174.448 321.712>
AnchorPoint: "Anchor-2" 322 540 basechar 0
AnchorPoint: "Anchor-0" 322 0 basechar 0
LayerCount: 2
Fore
SplineSet
36 251 m 0
 36 406.701259551 153.960150069 516 322 516 c 0
 477.606335825 516 578.820435929 445.873087785 602 322 c 1
 418 285 l 1
 409.018163367 331.542664737 371.836481357 362 324 362 c 0
 267.918025159 362 228 315.84478341 228 251 c 0
 228 182.249069445 265.592129794 138 324 138 c 0
 373.977758587 138 409.219880522 166.11871431 418 213 c 1
 603 187 l 1
 581.941692347 58.4028853838 478.950506175 -16 322 -16 c 0
 153.504808037 -16 36 93.6985445662 36 251 c 0
EndSplineSet
EndChar

StartChar: d
Encoding: 100 100 68
GlifName: d
Width: 674
GlyphClass: 2
Flags: HW
HStem: -16 153<193.592 351.984> 0 21G<422 618> 363 153<185.878 346.118> 680 20G<422 618>
VStem: 36 196<179.479 322.411> 422 196<0 81 173.996 326.004 419 700>
AnchorPoint: "Anchor-4" 564 500 basechar 0
AnchorPoint: "Anchor-3" 524 599 basechar 0
AnchorPoint: "Anchor-2" 251 564 basechar 0
AnchorPoint: "Anchor-0" 292 0 basechar 0
LayerCount: 2
Fore
SplineSet
618 700 m 5xbc
 618 0 l 5
 422 0 l 5x7c
 422 81 l 5
 392 22.9658119658 349 -16 252 -16 c 4
 135.183673469 -16 36 74 36 250 c 4
 36 410 119.755102041 516 252 516 c 4
 339 516 393 472.05982906 422 419 c 5
 422 700 l 5
 618 700 l 5xbc
422 250 m 4
 422 312.471544715 389.547619048 363 328 363 c 4
 266.604651163 363 232 312.471544715 232 250 c 4
 232 187.528455285 271.069767442 137 328 137 c 4xbc
 389.547619048 137 422 187.528455285 422 250 c 4
EndSplineSet
EndChar

StartChar: e
Encoding: 101 101 69
GlifName: e
Width: 649
GlyphClass: 2
Flags: HW
HStem: -16 141<266.808 401.878> 195 130<237 412> 382 134<261.101 390.111>
VStem: 36 577<200.447 319.589>
AnchorPoint: "Anchor-2" 331 540 basechar 0
AnchorPoint: "Anchor-1" 331 -16 basechar 0
AnchorPoint: "Anchor-0" 331 0 basechar 0
LayerCount: 2
Fore
SplineSet
236 195 m 5
 248.846695218 148.756615928 282.445337745 125 335 125 c 4
 379.335807888 125 401.633693787 141.317009977 419 165 c 5
 621 141 l 5
 578.039833091 40.6453912934 473.4082186 -16 331 -16 c 4
 154.110472116 -16 36 90.8999866274 36 251 c 4
 36 401.198389738 163.798018971 516 331 516 c 4
 493.275396072 516 613 395.850840739 613 233 c 4
 613 223.696938457 612.550510257 215.156633344 611 195 c 5
 236 195 l 5
326 382 m 4
 279.19293196 382 248.681201514 362.458779377 237 325 c 5
 412 325 l 5
 400.428977412 362.762541979 371.404040748 382 326 382 c 4
EndSplineSet
EndChar

StartChar: f
Encoding: 102 102 70
GlifName: f
Width: 450
GlyphClass: 2
Flags: W
HStem: 0 21G<111 307> 356 144<20 111 307 437> 572 144<315.03 462>
VStem: 111 196<0 356 500 563.028>
LayerCount: 2
Fore
SplineSet
111 356 m 1
 20 356 l 1
 20 500 l 1
 111 500 l 1
 111 530 l 2
 111 603.910910518 171 716 307 716 c 2
 462 716 l 1
 462 572 l 1
 357 572 l 2
 330 572 307 551 307 525 c 2
 307 500 l 1
 437 500 l 1
 437 356 l 1
 307 356 l 1
 307 0 l 1
 111 0 l 1
 111 356 l 1
EndSplineSet
EndChar

StartChar: g
Encoding: 103 103 71
GlifName: g
Width: 674
GlyphClass: 2
Flags: W
HStem: -200 157<77 417.607> 4 153<191.403 351.364> 363 153<183.796 344.137> 480 20G<422 618>
VStem: 36 196<193.96 327.806> 422 196<-38.607 101 190.722 329.278 419 500>
AnchorPoint: "Anchor-2" 337 540 basechar 0
AnchorPoint: "Anchor-0" 321 -200 basechar 0
LayerCount: 2
Fore
SplineSet
36 260 m 0xdc
 36 413.984962406 118.591836735 516 249 516 c 0xec
 337.535294118 516 392.488235294 472.05982906 422 419 c 1
 422 500 l 1
 618 500 l 1
 618 -40 l 2
 618 -128 571.641509434 -200 436 -200 c 2
 77 -200 l 1
 77 -43 l 1
 382 -43 l 2
 404 -43 422 -25 422 -3 c 2
 422 101 l 1
 391.470588235 42.9658119658 347.711764706 4 249 4 c 0
 133.806122449 4 36 90.6165413534 36 260 c 0xdc
422 260 m 0
 422 316.943089431 389.547619048 363 328 363 c 0
 266.604651163 363 232 316.943089431 232 260 c 0
 232 203.056910569 271.069767442 157 328 157 c 0
 389.547619048 157 422 203.056910569 422 260 c 0
EndSplineSet
EndChar

StartChar: h
Encoding: 104 104 72
GlifName: h
Width: 676
GlyphClass: 2
Flags: W
HStem: 0 21G<56 252 424 620> 362 154<325.725 490.093> 680 20G<56 252>
VStem: 56 196<0 333.023 417 700> 424 196<0 328.859>
AnchorPoint: "Anchor-3" 159 584 basechar 0
AnchorPoint: "Anchor-2" 463 556 basechar 0
AnchorPoint: "Anchor-0" 343 0 basechar 0
LayerCount: 2
Fore
SplineSet
252 0 m 5
 56 0 l 5
 56 700 l 5
 252 700 l 5
 252 417 l 5
 267.722543353 470.720930233 336.50867052 516 422 516 c 4
 558.185365854 516 620 414.857142857 620 280 c 6
 620 0 l 5
 424 0 l 5
 424 260 l 6
 424 318.727272727 394.722222222 362 339 362 c 4
 281.315217391 362 252 318.727272727 252 260 c 6
 252 0 l 5
EndSplineSet
EndChar

StartChar: i
Encoding: 105 105 73
GlifName: i
Width: 312
GlyphClass: 2
Flags: W
HStem: 0 21G<57 253> 562 154<56 256>
VStem: 57 196<0 499 562 716>
AnchorPoint: "Anchor-2" 155 540 basechar 0
AnchorPoint: "Anchor-1" 159 9 basechar 0
AnchorPoint: "Anchor-0" 155 0 basechar 0
LayerCount: 2
Fore
SplineSet
56 562 m 5
 56 716 l 5
 256 716 l 5
 256 562 l 5
 56 562 l 5
253 0 m 1
 57 0 l 1
 57 499 l 1
 253 499 l 1
 253 0 l 1
EndSplineSet
Substitution2: "Single Substitution lookup 9 subtable" dotlessi
Substitution2: "'locl' Localized Forms in Latin lookup 2 subtable" i.loclTRK
EndChar

StartChar: j
Encoding: 106 106 74
GlifName: j
Width: 318
GlyphClass: 2
Flags: W
HStem: -196 159<-36 56.2233> 480 20G<58 254> 562 154<56 256>
VStem: 58 196<-32.5991 500 562 716>
AnchorPoint: "Anchor-2" 158 504 basechar 0
AnchorPoint: "Anchor-0" 133 -196 basechar 0
LayerCount: 2
Fore
SplineSet
56 562 m 1
 56 716 l 1
 256 716 l 1
 256 562 l 1
 56 562 l 1
50 -196 m 2
 -36 -196 l 1
 -36 -37 l 1
 18 -37 l 2
 48 -37 58 -23 58 -2 c 2
 58 500 l 5
 254 500 l 5
 254 -23 l 2
 254 -126.461599912 192.071428571 -196 50 -196 c 2
EndSplineSet
Substitution2: "Single Substitution lookup 9 subtable" uni0237
EndChar

StartChar: k
Encoding: 107 107 75
GlifName: k
Width: 676
GlyphClass: 2
Flags: W
HStem: 0 21G<56 252 414.571 664> 480 20G<405.643 654> 680 20G<56 252>
VStem: 56 196<0 168 332 700>
AnchorPoint: "Anchor-2" 332 715 basechar 0
AnchorPoint: "Anchor-0" 342 0 basechar 0
LayerCount: 2
Fore
SplineSet
252 0 m 1
 56 0 l 1
 56 700 l 1
 252 700 l 1
 252 332 l 1
 292 332 l 1
 421 500 l 1
 654 500 l 1
 456 250 l 1
 664 0 l 1
 431 0 l 1
 293 168 l 1
 252 168 l 1
 252 0 l 1
EndSplineSet
EndChar

StartChar: l
Encoding: 108 108 76
GlifName: l
Width: 308
GlyphClass: 2
Flags: W
HStem: 0 21G<56 252> 680 20G<56 252>
VStem: 56 196<0 700>
AnchorPoint: "Anchor-4" 233 716 basechar 0
AnchorPoint: "Anchor-3" 164 400 basechar 0
AnchorPoint: "Anchor-2" 154 716 basechar 0
AnchorPoint: "Anchor-0" 156 0 basechar 0
LayerCount: 2
Fore
SplineSet
252 0 m 5
 56 0 l 5
 56 700 l 5
 252 700 l 5
 252 0 l 5
EndSplineSet
EndChar

StartChar: m
Encoding: 109 109 77
GlifName: m
Width: 1004
GlyphClass: 2
Flags: W
HStem: 0 21G<56 252 404 600 752 948> 362 154<321.558 452.803 665.618 824.654> 480 20G<56 252>
VStem: 56 196<0 336.341 417 500> 404 196<0 336.341> 752 196<0 334.705>
CounterMasks: 1 1c
LayerCount: 2
Fore
SplineSet
252 0 m 1xdc
 56 0 l 1
 56 500 l 1
 252 500 l 1xbc
 252 417 l 1
 266.797687861 470.720930233 331.537572254 516 412 516 c 4
 493.605687051 516 546.318061957 475.286108228 573.299804688 411.456054688 c 5
 610.588107285 472.177005764 679.342808936 516 760 516 c 4
 889.307317073 516 948 414.857142857 948 280 c 2
 948 0 l 1
 752 0 l 1
 752 260 l 2
 752 318.727272727 726.166666667 362 677 362 c 4
 625.945652174 362 600 318.727272727 600 260 c 2
 600 0 l 1
 404 0 l 1
 404 260 l 2
 404 318.727272727 378.166666667 362 329 362 c 4
 277.945652174 362 252 318.727272727 252 260 c 2
 252 0 l 1xdc
EndSplineSet
EndChar

StartChar: n
Encoding: 110 110 78
GlifName: n
Width: 676
GlyphClass: 2
Flags: W
HStem: 0 21G<56 252 424 620> 362 154<325.725 490.093> 480 20G<56 252>
VStem: 56 196<0 333.023 417 500> 424 196<0 328.859>
AnchorPoint: "Anchor-2" 342 540 basechar 0
AnchorPoint: "Anchor-0" 342 0 basechar 0
LayerCount: 2
Fore
SplineSet
252 0 m 1xd8
 56 0 l 1
 56 500 l 1
 252 500 l 1xb8
 252 417 l 1
 267.722543353 470.720930233 336.50867052 516 422 516 c 0
 558.185365854 516 620 414.857142857 620 280 c 2
 620 0 l 1
 424 0 l 1
 424 260 l 2
 424 318.727272727 394.722222222 362 339 362 c 0
 281.315217391 362 252 318.727272727 252 260 c 2
 252 0 l 1xd8
EndSplineSet
EndChar

StartChar: o
Encoding: 111 111 79
GlifName: o
Width: 660
GlyphClass: 2
Flags: W
HStem: -16 159<267.128 392.872> 357 159<267.128 392.872>
VStem: 36 196<180.088 321.06> 428 196<180.088 321.06>
AnchorPoint: "Anchor-4" 436 500 basechar 0
AnchorPoint: "Anchor-3" 330 250 basechar 0
AnchorPoint: "Anchor-2" 330 540 basechar 0
AnchorPoint: "Anchor-1" 582 10 basechar 0
AnchorPoint: "Anchor-0" 330 0 basechar 0
LayerCount: 2
Fore
SplineSet
36 251 m 4
 36 410 154.02919708 516 330 516 c 4
 505.97080292 516 624 410 624 251 c 4
 624 91 505.97080292 -16 330 -16 c 4
 154.02919708 -16 36 91 36 251 c 4
232 251 m 4
 232 186.024390244 270.948717949 143 330 143 c 4
 389.051282051 143 428 186.024390244 428 251 c 4
 428 314.950413223 389.051282051 357 330 357 c 4
 270.948717949 357 232 314.950413223 232 251 c 4
EndSplineSet
EndChar

StartChar: p
Encoding: 112 112 80
GlifName: p
Width: 674
GlyphClass: 2
Flags: W
HStem: -200 21G<56 252> -16 153<322.016 480.408> 363 153<327.882 488.122> 480 20G<56 252>
VStem: 56 196<-200 81 173.996 326.004 419 500> 442 196<179.479 322.411>
LayerCount: 2
Fore
SplineSet
252 -200 m 1xec
 56 -200 l 1
 56 500 l 1
 252 500 l 1xdc
 252 419 l 1
 281 472.05982906 335 516 422 516 c 0
 554.244897959 516 638 410 638 250 c 0
 638 74 538.816326531 -16 422 -16 c 0
 325 -16 282 22.9658119658 252 81 c 1
 252 -200 l 1xec
252 250 m 0
 252 187.528455285 284.452380952 137 346 137 c 0
 402.930232558 137 442 187.528455285 442 250 c 0
 442 312.471544715 407.395348837 363 346 363 c 0xec
 284.452380952 363 252 312.471544715 252 250 c 0
EndSplineSet
EndChar

StartChar: q
Encoding: 113 113 81
GlifName: q
Width: 674
GlyphClass: 2
Flags: W
HStem: -200 21G<422 618> -16 153<193.592 351.984> 363 153<185.878 346.118> 480 20G<422 618>
VStem: 36 196<179.479 322.411> 422 196<-200 81 173.996 326.004 419 500>
LayerCount: 2
Fore
SplineSet
422 500 m 1xdc
 618 500 l 1xdc
 618 -200 l 1
 422 -200 l 1
 422 81 l 1
 392 22.9658119658 349 -16 252 -16 c 0
 135.183673469 -16 36 74 36 250 c 0
 36 410 119.755102041 516 252 516 c 0xec
 339 516 393 472.05982906 422 419 c 1
 422 500 l 1xdc
422 250 m 0
 422 312.471544715 389.547619048 363 328 363 c 0xec
 266.604651163 363 232 312.471544715 232 250 c 0
 232 187.528455285 271.069767442 137 328 137 c 0
 389.547619048 137 422 187.528455285 422 250 c 0
EndSplineSet
EndChar

StartChar: r
Encoding: 114 114 82
GlifName: r
Width: 563
GlyphClass: 2
Flags: HW
HStem: 0 21G<56 252> 362.099 153.901<291.415 441.02> 480 20G<56 252>
VStem: 56 196<0 349.064 416 500> 361 181<252 350.187>
AnchorPoint: "Anchor-2" 312 540 basechar 0
AnchorPoint: "Anchor-0" 156 0 basechar 0
LayerCount: 2
Fore
SplineSet
252 292 m 2xd8
 252 0 l 1
 56 0 l 1
 56 500 l 1
 252 500 l 1xb8
 252 416 l 1
 273.652465887 474.918274523 329.934429791 516 389 516 c 0
 493.040835434 516 541.067290451 454.475913834 542 320 c 1
 542 252 l 1
 361 252 l 1
 361 299 l 2
 361 338.238329967 341.007168897 362.098632812 308.12890625 362.098632812 c 0
 274.701252691 362.098632812 252 333.747344981 252 292 c 2xd8
EndSplineSet
EndChar

StartChar: s
Encoding: 115 115 83
GlifName: s
Width: 614
GlyphClass: 2
Flags: W
HStem: -16 139<240.554 383.109> 383 133<239.902 373.078>
AnchorPoint: "Anchor-2" 294 516 basechar 0
AnchorPoint: "Anchor-0" 312 0 basechar 0
LayerCount: 2
Fore
SplineSet
571 369 m 1
 388 339 l 1
 381.973583868 365.307910421 349.404055326 383 307 383 c 0
 264.906523121 383 234 369.45193507 234 351 c 0
 234 331.483050831 254.933611729 323.456764477 338 319 c 0
 518.260763136 308.84000004 578 263.793229251 578 160 c 0
 578 52.8905437918 472.707066591 -16 309 -16 c 0
 159.583817916 -16 59.2476400085 41.7024905917 36 141 c 1
 224 167 l 1
 232.078086981 138.513953223 264.163762965 123 315 123 c 0
 358.073763257 123 387 134.650845355 387 152 c 0
 387 170.126934271 368.119917697 176.21587023 283 181 c 0
 109.841072549 190.288540098 53 245.354629187 53 341 c 0
 53 446.548519938 155.391324891 516 311 516 c 0
 446.208656444 516 553.04779482 455.594794841 571 369 c 1
EndSplineSet
EndChar

StartChar: t
Encoding: 116 116 84
GlifName: t
Width: 469
GlyphClass: 2
Flags: W
HStem: 0 144<315.13 443> 356 144<26 117 313 443>
VStem: 117 196<147.726 356 500 602>
AnchorPoint: "Anchor-4" 364 500 basechar 0
AnchorPoint: "Anchor-3" 232 252 basechar 0
AnchorPoint: "Anchor-2" 218 652 basechar 0
AnchorPoint: "Anchor-0" 353 0 basechar 0
LayerCount: 2
Fore
SplineSet
117 356 m 1
 26 356 l 1
 26 500 l 1
 117 500 l 1
 117 602 l 1
 313 632 l 1
 313 500 l 1
 443 500 l 1
 443 356 l 1
 313 356 l 1
 313 181 l 2
 313 155.80859375 325.799804688 144 353 144 c 2
 443 144 l 1
 443 0 l 1
 303 0 l 2
 169.3125 0 117 49.3876953125 117 176 c 2
 117 356 l 1
EndSplineSet
EndChar

StartChar: u
Encoding: 117 117 85
GlifName: u
Width: 650
GlyphClass: 2
Flags: W
HStem: -16 154<166.627 331.556> 0 21G<398 594> 480 20G<40 236 398 594>
VStem: 40 196<166.15 500> 398 196<0 73 162.62 500>
AnchorPoint: "Anchor-4" 398 500 basechar 0
AnchorPoint: "Anchor-2" 326 540 basechar 0
AnchorPoint: "Anchor-1" 533 -5 basechar 0
AnchorPoint: "Anchor-0" 326 0 basechar 0
LayerCount: 2
Fore
SplineSet
398 500 m 5xb8
 594 500 l 5
 594 0 l 5
 398 0 l 5x78
 398 73 l 5
 382.739884393 24.7054263566 315.976878613 -16 233 -16 c 4
 100.253658537 -16 40 76.5714285714 40 200 c 6
 40 500 l 5
 236 500 l 5
 236 230 l 6
 236 177.03030303 263.555555556 138 316 138 c 4
 370.369565217 138 398 177.03030303 398 230 c 6
 398 500 l 5xb8
EndSplineSet
EndChar

StartChar: v
Encoding: 118 118 86
GlifName: v
Width: 666
GlyphClass: 2
Flags: W
HStem: 0 21G<190.88 475.12> 480 20G<20 235.628 430.372 646>
LayerCount: 2
Fore
SplineSet
198 0 m 5
 20 500 l 1
 230 500 l 1
 333 134 l 1
 436 500 l 1
 646 500 l 1
 468 0 l 5
 198 0 l 5
EndSplineSet
EndChar

StartChar: w
Encoding: 119 119 87
GlifName: w
Width: 1020
GlyphClass: 2
Flags: W
HStem: 0 21G<183.2 440.229 579.771 846.4> 480 20G<20 230.597 380.104 639.896 789.403 1000>
AnchorPoint: "Anchor-2" 510 540 basechar 0
AnchorPoint: "Anchor-0" 510 0 basechar 0
LayerCount: 2
Fore
SplineSet
190 0 m 1
 20 500 l 1
 226 500 l 1
 303 165 l 1
 385 500 l 1
 635 500 l 1
 717 165 l 1
 794 500 l 1
 1000 500 l 1
 840 0 l 1
 584 0 l 1
 510 350 l 1
 436 0 l 1
 190 0 l 1
EndSplineSet
EndChar

StartChar: x
Encoding: 120 120 88
GlifName: x
Width: 716
GlyphClass: 2
Flags: W
HStem: 0 21G<36 273.734 442.266 680> 480 20G<36 273.674 442.326 680>
LayerCount: 2
Fore
SplineSet
263 0 m 1
 36 0 l 1
 180 250 l 1
 36 500 l 1
 263 500 l 1
 358 322 l 1
 453 500 l 5
 680 500 l 1
 537 250 l 1
 680 0 l 1
 453 0 l 5
 358 177 l 1
 263 0 l 1
EndSplineSet
EndChar

StartChar: y
Encoding: 121 121 89
GlifName: y
Width: 666
GlyphClass: 2
Flags: W
HStem: -200 158<41 230.578> 480 20G<20 245.738 420.262 646>
AnchorPoint: "Anchor-2" 333 540 basechar 0
AnchorPoint: "Anchor-0" 553 0 basechar 0
LayerCount: 2
Fore
SplineSet
235 20 m 1
 20 500 l 1
 239 500 l 1
 333 221 l 1
 427 500 l 1
 646 500 l 1
 431 20 l 1
 431 -31 l 2
 431 -150.82010582 360.855072464 -200 255 -200 c 2
 41 -200 l 1
 41 -42 l 1
 183 -42 l 2
 218.533333333 -42 235 -28 235 3 c 2
 235 20 l 1
EndSplineSet
EndChar

StartChar: z
Encoding: 122 122 90
GlifName: z
Width: 579
GlyphClass: 2
Flags: W
HStem: 0 154<288 543> 346 154<46 281>
AnchorPoint: "Anchor-3" 284 250 basechar 0
AnchorPoint: "Anchor-2" 284 516 basechar 0
AnchorPoint: "Anchor-0" 297 0 basechar 0
LayerCount: 2
Fore
SplineSet
543 0 m 1
 36 0 l 1
 36 140 l 1
 281 346 l 1
 46 346 l 1
 46 500 l 1
 533 500 l 1
 533 360 l 1
 288 154 l 1
 543 154 l 1
 543 0 l 1
EndSplineSet
EndChar

StartChar: braceleft
Encoding: 123 123 91
GlifName: braceleft
Width: 426
GlyphClass: 2
Flags: W
HStem: -100 154<311.753 398> 646 154<311.753 398>
VStem: 123 174<65.1245 236.072 463.928 634.875>
LayerCount: 2
Fore
SplineSet
297 571 m 2
 297 513 l 2
 297 398 216.097560976 350 173 350 c 1
 216.097560976 350 297 302 297 187 c 2
 297 129 l 2
 297 79.5882352941 312.464788732 54 358 54 c 6
 398 54 l 5
 398 -100 l 1
 337 -100 l 2
 228.896907216 -100 123 -33 123 87 c 2
 123 181 l 2
 123 235 79.7647058824 262 48 262 c 1
 48 438 l 1
 79.7647058824 438 123 465 123 519 c 2
 123 613 l 2
 123 733 228.896907216 800 337 800 c 2
 398 800 l 1
 398 646 l 1
 358 646 l 2
 312.464788732 646 297 620.411764706 297 571 c 2
EndSplineSet
EndChar

StartChar: bar
Encoding: 124 124 92
GlifName: bar
Width: 316
GlyphClass: 2
Flags: W
HStem: 780 20G<60 256>
VStem: 60 196<-100 800>
LayerCount: 2
Fore
SplineSet
60 800 m 5
 256 800 l 5
 256 -100 l 5
 60 -100 l 5
 60 800 l 5
EndSplineSet
EndChar

StartChar: braceright
Encoding: 125 125 93
GlifName: braceright
Width: 426
GlyphClass: 2
Flags: W
HStem: -100 154<28 114.247> 646 154<28 114.247>
VStem: 129 174<65.1245 236.072 463.928 634.875>
LayerCount: 2
Fore
SplineSet
303 613 m 2
 303 519 l 2
 303 465 346.235294118 438 378 438 c 1
 378 262 l 1
 346.235294118 262 303 235 303 181 c 2
 303 87 l 2
 303 -33 197.103092784 -100 89 -100 c 2
 28 -100 l 1
 28 54 l 1
 68 54 l 2
 113.535211268 54 129 79.5882352941 129 129 c 2
 129 187 l 2
 129 302 203.37804878 350 243 350 c 1
 203.37804878 350 129 398 129 513 c 2
 129 571 l 2
 129 620.411764706 113.535211268 646 68 646 c 6
 28 646 l 5
 28 800 l 1
 89 800 l 2
 197.103092784 800 303 733 303 613 c 2
EndSplineSet
EndChar

StartChar: asciitilde
Encoding: 126 126 94
GlifName: asciitilde
Width: 663
GlyphClass: 2
Flags: W
HStem: 222 144<364.626 455.768> 302 144<204.466 296.208>
LayerCount: 2
Fore
SplineSet
48 292 m 1x40
 83 362 160 446 249 446 c 0x40
 329 446 362 366 415 366 c 0
 461 366 486 438 486 438 c 1
 615 384 l 1
 579 312 503 222 415 222 c 0x80
 325 222 302 302 249 302 c 0
 203 302 177 238 177 238 c 1
 48 292 l 1x40
EndSplineSet
EndChar

StartChar: cent
Encoding: 162 162 96
GlifName: cent
Width: 637
GlyphClass: 2
Flags: W
HStem: 0 21G<268 384> 94 144<251.235 447.915> 482 144<252.712 439.671> 680 20G<268 384>
VStem: 36 172<282.144 437.091> 268 116<0 700>
LayerCount: 2
Fore
SplineSet
268 0 m 1
 268 700 l 1
 384 700 l 1
 384 0 l 1
 268 0 l 1
36 361 m 0
 36 516.701259551 153.960150069 626 322 626 c 0
 465.259743036 626 565.545254236 560.09809264 602 442 c 1
 448 405 l 5
 434.026781017 459.889430729 398.420149984 482 324 482 c 0
 251.155760357 482 208 436.984077559 208 361 c 0
 208 280.778437183 248.343891977 238 324 238 c 0
 401.247046312 238 434.429197404 258.069849451 448 313 c 5
 603 287 l 1
 581.941692347 164.737718616 478.950506175 94 322 94 c 0
 153.504808037 94 36 203.698544566 36 361 c 0
EndSplineSet
EndChar

StartChar: sterling
Encoding: 163 163 97
GlifName: sterling
Width: 650
GlyphClass: 2
Flags: W
HStem: 0 144<259 606> 251 144<40 112 308 420> 572 144<327.181 414.828>
VStem: 112 196<158.824 251 395 550.352>
LayerCount: 2
Fore
SplineSet
259 144 m 1
 606 144 l 1
 606 0 l 1
 40 0 l 1
 40 102 l 1
 70 111 112 141 112 244 c 2
 112 251 l 1
 40 251 l 1
 40 395 l 1
 112 395 l 1
 112 472 l 2
 112 607 205 716 372 716 c 0
 486 716 576 635 610 538 c 1
 557 525 474 505 435 495 c 1
 428 549 405 572 371 572 c 0
 325 572 308 529 308 472 c 2
 308 395 l 1
 420 395 l 1
 420 251 l 1
 308 251 l 1
 308 244 l 2
 308 184 288 144 259 144 c 1
EndSplineSet
EndChar

StartChar: currency
Encoding: 164 164 98
GlifName: currency
Width: 750
GlyphClass: 2
Flags: W
HStem: -6 145<293.665 456.335> 459 146<293.665 456.335>
VStem: 69 146<217.665 380.335> 535 145<217.665 380.335>
LayerCount: 2
Fore
SplineSet
680 325 m 1
 680 274 l 1
 675 225 660 180 636 140 c 1
 710 66 l 1
 608 -36 l 1
 534 38 l 1
 494 14 449 -1 400 -6 c 1
 349 -6 l 1
 301 -1 256 14 216 38 c 1
 142 -36 l 1
 40 66 l 1
 114 140 l 1
 89 179 74 225 69 274 c 1
 69 325 l 1
 74 374 89 419 114 458 c 1
 40 532 l 1
 142 634 l 1
 216 560 l 1
 255 585 300 600 349 605 c 1
 400 605 l 1
 449 600 495 585 534 560 c 1
 608 634 l 1
 710 532 l 1
 636 458 l 1
 660 418 675 373 680 325 c 1
362 139 m 1
 388 139 l 1
 468 145 529 206 535 286 c 1
 535 312 l 1
 529 392 468 453 388 459 c 1
 362 459 l 1
 282 453 221 392 215 312 c 1
 215 286 l 1
 221 206 282 145 362 139 c 1
EndSplineSet
EndChar

StartChar: yen
Encoding: 165 165 99
GlifName: yen
Width: 706
GlyphClass: 2
Flags: W
HStem: 0 21G<254 450> 117 108<128 254 450 576> 279 108<128 223 482 576> 680 20G<40 258 447.808 666>
VStem: 254 196<0 117 225 279>
LayerCount: 2
Fore
SplineSet
458 700 m 1
 666 700 l 1
 482 387 l 1
 576 387 l 1
 576 279 l 1
 450 279 l 1
 450 225 l 1
 576 225 l 1
 576 117 l 1
 450 117 l 1
 450 0 l 1
 254 0 l 1
 254 117 l 1
 128 117 l 1
 128 225 l 1
 254 225 l 1
 254 279 l 1
 128 279 l 1
 128 387 l 1
 223 387 l 1
 40 700 l 1
 248 700 l 1
 352 492 l 1
 458 700 l 1
EndSplineSet
EndChar

StartChar: brokenbar
Encoding: 166 166 100
GlifName: brokenbar
Width: 316
GlyphClass: 2
Flags: W
HStem: 780 20G<60 256>
VStem: 60 196<-99 271 430 800>
LayerCount: 2
Fore
SplineSet
60 800 m 1
 256 800 l 1
 256 430 l 1
 60 430 l 1
 60 800 l 1
60 271 m 1
 256 271 l 1
 256 -99 l 1
 60 -99 l 1
 60 271 l 1
EndSplineSet
EndChar

StartChar: section
Encoding: 167 167 101
GlifName: section
Width: 574
GlyphClass: 2
Flags: W
HStem: -144 144<71 345.854> 556 144<228.146 503>
VStem: 48 172<257.025 332.743 495.297 547.613> 348 178<4.3747 64.8592 223.257 302.261>
LayerCount: 2
Fore
SplineSet
234 333 m 1
 225 323 220 308 220 294 c 0
 220 260 241 248 340 223 c 1
 349 233 354 248 354 262 c 0
 354 296 333 308 234 333 c 1
526 283 m 0
 526 234 506 192 467 161 c 1
 506 128 526 84 526 31 c 0
 526 -86 450 -144 299 -144 c 2
 71 -144 l 1
 71 0 l 1
 299 0 l 2
 330 0 348 12 348 32 c 0
 348 58 323 74 256 94 c 0
 110 137 48 191 48 273 c 0
 48 322 68 364 107 395 c 1
 68 428 48 472 48 525 c 0
 48 642 124 700 275 700 c 2
 503 700 l 1
 503 556 l 1
 275 556 l 2
 244 556 226 544 226 524 c 0
 226 498 251 482 318 462 c 0
 464 419 526 365 526 283 c 0
EndSplineSet
EndChar

StartChar: dieresis
Encoding: 168 168 102
GlifName: dieresis
Width: 480
GlyphClass: 4
Flags: W
HStem: 540 168<40 208 272 440>
VStem: 40 168<540 708> 272 168<540 708>
AnchorPoint: "Anchor-6" 242 708 basemark 0
LayerCount: 2
Fore
SplineSet
40 540 m 1
 40 708 l 1
 208 708 l 1
 208 540 l 1
 40 540 l 1
272 540 m 1
 272 708 l 1
 440 708 l 1
 440 540 l 1
 272 540 l 1
EndSplineSet
EndChar

StartChar: copyright
Encoding: 169 169 103
GlifName: copyright
Width: 924
GlyphClass: 2
Flags: W
HStem: -64 144<358.196 566.826> 136 136<408.43 510.443> 428 136<408.43 510.545> 620 144<358.196 566.826>
VStem: 48 144<245.685 453.937> 248 136<296.75 405.397> 732 144<245.685 453.937>
LayerCount: 2
Fore
SplineSet
463 -64 m 0
 233 -64 48 121 48 350 c 0
 48 578 233 764 463 764 c 0
 691 764 876 578 876 350 c 0
 876 121 691 -64 463 -64 c 0
463 80 m 0
 611 80 732 201 732 350 c 0
 732 498 611 620 463 620 c 0
 313 620 192 498 192 350 c 0
 192 201 313 80 463 80 c 0
666 411 m 1
 530 381 l 1
 530 381 511 428 460 428 c 0
 414 428 384 392 384 350 c 0
 384 308 414 272 460 272 c 0
 511 272 530 323 530 323 c 1
 667 293 l 1
 642 206 556 136 463 136 c 0
 349 136 248 237 248 350 c 0
 248 461 349 564 463 564 c 0
 554 564 639 495 666 411 c 1
EndSplineSet
EndChar

StartChar: guillemotleft
Encoding: 171 171 104
GlifName: guillemotleft
Width: 667
GlyphClass: 2
Flags: W
HStem: 480 20G<172.156 347 442.156 617>
LayerCount: 2
Fore
SplineSet
187 500 m 1
 347 500 l 1
 169 275 l 1
 349 50 l 1
 189 50 l 1
 20 275 l 1
 187 500 l 1
617 500 m 1
 439 275 l 1
 619 50 l 1
 459 50 l 1
 290 275 l 1
 457 500 l 1
 617 500 l 1
EndSplineSet
EndChar

StartChar: logicalnot
Encoding: 172 172 105
GlifName: logicalnot
Width: 576
GlyphClass: 2
Flags: W
HStem: 192 144<48 372>
VStem: 372 156<28 192>
LayerCount: 2
Fore
SplineSet
48 336 m 1
 528 336 l 1
 528 28 l 1
 372 28 l 1
 372 192 l 1
 48 192 l 1
 48 336 l 1
EndSplineSet
EndChar

StartChar: registered
Encoding: 174 174 106
GlifName: registered
Width: 760
GlyphClass: 2
Flags: W
HStem: 84 108<289.338 471.625> 351 84<346 401.266> 492 84<346 409.833> 640 108<289.338 471.625>
VStem: 48 108<324.857 507.32> 258 88<262 351 435 492> 427 88<262 340.831> 604 108<324.857 507.32>
LayerCount: 2
Fore
SplineSet
381 84 m 0
 198 84 48 234 48 416 c 0
 48 599 198 748 381 748 c 0
 562 748 712 599 712 416 c 0
 712 234 562 84 381 84 c 0
381 192 m 0
 503 192 604 293 604 416 c 0
 604 539 503 640 381 640 c 0
 257 640 156 539 156 416 c 0
 156 293 257 192 381 192 c 0
346 262 m 1
 258 262 l 1
 258 576 l 1
 385 576 l 2
 524 576 560 424 402 394 c 1
 494 382 515 359 515 262 c 1
 427 262 l 1
 427 312 423 351 370 351 c 2
 346 351 l 1
 346 262 l 1
346 492 m 1
 346 435 l 1
 384 435 l 2
 425 435 425 492 384 492 c 2
 346 492 l 1
EndSplineSet
EndChar

StartChar: macron
Encoding: 175 175 107
GlifName: macron
Width: 420
GlyphClass: 4
Flags: W
HStem: 575 124<40 380>
AnchorPoint: "Anchor-6" 210 700 basemark 0
LayerCount: 2
Fore
SplineSet
40 575 m 1
 40 699 l 1
 380 699 l 1
 380 575 l 1
 40 575 l 1
EndSplineSet
EndChar

StartChar: degree
Encoding: 176 176 108
GlifName: degree
Width: 488
GlyphClass: 2
Flags: W
HStem: 356 124<193.883 294.117> 624 124<193.883 294.305>
VStem: 48 124<501.883 602.117> 316 124<501.883 602.719>
LayerCount: 2
Fore
SplineSet
244 356 m 0
 135 356 48 443 48 552 c 0
 48 661 135 748 244 748 c 0
 353 748 440 661 440 552 c 0
 440 443 353 356 244 356 c 0
244 480 m 0
 284 480 316 512 316 552 c 0
 316 592 285 624 244 624 c 0
 204 624 172 592 172 552 c 0
 172 512 204 480 244 480 c 0
EndSplineSet
EndChar

StartChar: plusminus
Encoding: 177 177 109
GlifName: plusminus
Width: 624
GlyphClass: 2
Flags: W
HStem: -69 144<48 576> 295 144<48 234 390 576>
VStem: 234 156<143 295 439 591>
LayerCount: 2
Fore
SplineSet
390 591 m 1
 390 439 l 1
 576 439 l 1
 576 295 l 1
 390 295 l 1
 390 143 l 1
 234 143 l 1
 234 295 l 1
 48 295 l 1
 48 439 l 1
 234 439 l 1
 234 591 l 1
 390 591 l 1
576 -69 m 1
 48 -69 l 1
 48 75 l 1
 576 75 l 1
 576 -69 l 1
EndSplineSet
EndChar

StartChar: acute
Encoding: 180 180 110
GlifName: acute
Width: 312
GlyphClass: 4
Flags: W
HStem: 536 164<108 146>
VStem: 40 232
AnchorPoint: "Anchor-6" 130 700 basemark 0
LayerCount: 2
Fore
SplineSet
108 700 m 1
 272 700 l 1
 146 536 l 1
 40 536 l 1
 108 700 l 1
EndSplineSet
EndChar

StartChar: uni00B5
Encoding: 181 181 111
GlifName: uni00B_5
Width: 714
GlyphClass: 2
Flags: W
HStem: -200 21G<60 256> -16 144<300.084 414.174> 0 21G<458 654> 480 20G<60 256 458 654>
VStem: 60 196<-200 -1 177.194 500> 458 196<0 96 174.749 500>
LayerCount: 2
Fore
SplineSet
458 260 m 2xdc
 458 500 l 1
 654 500 l 1
 654 0 l 1
 458 0 l 1xbc
 458 96 l 1
 458 58 432 -16 345 -16 c 0
 315 -16 285 -11 256 -1 c 1
 256 -200 l 1
 60 -200 l 1
 60 500 l 1
 256 500 l 1
 256 260 l 2
 256 184 299 128 359 128 c 0
 417 128 458 184 458 260 c 2xdc
EndSplineSet
EndChar

StartChar: paragraph
Encoding: 182 182 112
GlifName: paragraph
Width: 744
GlyphClass: 2
Flags: W
HStem: 556 144<392 440 608 684>
VStem: 40 352<432.067 553.479> 224 168<-140 332> 440 168<-140 556>
LayerCount: 2
Fore
SplineSet
684 700 m 1xb0
 684 556 l 1
 608 556 l 1
 608 -140 l 1
 440 -140 l 1
 440 556 l 1
 392 556 l 1
 392 -140 l 1
 224 -140 l 1
 224 332 l 1xb0
 123 332 40 414 40 516 c 0xd0
 40 619 123 700 224 700 c 2
 684 700 l 1xb0
EndSplineSet
EndChar

StartChar: periodcentered
Encoding: 183 183 113
GlifName: periodcentered
Width: 264
GlyphClass: 2
Flags: W
HStem: 246 168<48 216>
VStem: 48 168<246 414>
LayerCount: 2
Fore
SplineSet
48 246 m 1
 48 414 l 1
 216 414 l 1
 216 246 l 1
 48 246 l 1
EndSplineSet
EndChar

StartChar: cedilla
Encoding: 184 184 114
GlifName: cedilla
Width: 328
GlyphClass: 4
Flags: W
HStem: -208 94<40 158.02> -47 116<98 161.556>
VStem: 164 124<-110.963 -50.8223>
AnchorPoint: "Anchor-5" 134 -216 basemark 0
LayerCount: 2
Fore
SplineSet
56 17 m 1
 98 69 l 1
 222 69 l 1
 186 29 l 1
 186 29 288 29 288 -80 c 0
 288 -219 130 -232 40 -208 c 1
 40 -114 l 1
 75 -124 164 -129 164 -80 c 0
 164 -39 92 -33 55 -47 c 1
 56 17 l 1
EndSplineSet
EndChar

StartChar: guillemotright
Encoding: 187 187 115
GlifName: guillemotright
Width: 667
GlyphClass: 2
Flags: W
HStem: 480 20G<50 224.844 320 494.844>
LayerCount: 2
Fore
SplineSet
50 500 m 1
 210 500 l 1
 377 275 l 1
 208 50 l 1
 48 50 l 1
 228 275 l 1
 50 500 l 1
320 500 m 1
 480 500 l 1
 647 275 l 1
 478 50 l 1
 318 50 l 1
 498 275 l 1
 320 500 l 1
EndSplineSet
EndChar

StartChar: AE
Encoding: 198 198 123
GlifName: A_E_
Width: 1065
GlyphClass: 2
Flags: HW
HStem: 0 144<1028 1389> 177 144<726 832> 290 144<1028 1357> 556 144<788 832 1028 1373>
VStem: 832 196<144 177 434 556>
AnchorPoint: "Anchor-2" 545 716 basechar 0
AnchorPoint: "Anchor-0" 545 0 basechar 0
LayerCount: 2
Fore
SplineSet
215 0 m 1
 16 0 l 1
 312 700 l 1
 511 700 l 1
 215 0 l 1
1029 0 m 5
 492 0 l 5
 492 132 l 5
 202 132 l 5
 202 300 l 5
 492 300 l 5
 492 532 l 5
 312 532 l 5
 312 700 l 5
 1023 700 l 5
 1023 536 l 5
 688 536 l 5
 688 444 l 5
 957 444 l 5
 957 280 l 5
 688 280 l 5
 688 164 l 5
 1029 164 l 5
 1029 0 l 5
EndSplineSet
EndChar

StartChar: Eth
Encoding: 208 208 133
GlifName: E_th
Width: 848
GlyphClass: 2
Flags: HW
HStem: 0 144<256 417.688> 288 124<-46 60 256 402> 556 144<256 417.688>
VStem: 60 196<144 288 412 556>
CounterMasks: 1 e0
LayerCount: 2
Fore
SplineSet
0 278 m 1
 0 422 l 1
 482 422 l 5
 482 278 l 5
 0 278 l 1
460 0 m 6
 112 0 l 5
 112 700 l 5
 460 700 l 6
 683 700 808 555 808 350 c 4
 808 145 683 0 460 0 c 6
308 536 m 5
 308 164 l 5
 440 164 l 6
 558 164 612 241 612 350 c 4
 612 459 558 536 440 536 c 6
 308 536 l 5
EndSplineSet
EndChar

StartChar: multiply
Encoding: 215 215 140
GlifName: multiply
Width: 598
GlyphClass: 2
Flags: W
LayerCount: 2
Fore
SplineSet
456 563 m 1
 558 461 l 1
 401 304 l 1
 558 147 l 1
 456 45 l 1
 299 202 l 1
 142 45 l 1
 40 147 l 1
 197 304 l 1
 40 461 l 1
 142 563 l 1
 299 406 l 1
 456 563 l 1
EndSplineSet
EndChar

StartChar: Oslash
Encoding: 216 216 141
GlifName: O_slash
Width: 827
GlyphClass: 2
Flags: HW
HStem: -16 172<333.153 470.875> 542 172<316.761 461.523>
VStem: 40 196<245.235 450.085> 551 196<244.478 452.4>
AnchorPoint: "Anchor-0" 414 0 basechar 0
AnchorPoint: "Anchor-1" 470 10 basechar 0
AnchorPoint: "Anchor-2" 414 716 basechar 0
AnchorPoint: "Anchor-3" 414 350 basechar 0
AnchorPoint: "Anchor-4" 792 716 basechar 0
LayerCount: 2
Fore
SplineSet
683 737 m 1
 801 619 l 5
 145 -37 l 5
 27 81 l 1
 683 737 l 1
226 350 m 0
 226 233.63124342 301.121581477 156 414 156 c 0
 526.018419727 156 601 233.87295075 601 350 c 0
 601 465.030904146 526.172670321 542 414 542 c 0
 300.966646609 542 226 465.269976061 226 350 c 0
40 350 m 0
 40 557.97175218 200.314738145 714 414 714 c 0
 627.375140128 714 787 558.226678302 787 350 c 0
 787 140.240672596 627.771117819 -16 414 -16 c 0
 199.917504121 -16 40 140.496808846 40 350 c 0
EndSplineSet
EndChar

StartChar: Thorn
Encoding: 222 222 147
GlifName: T_horn
Width: 736
GlyphClass: 2
Flags: HW
HStem: 0 21G<60 256> 200 142<256 384.627> 475 142<256 384.627> 696 20G<60 256>
VStem: 60 196<0 200 342 475 617 716>
LayerCount: 2
Fore
SplineSet
256 277 m 1
 406 277 l 2
 475.019413499 277 505 316.578947368 505 357 c 0
 505 397.5 475.019413499 438 406 438 c 2
 256 438 l 1
 256 277 l 1
256 602 m 1
 446 602 l 2
 619.203956632 602 701 479.5 701 357 c 0
 701 234.489539749 619.203956632 113 446 113 c 2
 256 113 l 1
 256 0 l 1
 60 0 l 1
 60 700 l 1
 256 700 l 1
 256 602 l 1
EndSplineSet
EndChar

StartChar: germandbls
Encoding: 223 223 148
GlifName: germandbls
Width: 667
GlyphClass: 2
Flags: W
HStem: -16 144<300.212 402.714> 0 21G<60 256> 300 120<323 387.439> 571 144<283.576 391.216>
VStem: 60 196<0 539.791> 412 197<444.796 548.395> 431 196<153.057 264.339>
LayerCount: 2
Fore
SplineSet
448 357 m 1x7c
 542 337 627 290 627 186 c 0
 627 65 516 -16 377 -16 c 0
 341 -16 304 -9 300 -9 c 1
 300 135 l 1
 304 135 323 124 362 128 c 0
 402 132 433 167 431 219 c 0xba
 429 280 380 300 323 300 c 1
 323 420 l 1
 391 420 412 464 412 501 c 0
 412 537 383 571 338 571 c 0
 292 571 256 536 256 480 c 2
 256 0 l 1
 60 0 l 1
 60 470 l 2
 60 613 188 715 351 715 c 0
 470 715 609 645 609 524 c 0
 609 429 535 379 448 357 c 1x7c
EndSplineSet
EndChar

StartChar: ae
Encoding: 230 230 155
GlifName: ae
Width: 981
GlyphClass: 2
Flags: HW
HStem: -16 144<588.769 700.208> -16 121<172.5 341.718> 205 96<563 718> 372 144<243.485 348.919 587.99 691.949>
VStem: 36 194<115.876 193.083>
AnchorPoint: "Anchor-2" 480 540 basechar 0
AnchorPoint: "Anchor-0" 472 0 basechar 0
LayerCount: 2
Fore
SplineSet
568 195 m 1
 580.846695218 148.756615928 614.445337745 125 667 125 c 0
 705.604555177 125 730.287596112 136.753829017 751 165 c 1
 953 141 l 1
 911.965633677 40.6453912934 812.024401905 -16 676 -16 c 0
 509.304105927 -16 398 90.8999866274 398 251 c 0
 398 401.198389738 518.43338737 516 676 516 c 0
 840.704572773 516 945 406.276557973 945 233 c 0
 945 223.696938457 944.550510257 215.156633344 943 195 c 1
 568 195 l 1
658 382 m 0
 611.19293196 382 580.681201514 362.458779377 569 325 c 1
 744 325 l 1
 732.428977412 362.762541979 703.404040748 382 658 382 c 0
222 -16 m 4
 110.658725846 -16 36 43.4058678771 36 132 c 0
 36 214.684579213 103.002357358 269.722229899 232 293 c 2
 365 317 l 1
 365 325 l 2
 365 356.873664674 335.90634857 382 299 382 c 0
 255.306425592 382 223.238117784 355.142792211 219 315 c 1
 34 343 l 1
 58.1061511657 448.323812868 153.714018383 516 296 516 c 0
 436.224998798 516 534 429.727940116 534 306 c 2
 534 285 l 1
 464 285 l 1
 464 205 l 2
 464 65.3428772506 374.927709074 -16 222 -16 c 4
283 113 m 0xb8
 329.853728152 113 368 157.87796688 368 213 c 1
 288 199 l 2
 250.811102443 192.491942927 230 175.986585818 230 153 c 0
 230 128.641418699 250.724879776 113 283 113 c 0xb8
EndSplineSet
EndChar

StartChar: eth
Encoding: 240 240 165
GlifName: eth
Width: 725
GlyphClass: 2
Flags: W
HStem: -16 148<280.699 428.414> 336 147<279.61 387.16> 691 20G<617.511 689>
VStem: 40 196<173.686 293.04> 474 215<193.718 384.025> 493 196<340 475.214>
LayerCount: 2
Fore
SplineSet
521 664 m 1xf4
 689 711 l 1
 689 611 l 1xf4
 610 589 l 1
 656 530 689 445 689 321 c 0xf8
 689 68 485 -16 354 -16 c 0
 177 -16 40 99 40 257 c 0
 40 381 148 483 295 483 c 0
 410 483 493 386 493 340 c 1
 493 430 474 496 444 542 c 1
 267 493 l 1
 267 593 l 1
 355 618 l 1
 341 624 326 628 311 630 c 0
 228 643 132 616 132 616 c 1
 132 680 l 1
 132 680 235 722 344 715 c 0
 393 712 460 700 521 664 c 1xf4
354 132 m 0
 420 132 474 172 474 233 c 0xf8
 474 295 418 336 350 336 c 0
 288 336 236 295 236 233 c 0
 236 172 290 132 354 132 c 0
EndSplineSet
EndChar

StartChar: divide
Encoding: 247 247 172
GlifName: divide
Width: 624
GlyphClass: 2
Flags: W
HStem: 28 156<234 390> 232 144<48 576> 424 156<234 390>
VStem: 234 156<28 184 424 580>
CounterMasks: 1 e0
LayerCount: 2
Fore
SplineSet
234 424 m 1
 234 580 l 1
 390 580 l 1
 390 424 l 1
 234 424 l 1
48 232 m 1
 48 376 l 1
 576 376 l 1
 576 232 l 1
 48 232 l 1
234 28 m 1
 234 184 l 1
 390 184 l 1
 390 28 l 1
 234 28 l 1
EndSplineSet
EndChar

StartChar: oslash
Encoding: 248 248 173
GlifName: oslash
Width: 660
GlyphClass: 2
Flags: HW
HStem: -16 144<291.412 355.757> 372 144<264.243 335.419>
VStem: 36 196<219.343 336.687> 388 196<164.348 270.113>
AnchorPoint: "Anchor-0" 330 0 basechar 0
AnchorPoint: "Anchor-1" 582 10 basechar 0
AnchorPoint: "Anchor-2" 330 540 basechar 0
AnchorPoint: "Anchor-3" 330 250 basechar 0
AnchorPoint: "Anchor-4" 620 500 basechar 0
LayerCount: 2
Fore
SplineSet
38 47 m 1
 533 542 l 1
 622 453 l 1
 127 -42 l 1
 38 47 l 1
36 251 m 0
 36 410 154.02919708 516 330 516 c 0
 505.97080292 516 624 410 624 251 c 0
 624 91 505.97080292 -16 330 -16 c 0
 154.02919708 -16 36 91 36 251 c 0
222 251 m 0
 222 177 264.923076923 128 330 128 c 0
 395.076923077 128 438 177 438 251 c 0
 438 324 395.076923077 372 330 372 c 0
 264.923076923 372 222 324 222 251 c 0
EndSplineSet
EndChar

StartChar: thorn
Encoding: 254 254 179
GlifName: thorn
Width: 655
GlyphClass: 2
Flags: W
HStem: -200 21G<56.9778 253> -16 143<308.838 483> 373 143<329.103 476> 680 20G<56 252.066>
VStem: 57 196<-200 101 163 337 399 700> 423 196<165.574 332.919>
LayerCount: 2
Fore
SplineSet
57 -200 m 1
 56 700 l 1
 252 700 l 1
 253 399 l 1
 283 469 326 516 423 516 c 0
 529 516 619 426 619 250 c 0
 619 90 543 -16 423 -16 c 0
 336 -16 282 37 253 101 c 1
 253 -200 l 1
 57 -200 l 1
253 250 m 0
 253 182 282 127 337 127 c 0
 392 127 423 182 423 250 c 0
 423 318 388 373 337 373 c 0
 282 373 253 318 253 250 c 0
EndSplineSet
EndChar

StartChar: dcaron
Encoding: 271 271 196
GlifName: dcaron
Width: 654
GlyphClass: 2
Flags: W
HStem: -16 143<179 325.897> 0 21G<402 598> 373 143<172 346.162> 680 20G<402 598>
VStem: 36 196<167.081 334.426> 402 196<0 101 163 337 399 700>
AnchorPoint: "Anchor-4" 544 500 basechar 0
AnchorPoint: "Anchor-3" 504 599 basechar 0
AnchorPoint: "Anchor-2" 231 764 basechar 0
AnchorPoint: "Anchor-0" 272 0 basechar 0
LayerCount: 2
Fore
SplineSet
133 600 m 1x3c
 35 764 l 1
 141 764 l 1
 231 669 l 1
 321 764 l 1
 427 764 l 1
 329 600 l 1
 133 600 l 1x3c
402 399 m 1
 402 700 l 1
 598 700 l 1
 598 0 l 1
 402 0 l 1x7c
 402 101 l 1
 372 31 329 -16 232 -16 c 0xbc
 126 -16 36 74 36 250 c 0
 36 410 112 516 232 516 c 0
 319 516 373 463 402 399 c 1
318 127 m 0xbc
 373 127 402 182 402 250 c 0
 402 318 373 373 318 373 c 0
 263 373 232 318 232 250 c 0
 232 182 267 127 318 127 c 0xbc
EndSplineSet
EndChar

StartChar: dcroat
Encoding: 273 273 198
GlifName: dcroat
Width: 694
GlyphClass: 2
Flags: HW
HStem: -16 143<179 325.897> 0 21G<402 598> 373 143<172 346.162> 537 124<280 402 598 728> 680 20G<402 598>
VStem: 36 196<167.081 334.426> 402 196<0 101 163 337 399 537 661 700>
LayerCount: 2
Fore
SplineSet
284 533 m 5
 284 662 l 5
 704 662 l 5
 704 533 l 5
 284 533 l 5
618 700 m 1xbc
 618 0 l 1
 422 0 l 1x7c
 422 81 l 1
 392 22.9658119658 349 -16 252 -16 c 0
 135.183673469 -16 36 72.3082706767 36 245 c 0
 36 401.992481203 119.755102041 506 252 506 c 0
 339 506 393 462.05982906 422 409 c 1
 422 700 l 1
 618 700 l 1xbc
422 245 m 0
 422 304.707317073 389.547619048 353 328 353 c 0
 266.604651163 353 232 304.707317073 232 245 c 0
 232 185.292682927 271.069767442 137 328 137 c 0xbc
 389.547619048 137 422 185.292682927 422 245 c 0
EndSplineSet
EndChar

StartChar: Hbar
Encoding: 294 294 219
GlifName: H_bar
Width: 784
GlyphClass: 2
Flags: HW
HStem: 0 21G<60 256 528 724> 292 144<256 528> 478 124<8 60 256 528 724 776> 680 20G<60 256 528 724>
VStem: 60 196<0 292 436 478 602 700> 528 196<0 292 436 478 602 700>
LayerCount: 2
Fore
SplineSet
-26 493 m 1
 -26 622 l 1
 798 622 l 1
 798 493 l 1
 -26 493 l 1
256 0 m 1
 60 0 l 1
 60 700 l 1
 256 700 l 1
 256 406 l 1
 528 406 l 1
 528 700 l 1
 724 700 l 1
 724 0 l 1
 528 0 l 1
 528 232 l 1
 256 232 l 1
 256 0 l 1
EndSplineSet
EndChar

StartChar: hbar
Encoding: 295 295 220
GlifName: hbar
Width: 696
GlyphClass: 2
Flags: HW
HStem: 0 21G<56 252 434 630> 372 144<338.938 495.5> 522 124<-65 56 252 383> 680 20G<56 252>
VStem: 56 196<0 332.269 387 522 646 700> 434 196<0 330.991>
LayerCount: 2
Fore
SplineSet
-10 533 m 1
 -10 662 l 1
 410 662 l 1
 410 533 l 1
 -10 533 l 1
272 0 m 1
 76 0 l 1
 76 700 l 1
 272 700 l 1
 272 407 l 5
 287.722543353 460.720930233 356.50867052 506 442 506 c 4
 578.185365854 506 640 404.857142857 640 270 c 6
 640 0 l 1
 444 0 l 1
 444 250 l 6
 444 308.727272727 414.722222222 352 359 352 c 4
 301.315217391 352 272 308.727272727 272 250 c 6
 272 0 l 1
EndSplineSet
EndChar

StartChar: dotlessi
Encoding: 305 305 230
GlifName: dotlessi
Width: 316
GlyphClass: 2
Flags: W
HStem: 0 21G<60 256>
VStem: 60 196<0 499>
AnchorPoint: "Anchor-2" 158 540 basechar 0
AnchorPoint: "Anchor-1" 162 9 basechar 0
AnchorPoint: "Anchor-0" 158 0 basechar 0
LayerCount: 2
Fore
SplineSet
256 0 m 1
 60 0 l 1
 60 499 l 1
 256 499 l 1
 256 0 l 1
EndSplineSet
EndChar

StartChar: Lcaron
Encoding: 317 317 241
GlifName: L_caron
Width: 617
GlyphClass: 2
Flags: W
HStem: 0 144<256 581> 680 20G<60 256>
VStem: 60 196<144 700>
AnchorPoint: "Anchor-4" 787 700 basechar 0
AnchorPoint: "Anchor-3" 526 350 basechar 0
AnchorPoint: "Anchor-2" 159 916 basechar 0
AnchorPoint: "Anchor-0" 348 -16 basechar 0
LayerCount: 2
Fore
SplineSet
61 752 m 1
 -37 916 l 1
 69 916 l 1
 159 821 l 1
 249 916 l 1
 355 916 l 1
 257 752 l 1
 61 752 l 1
256 700 m 1
 256 144 l 1
 581 144 l 1
 581 0 l 1
 60 0 l 1
 60 700 l 1
 256 700 l 1
EndSplineSet
EndChar

StartChar: lcaron
Encoding: 318 318 242
GlifName: lcaron
Width: 308
GlyphClass: 2
Flags: W
HStem: 0 21G<56 252> 680 20G<56 252>
VStem: 56 196<0 700>
AnchorPoint: "Anchor-4" 233 716 basechar 0
AnchorPoint: "Anchor-3" 164 400 basechar 0
AnchorPoint: "Anchor-2" 154 916 basechar 0
AnchorPoint: "Anchor-0" 153 -16 basechar 0
LayerCount: 2
Fore
SplineSet
154 821 m 1
 244 916 l 1
 350 916 l 1
 252 752 l 1
 56 752 l 1
 -42 916 l 1
 64 916 l 1
 154 821 l 1
252 0 m 1
 56 0 l 1
 56 700 l 1
 252 700 l 1
 252 0 l 1
EndSplineSet
EndChar

StartChar: Lslash
Encoding: 321 321 244
GlifName: L_slash
Width: 617
GlyphClass: 2
Flags: W
HStem: 0 144<256 581> 680 20G<60 256>
VStem: 60 196<144 290 509 700>
AnchorPoint: "Anchor-4" 787 700 basechar 0
AnchorPoint: "Anchor-3" 526 350 basechar 0
AnchorPoint: "Anchor-2" 159 716 basechar 0
AnchorPoint: "Anchor-0" 348 -16 basechar 0
LayerCount: 2
Fore
SplineSet
256 373 m 1
 256 144 l 1
 581 144 l 1
 581 0 l 1
 60 0 l 1
 60 290 l 1
 -34 250 l 1
 -34 386 l 1
 60 426 l 1
 60 700 l 1
 256 700 l 1
 256 509 l 1
 403 571 l 1
 403 435 l 1
 256 373 l 1
EndSplineSet
EndChar

StartChar: lslash
Encoding: 322 322 245
GlifName: lslash
Width: 308
GlyphClass: 2
Flags: W
HStem: 0 21G<56 252> 680 20G<56 252>
VStem: 56 196<0 313 532 700>
AnchorPoint: "Anchor-4" 233 716 basechar 0
AnchorPoint: "Anchor-3" 164 400 basechar 0
AnchorPoint: "Anchor-2" 154 716 basechar 0
AnchorPoint: "Anchor-0" 153 -16 basechar 0
LayerCount: 2
Fore
SplineSet
252 532 m 1
 366 580 l 1
 366 444 l 1
 252 396 l 1
 252 0 l 1
 56 0 l 1
 56 313 l 1
 -71 259 l 1
 -71 395 l 1
 56 449 l 1
 56 700 l 1
 252 700 l 1
 252 532 l 1
EndSplineSet
EndChar

StartChar: Eng
Encoding: 330 330 252
GlifName: E_ng
Width: 790
GlyphClass: 2
Flags: W
HStem: -200 144<398 541.729> 0 21G<60 256> 680 20G<60 254.051 534 730>
VStem: 60 196<0 392> 534 196<308 700>
LayerCount: 2
Fore
SplineSet
256 0 m 1
 60 0 l 1
 60 700 l 1
 239 700 l 1
 534 308 l 1
 534 700 l 1
 730 700 l 1
 730 -11 l 2
 730 -145 628 -200 462 -200 c 2
 398 -200 l 1
 398 -56 l 1
 482 -56 l 2
 523 -56 551 -42 551 -11 c 2
 551 0 l 1
 256 392 l 1
 256 0 l 1
EndSplineSet
EndChar

StartChar: eng
Encoding: 331 331 253
GlifName: eng
Width: 686
GlyphClass: 2
Flags: W
HStem: -200 144<321 418.389> 0 21G<56 252> 372 144<338.938 495.5> 480 20G<56 252>
VStem: 56 196<0 332.269 387 500> 434 196<-42.489 330.991>
LayerCount: 2
Fore
SplineSet
252 0 m 1xec
 56 0 l 1
 56 500 l 1
 252 500 l 1xdc
 252 387 l 1
 268 457 338 516 425 516 c 0
 566 516 630 402 630 250 c 2
 630 30 l 2
 630 -142 511 -200 355 -200 c 2
 321 -200 l 1
 321 -56 l 1
 375 -56 l 2
 410 -56 434 -34 434 0 c 2
 434 220 l 2
 434 323 405 372 344 372 c 0
 283 372 252 316 252 240 c 2
 252 0 l 1xec
EndSplineSet
EndChar

StartChar: OE
Encoding: 338 338 260
GlifName: O_E_
Width: 1164
GlyphClass: 2
Flags: HW
HStem: -16 172<316.761 472.358> 0 144<747 1108> 290 144<747 1076> 542 172<316.761 472.358> 556 144<747 1092>
VStem: 40 196<249.02 450.085>
LayerCount: 2
Fore
SplineSet
236 350 m 0
 236 459.266331475 306.979059023 532 414 532 c 0
 520.174131802 532 591 459.039711222 591 350 c 0
 591 239.858881124 520.028129902 166 414 166 c 0
 307.125752675 166 236 239.629632935 236 350 c 0
40 350 m 0
 40 130.496808846 188.372657567 -16 387 -16 c 0
 587.589520742 -16 737 130.240672596 737 350 c 0
 737 568.226678302 587.217959906 714 387 714 c 0
 188.741214268 714 40 567.97175218 40 350 c 0
591 0 m 1
 1128 0 l 1
 1128 164 l 1
 787 164 l 1
 787 280 l 1
 1056 280 l 1
 1056 444 l 1
 787 444 l 1
 787 536 l 1
 1122 536 l 1
 1122 700 l 1
 591 700 l 1
 591 0 l 1
EndSplineSet
EndChar

StartChar: oe
Encoding: 339 339 261
GlifName: oe
Width: 1041
GlyphClass: 2
Flags: HW
HStem: -16 144<263.942 355.922 614.364 726.737> 205 96<589 744> 372 144<263.942 356.512 613.37 718.413>
VStem: 36 196<164.348 336.687>
LayerCount: 2
Fore
SplineSet
628 195 m 1
 640.846695218 148.756615928 674.445337745 125 727 125 c 0
 765.604555177 125 790.287596112 136.753829017 811 165 c 1
 1013 141 l 1
 973.002603223 40.6453912934 875.586962145 -16 743 -16 c 0
 567.661813031 -16 468 80.7625602882 468 251 c 0
 468 411.333622096 572.666377904 516 733 516 c 0
 899.254511472 516 1005 405.978039509 1005 233 c 0
 1005 223.696938457 1004.55051026 215.156633344 1003 195 c 1
 628 195 l 1
718 382 m 0
 671.19293196 382 640.681201514 362.458779377 629 325 c 1
 804 325 l 1
 792.428977412 362.762541979 763.404040748 382 718 382 c 0
36 251 m 0
 36 409.806619742 145.79994789 516 310 516 c 0
 474.20005211 516 584 409.806619742 584 251 c 0
 584 91.0948784763 474.097390627 -16 310 -16 c 0
 145.902609373 -16 36 91.0948784763 36 251 c 0
232 251 m 0
 232 185.973725085 270.994676466 143 330 143 c 0
 389.005323534 143 428 185.973725085 428 251 c 0
 428 314.911109265 389.08762932 357 330 357 c 0
 270.91237068 357 232 314.911109265 232 251 c 0
EndSplineSet
EndChar

StartChar: tcaron
Encoding: 357 357 279
GlifName: tcaron
Width: 468
GlyphClass: 2
Flags: W
HStem: 0 144<298.17 432> 356 144<0 91 287 417>
VStem: 91 196<152.78 356 500 652>
AnchorPoint: "Anchor-4" 338 500 basechar 0
AnchorPoint: "Anchor-3" 206 252 basechar 0
AnchorPoint: "Anchor-2" 192 852 basechar 0
AnchorPoint: "Anchor-0" 217 -42 basechar 0
LayerCount: 2
Fore
SplineSet
170 852 m 1
 334 852 l 1
 208 688 l 1
 102 688 l 1
 170 852 l 1
91 356 m 1
 0 356 l 1
 0 500 l 1
 91 500 l 1
 91 652 l 1
 287 652 l 1
 287 500 l 1
 417 500 l 1
 417 356 l 1
 287 356 l 1
 287 191 l 2
 287 159 303 144 337 144 c 2
 432 144 l 1
 432 0 l 1
 347 0 l 2
 163 0 91 55 91 196 c 2
 91 356 l 1
EndSplineSet
EndChar

StartChar: Tbar
Encoding: 358 358 280
GlifName: T_bar
Width: 634
GlyphClass: 2
Flags: W
HStem: 0 21G<219 415> 344 124<93 219 415 541> 556 144<20 219 415 614>
VStem: 219 196<0 344 468 556>
AnchorPoint: "Anchor-3" 317 406 basechar 0
AnchorPoint: "Anchor-2" 317 716 basechar 0
AnchorPoint: "Anchor-0" 317 -56 basechar 0
LayerCount: 2
Fore
SplineSet
614 700 m 1
 614 556 l 1
 415 556 l 1
 415 468 l 1
 541 468 l 1
 541 344 l 1
 415 344 l 1
 415 0 l 1
 219 0 l 1
 219 344 l 1
 93 344 l 1
 93 468 l 1
 219 468 l 1
 219 556 l 1
 20 556 l 1
 20 700 l 1
 614 700 l 1
EndSplineSet
EndChar

StartChar: tbar
Encoding: 359 359 281
GlifName: tbar
Width: 468
GlyphClass: 2
Flags: W
HStem: 0 144<298.17 432> 184 144<0 417> 356 144<0 91 287 417>
VStem: 91 196<152.78 356 500 652>
LayerCount: 2
Fore
SplineSet
0 184 m 1
 0 328 l 1
 417 328 l 1
 417 184 l 1
 0 184 l 1
91 356 m 1
 0 356 l 1
 0 500 l 1
 91 500 l 1
 91 652 l 1
 287 652 l 1
 287 500 l 1
 417 500 l 1
 417 356 l 1
 287 356 l 1
 287 191 l 2
 287 159 303 144 337 144 c 2
 432 144 l 1
 432 0 l 1
 347 0 l 2
 163 0 91 55 91 196 c 2
 91 356 l 1
EndSplineSet
EndChar

StartChar: uni0186
Encoding: 390 390 305
GlifName: uni0186
Width: 759
GlyphClass: 2
Flags: W
HStem: -16 172<289.224 440.21> 544 172<290.373 440.21>
VStem: 523 196<246.208 450.98>
LayerCount: 2
Fore
SplineSet
40 214 m 1
 230 258 l 1
 249 197 296 156 368 156 c 0
 455 156 523 228 523 352 c 0
 523 471 455 544 368 544 c 0
 299 544 252 504 231 444 c 1
 40 487 l 1
 89 628 211 716 368 716 c 0
 559 716 719 570 719 352 c 0
 719 131 559 -16 368 -16 c 0
 211 -16 89 73 40 214 c 1
EndSplineSet
EndChar

StartChar: florin
Encoding: 402 402 306
GlifName: florin
Width: 727
GlyphClass: 2
Flags: W
HStem: -200 144<20 177.792> 356 144<139 277 510 661> 572 144<527.352 706>
LayerCount: 2
Fore
SplineSet
519 716 m 2
 707 716 l 1
 706 572 l 1
 589 572 l 2
 537 572 524 557 513 515 c 2
 510 500 l 1
 661 500 l 1
 661 356 l 1
 478 356 l 1
 396 -17 l 2
 371 -138 314 -200 164 -200 c 2
 20 -200 l 1
 20 -56 l 1
 125 -56 l 2
 168 -56 190 -38 200 3 c 2
 277 356 l 1
 139 356 l 1
 139 500 l 1
 309 500 l 1
 318 543 l 2
 343 648 390 716 519 716 c 2
EndSplineSet
EndChar

StartChar: uni0237
Encoding: 567 567 322
GlifName: uni0237
Width: 318
GlyphClass: 2
Flags: W
HStem: -196 159<-36 56.2233> 480 20G<58 254>
VStem: 58 196<-32.5991 500>
AnchorPoint: "Anchor-0" 133 -196 basechar 0
AnchorPoint: "Anchor-2" 158 504 basechar 0
LayerCount: 2
Fore
SplineSet
50 -196 m 2
 -36 -196 l 1
 -36 -37 l 1
 18 -37 l 2
 48 -37 58 -23 58 -2 c 2
 58 500 l 1
 254 500 l 1
 254 -23 l 2
 254 -126.461599912 192.071428571 -196 50 -196 c 2
EndSplineSet
EndChar

StartChar: circumflex
Encoding: 710 710 323
GlifName: circumflex
Width: 472
GlyphClass: 4
Flags: W
HStem: 536 164<138 146 326 334>
AnchorPoint: "Anchor-6" 235 700 basemark 0
LayerCount: 2
Fore
SplineSet
334 700 m 1
 432 536 l 1
 326 536 l 1
 236 631 l 1
 146 536 l 1
 40 536 l 1
 138 700 l 1
 334 700 l 1
EndSplineSet
EndChar

StartChar: caron
Encoding: 711 711 324
GlifName: caron
Width: 472
GlyphClass: 4
Flags: W
HStem: 536 164<138 146 326 334>
AnchorPoint: "Anchor-6" 236 700 basemark 0
LayerCount: 2
Fore
SplineSet
236 605 m 1
 326 700 l 1
 432 700 l 1
 334 536 l 1
 138 536 l 1
 40 700 l 1
 146 700 l 1
 236 605 l 1
EndSplineSet
EndChar

StartChar: breve
Encoding: 728 728 325
GlifName: breve
Width: 428
GlyphClass: 4
Flags: W
HStem: 527 124<174.641 253.359> 688 20G<40 164 264 388>
AnchorPoint: "Anchor-6" 214 700 basemark 0
LayerCount: 2
Fore
SplineSet
264 708 m 1
 388 708 l 1
 388 609 323 527 214 527 c 0
 105 527 40 609 40 708 c 1
 164 708 l 1
 164 684 178 651 214 651 c 0
 250 651 264 684 264 708 c 1
EndSplineSet
EndChar

StartChar: dotaccent
Encoding: 729 729 326
GlifName: dotaccent
Width: 248
GlyphClass: 4
Flags: W
HStem: 540 168<40 208>
VStem: 40 168<540 708>
AnchorPoint: "Anchor-6" 121 708 basemark 0
LayerCount: 2
Fore
SplineSet
40 540 m 1
 40 708 l 1
 208 708 l 1
 208 540 l 1
 40 540 l 1
EndSplineSet
EndChar

StartChar: ring
Encoding: 730 730 327
GlifName: ring
Width: 344
GlyphClass: 4
Flags: W
HStem: 512 104<145.109 198.748> 672 104<144.958 198.898>
VStem: 40 104<617.509 671.163> 200 104<617.509 671.163>
AnchorPoint: "Anchor-6" 172 764 basemark 0
LayerCount: 2
Fore
SplineSet
172 512 m 0
 99 512 40 572 40 645 c 0
 40 716 99 776 172 776 c 0
 244 776 304 716 304 645 c 0
 304 572 244 512 172 512 c 0
172 616 m 0
 188 616 200 628 200 645 c 0
 200 660 188 672 172 672 c 0
 156 672 144 660 144 645 c 0
 144 628 156 616 172 616 c 0
EndSplineSet
EndChar

StartChar: ogonek
Encoding: 731 731 328
GlifName: ogonek
Width: 279
GlyphClass: 2
Flags: W
HStem: -207 106<158.61 239>
LayerCount: 2
Fore
SplineSet
124 9 m 1
 235 -5 l 1
 193 -16 157 -35 157 -71 c 0
 157 -101 204 -113 239 -101 c 1
 239 -207 l 1
 142 -234 40 -197 40 -110 c 0
 40 -29 96 1 124 9 c 1
EndSplineSet
EndChar

StartChar: tilde
Encoding: 732 732 329
GlifName: tilde
Width: 460
GlyphClass: 4
Flags: W
HStem: 542 124<240.573 304.281> 596 124<152.198 216.86> 693 20G<315 375>
AnchorPoint: "Anchor-6" 230 716 basemark 0
LayerCount: 2
Fore
SplineSet
40 591 m 1x40
 55 637 104 720 181 720 c 0x40
 225 720 247 666 279 666 c 0
 305 666 315 713 315 713 c 1
 420 678 l 1
 403 630 355 542 279 542 c 0xa0
 227 542 212 596 181 596 c 0
 153 596 143 555 143 555 c 1
 40 591 l 1x40
EndSplineSet
EndChar

StartChar: hungarumlaut
Encoding: 733 733 330
GlifName: hungarumlaut
Width: 525
GlyphClass: 4
Flags: W
HStem: 536 164<108 146 321 359>
AnchorPoint: "Anchor-6" 240 700 basemark 0
LayerCount: 2
Fore
SplineSet
108 700 m 1
 272 700 l 1
 146 536 l 1
 40 536 l 1
 108 700 l 1
321 700 m 1
 485 700 l 1
 359 536 l 1
 253 536 l 1
 321 700 l 1
EndSplineSet
EndChar

StartChar: gravecomb
Encoding: 768 768 331
GlifName: gravecomb
Width: 0
GlyphClass: 4
Flags: HW
HStem: 536 164<-146 -108>
VStem: -272 232
AnchorPoint: "Anchor-6" -154 700 basemark 0
AnchorPoint: "Anchor-6" -154 500 mark 0
AnchorPoint: "Anchor-2" -154 500 mark 0
LayerCount: 2
Fore
SplineSet
-216 536 m 5
 -342 700 l 5
 -168 700 l 5
 -50 536 l 5
 -216 536 l 5
EndSplineSet
EndChar

StartChar: acutecomb
Encoding: 769 769 332
GlifName: acutecomb
Width: 0
GlyphClass: 4
Flags: HW
HStem: 536 164<-204 -166>
VStem: -272 232
AnchorPoint: "Anchor-6" -182 700 basemark 0
AnchorPoint: "Anchor-6" -182 500 mark 0
AnchorPoint: "Anchor-2" -182 500 mark 0
LayerCount: 2
Fore
SplineSet
-121 536 m 5
 -287 536 l 5
 -169 700 l 5
 5 700 l 5
 -121 536 l 5
EndSplineSet
EndChar

StartChar: uni0302
Encoding: 770 770 333
GlifName: uni0302
Width: 0
GlyphClass: 4
Flags: HW
HStem: 536 164<-334 -326 -146 -138>
AnchorPoint: "Anchor-6" -237 700 basemark 0
AnchorPoint: "Anchor-6" -237 500 mark 0
AnchorPoint: "Anchor-2" -237 500 mark 0
LayerCount: 2
Fore
SplineSet
-138 700 m 5
 10 536 l 5
 -156 536 l 5
 -236 631 l 5
 -316 536 l 5
 -482 536 l 5
 -334 700 l 5
 -138 700 l 5
EndSplineSet
EndChar

StartChar: tildecomb
Encoding: 771 771 334
GlifName: tildecomb
Width: 0
GlyphClass: 4
Flags: HW
HStem: 542 124<-219.427 -155.719> 596 124<-307.802 -243.14> 693 20G<-145 -85>
AnchorPoint: "Anchor-6" -230 716 basemark 0
AnchorPoint: "Anchor-6" -230 500 mark 0
AnchorPoint: "Anchor-2" -230 500 mark 0
LayerCount: 2
Fore
SplineSet
-450 544 m 1
 -450 654.708269649 -400.021135889 723 -319 723 c 0
 -227.059018202 723 -211.589630447 666 -161 666 c 0
 -133.679529395 666 -116.982363641 686.68996626 -115 723 c 1
 -10 718 l 1
 -10 611.354995293 -65.5628087293 542 -151 542 c 0
 -244.398107069 542 -247.051168293 599 -299 599 c 4
 -328.09495862 599 -344.284726519 578.425503296 -347 538 c 1
 -450 544 l 1
EndSplineSet
EndChar

StartChar: uni0304
Encoding: 772 772 335
GlifName: uni0304
Width: 0
GlyphClass: 4
Flags: HW
HStem: 575 124<-380 -40>
AnchorPoint: "Anchor-6" -210 700 basemark 0
AnchorPoint: "Anchor-6" -210 500 mark 0
AnchorPoint: "Anchor-2" -210 500 mark 0
LayerCount: 2
Fore
SplineSet
-380 545 m 5
 -380 669 l 5
 -40 669 l 5
 -40 545 l 5
 -380 545 l 5
EndSplineSet
EndChar

StartChar: uni0306
Encoding: 774 774 336
GlifName: uni0306
Width: 0
GlyphClass: 4
Flags: HW
HStem: 527 124<-253.359 -174.641> 688 20G<-388 -264 -164 -40>
AnchorPoint: "Anchor-6" -214 700 basemark 0
AnchorPoint: "Anchor-6" -214 500 mark 0
AnchorPoint: "Anchor-2" -214 500 mark 0
LayerCount: 2
Fore
SplineSet
-144 688 m 1
 -10 688 l 1
 -10 593.451491573 -94.1994054709 527 -214 527 c 0
 -333.800594529 527 -418 593.451491573 -418 688 c 1
 -284 688 l 1
 -284 653.671324829 -256.15802214 631 -214 631 c 0
 -171.84197786 631 -144 653.671324829 -144 688 c 1
EndSplineSet
EndChar

StartChar: uni0307
Encoding: 775 775 337
GlifName: uni0307
Width: 0
GlyphClass: 4
Flags: W
HStem: 540 168<-208 -40>
VStem: -208 168<540 708>
AnchorPoint: "Anchor-6" -127 708 basemark 0
AnchorPoint: "Anchor-6" -127 500 mark 0
AnchorPoint: "Anchor-2" -127 500 mark 0
LayerCount: 2
Fore
SplineSet
-208 540 m 1
 -208 708 l 1
 -40 708 l 1
 -40 540 l 1
 -208 540 l 1
EndSplineSet
EndChar

StartChar: uni0308
Encoding: 776 776 338
GlifName: uni0308
Width: 0
GlyphClass: 4
Flags: W
HStem: 540 168<-440 -272 -208 -40>
VStem: -440 168<540 708> -208 168<540 708>
AnchorPoint: "Anchor-6" -238 708 basemark 0
AnchorPoint: "Anchor-6" -238 500 mark 0
AnchorPoint: "Anchor-2" -238 500 mark 0
LayerCount: 2
Fore
SplineSet
-440 540 m 1
 -440 708 l 1
 -272 708 l 1
 -272 540 l 1
 -440 540 l 1
-208 540 m 1
 -208 708 l 1
 -40 708 l 1
 -40 540 l 1
 -208 540 l 1
EndSplineSet
EndChar

StartChar: hookabovecomb
Encoding: 777 777 339
GlifName: hookabovecomb
Width: 0
GlyphClass: 4
Flags: HW
HStem: 641 106<-239 -158.61>
VStem: -157 117<575.817 693.5>
AnchorPoint: "Anchor-6" -167 717 basemark 0
AnchorPoint: "Anchor-6" -167 500 mark 0
AnchorPoint: "Anchor-2" -167 500 mark 0
LayerCount: 2
Fore
SplineSet
-177.48828125 655.598632812 m 0
 -153.953051952 655.598632812 -137 643.623955379 -137 627 c 0
 -137 589.724172602 -246 605.695182237 -246 531 c 1
 -116 531 l 1
 -116 581.633027523 -20 557.467889908 -20 637 c 0
 -20 699.001489891 -82.7223054067 731.678710938 -174.510742188 731.678710938 c 0
 -268.411795586 731.678710938 -335.314794218 689.467190958 -344 633 c 1
 -226 617 l 1
 -222.839064658 638.97490481 -201.945951129 655.598632812 -177.48828125 655.598632812 c 0
EndSplineSet
EndChar

StartChar: uni030A
Encoding: 778 778 340
GlifName: uni030A_
Width: 0
GlyphClass: 4
Flags: W
HStem: 512 104<-198.891 -145.252> 672 104<-199.042 -145.102>
VStem: -304 104<617.509 671.163> -144 104<617.509 671.163>
AnchorPoint: "Anchor-6" -172 764 basemark 0
AnchorPoint: "Anchor-6" -172 500 mark 0
AnchorPoint: "Anchor-2" -172 500 mark 0
LayerCount: 2
Fore
SplineSet
-172 512 m 0
 -245 512 -304 572 -304 645 c 0
 -304 716 -245 776 -172 776 c 0
 -100 776 -40 716 -40 645 c 0
 -40 572 -100 512 -172 512 c 0
-172 616 m 0
 -156 616 -144 628 -144 645 c 0
 -144 660 -156 672 -172 672 c 0
 -188 672 -200 660 -200 645 c 0
 -200 628 -188 616 -172 616 c 0
EndSplineSet
EndChar

StartChar: uni030B
Encoding: 779 779 341
GlifName: uni030B_
Width: 0
GlyphClass: 4
Flags: HW
HStem: 536 164<-417 -379 -204 -166>
AnchorPoint: "Anchor-6" -285 700 basemark 0
AnchorPoint: "Anchor-6" -285 500 mark 0
AnchorPoint: "Anchor-2" -285 500 mark 0
LayerCount: 2
Fore
SplineSet
-349 536 m 5
 -515 536 l 5
 -417 700 l 1
 -243 700 l 1
 -349 536 l 5
-116 536 m 5
 -282 536 l 5
 -184 700 l 1
 -10 700 l 1
 -116 536 l 5
EndSplineSet
EndChar

StartChar: uni030C
Encoding: 780 780 342
GlifName: uni030C_
Width: 0
GlyphClass: 4
Flags: HW
HStem: 536 164<-334 -326 -146 -138>
AnchorPoint: "Anchor-6" -236 700 basemark 0
AnchorPoint: "Anchor-6" -236 500 mark 0
AnchorPoint: "Anchor-2" -236 500 mark 0
LayerCount: 2
Fore
SplineSet
-334 536 m 1
 -482 700 l 1
 -316 700 l 1
 -236 605 l 1
 -156 700 l 1
 10 700 l 1
 -138 536 l 1
 -334 536 l 1
EndSplineSet
EndChar

StartChar: uni0312
Encoding: 786 786 343
GlifName: uni0312
Width: 0
GlyphClass: 4
Flags: W
HStem: 536 164<-146 -108>
VStem: -272 232
AnchorPoint: "Anchor-6" -148 816 basemark 0
AnchorPoint: "Anchor-6" -148 500 mark 0
AnchorPoint: "Anchor-2" -148 500 mark 0
LayerCount: 2
Fore
SplineSet
-108 536 m 1
 -272 536 l 1
 -146 700 l 1
 -40 700 l 1
 -108 536 l 1
EndSplineSet
EndChar

StartChar: uni031B
Encoding: 795 795 344
GlifName: uni031B_
Width: 0
GlyphClass: 4
Flags: HW
HStem: 479 125<-292.975 -172.769>
AnchorPoint: "Anchor-7" -72 715 basemark 0
AnchorPoint: "Anchor-7" -293 500 mark 0
AnchorPoint: "Anchor-4" -293 500 mark 0
LayerCount: 2
Fore
SplineSet
-293 500 m 1
 -136 500 l 6
 -89 500 -84 536 -84 553 c 6
 -84 611 l 5
 70 611 l 5
 70 517 l 6
 70 460 49.7924528302 375 -119 375 c 6
 -293 375 l 1
 -293 500 l 1
EndSplineSet
EndChar

StartChar: dotbelowcomb
Encoding: 803 803 345
GlifName: dotbelowcomb
Width: 0
GlyphClass: 4
Flags: HW
HStem: -172 154<-225 -25>
VStem: -225 200<-172 -18>
AnchorPoint: "Anchor-5" -123 -209 basemark 0
AnchorPoint: "Anchor-5" -123 0 mark 0
AnchorPoint: "Anchor-0" -123 0 mark 0
LayerCount: 2
Fore
SplineSet
-225 -209 m 1
 -225 -55 l 1
 -25 -55 l 1
 -25 -209 l 1
 -225 -209 l 1
EndSplineSet
EndChar

StartChar: uni0326
Encoding: 806 806 346
GlifName: uni0326
Width: 0
GlyphClass: 4
Flags: W
HStem: -200 164<-204 -166>
VStem: -272 232
AnchorPoint: "Anchor-5" -131 -200 basemark 0
AnchorPoint: "Anchor-5" -131 0 mark 0
AnchorPoint: "Anchor-0" -131 0 mark 0
LayerCount: 2
Fore
SplineSet
-204 -36 m 1
 -40 -36 l 1
 -166 -200 l 1
 -272 -200 l 1
 -204 -36 l 1
EndSplineSet
EndChar

StartChar: uni0327
Encoding: 807 807 347
GlifName: uni0327
Width: 0
GlyphClass: 4
Flags: HW
HStem: -208 94<-288 -169.98> -47 116<-230 -166.444>
VStem: -164 124<-110.963 -50.8223>
AnchorPoint: "Anchor-5" -194 -280 basemark 0
AnchorPoint: "Anchor-5" -194 0 mark 0
AnchorPoint: "Anchor-0" -194 0 mark 0
LayerCount: 2
Fore
SplineSet
-272 -47 m 1
 -230 5 l 1
 -106 5 l 1
 -142 -35 l 1
 -142 -35 -40 -35 -40 -144 c 0
 -40 -283 -198 -296 -288 -272 c 1
 -288 -178 l 1
 -253 -188 -164 -193 -164 -144 c 0
 -164 -103 -236 -97 -273 -111 c 1
 -272 -47 l 1
EndSplineSet
EndChar

StartChar: uni0328
Encoding: 808 808 348
GlifName: uni0328
Width: 0
GlyphClass: 4
Flags: W
HStem: -207 106<-120.39 -40>
AnchorPoint: "Anchor-1" -106 -11 mark 0
LayerCount: 2
Fore
SplineSet
-155 9 m 1
 -44 -5 l 1
 -86 -16 -122 -35 -122 -71 c 0
 -122 -101 -75 -113 -40 -101 c 1
 -40 -207 l 1
 -137 -234 -239 -197 -239 -110 c 0
 -239 -29 -183 1 -155 9 c 1
EndSplineSet
EndChar

StartChar: uni0335
Encoding: 821 821 349
GlifName: uni0335
Width: 0
GlyphClass: 4
Flags: W
HStem: 288 124<-488 -40>
AnchorPoint: "Anchor-3" -264 350 mark 0
LayerCount: 2
Fore
SplineSet
-488 288 m 1
 -488 412 l 1
 -40 412 l 1
 -40 288 l 1
 -488 288 l 1
EndSplineSet
EndChar

StartChar: uni0336
Encoding: 822 822 350
GlifName: uni0336
Width: 0
GlyphClass: 4
Flags: W
HStem: 288 124<-808 -40>
AnchorPoint: "Anchor-3" -424 350 mark 0
LayerCount: 2
Fore
SplineSet
-808 288 m 1
 -808 412 l 1
 -40 412 l 1
 -40 288 l 1
 -808 288 l 1
EndSplineSet
EndChar

StartChar: uni0337
Encoding: 823 823 351
GlifName: uni0337
Width: 0
GlyphClass: 4
Flags: W
HStem: 309 321
LayerCount: 2
Fore
SplineSet
-477 445 m 1
 -40 630 l 1
 -40 494 l 1
 -477 309 l 1
 -477 445 l 1
EndSplineSet
EndChar

StartChar: uni0338
Encoding: 824 824 352
GlifName: uni0338
Width: 0
GlyphClass: 4
Flags: W
AnchorPoint: "Anchor-3" -314 330 mark 0
LayerCount: 2
Fore
SplineSet
-583 18 m 1
 -121 688 l 1
 -40 637 l 1
 -503 -35 l 1
 -583 18 l 1
EndSplineSet
EndChar

StartChar: uni1E9E
Encoding: 7838 7838 363
GlifName: uni1E_9E_
Width: 729
GlyphClass: 2
Flags: W
HStem: 0 21G<60 256> 571 144<300.15 417.755>
VStem: 60 196<0 523.361> 494 195<163.33 264.834>
LayerCount: 2
Fore
SplineSet
361 293 m 1
 327 368 l 1
 442 498 l 1
 442 498 437 571 360 571 c 0
 293 571 256 515 256 434 c 2
 256 0 l 1
 60 0 l 1
 60 434 l 2
 60 575 178 715 360 715 c 0
 621 715 665 533 665 533 c 1
 510 357 l 1
 510 357 689 384 689 208 c 0
 689 -27 396 -41 300 9 c 1
 300 153 l 1
 362 120 494 121 494 213 c 0
 494 306 361 293 361 293 c 1
EndSplineSet
EndChar

StartChar: endash
Encoding: 8211 8211 367
GlifName: endash
Width: 604
GlyphClass: 2
Flags: W
HStem: 212 144<48 556>
LayerCount: 2
Fore
SplineSet
48 212 m 1
 48 356 l 1
 556 356 l 1
 556 212 l 1
 48 212 l 1
EndSplineSet
EndChar

StartChar: emdash
Encoding: 8212 8212 368
GlifName: emdash
Width: 916
GlyphClass: 2
Flags: W
HStem: 212 144<48 868>
LayerCount: 2
Fore
SplineSet
48 212 m 1
 48 356 l 1
 868 356 l 1
 868 212 l 1
 48 212 l 1
EndSplineSet
EndChar

StartChar: uni2015
Encoding: 8213 8213 369
GlifName: uni2015
Width: 916
GlyphClass: 2
Flags: W
HStem: 212 144<48 868>
LayerCount: 2
Fore
SplineSet
48 212 m 1
 48 356 l 1
 868 356 l 1
 868 212 l 1
 48 212 l 1
EndSplineSet
EndChar

StartChar: quoteleft
Encoding: 8216 8216 370
GlifName: quoteleft
Width: 264
GlyphClass: 2
Flags: W
HStem: 408 168<124 216> 664 44<130.4 194>
VStem: 48 168<408 576> 48 76<576 658.219>
LayerCount: 2
Fore
SplineSet
124 576 m 1xd0
 216 576 l 1
 216 408 l 1
 48 408 l 1
 48 576 l 1xe0
 48 624 l 2
 48 674 83 708 156 708 c 2
 194 708 l 1
 194 664 l 1
 174 664 l 2
 140 664 124 648 124 624 c 2
 124 576 l 1xd0
EndSplineSet
EndChar

StartChar: quoteright
Encoding: 8217 8217 371
GlifName: quoteright
Width: 264
GlyphClass: 2
Flags: W
HStem: 400 44<70 133.6> 532 168<48 140>
VStem: 48 168<532 700> 140 76<449.781 532>
LayerCount: 2
Fore
SplineSet
48 532 m 1xe0
 48 700 l 1
 216 700 l 1
 216 532 l 1xe0
 216 484 l 2
 216 434 181 400 108 400 c 2
 70 400 l 1
 70 444 l 1
 90 444 l 2
 124 444 140 460 140 484 c 2
 140 532 l 1xd0
 48 532 l 1xe0
EndSplineSet
EndChar

StartChar: quotesinglbase
Encoding: 8218 8218 372
GlifName: quotesinglbase
Width: 264
GlyphClass: 2
Flags: W
HStem: -132 44<70 133.6> 0 168<48 140>
VStem: 48 168<0 168> 140 76<-82.2188 0>
LayerCount: 2
Fore
SplineSet
48 0 m 1xe0
 48 168 l 1
 216 168 l 1
 216 0 l 1xe0
 216 -48 l 2
 216 -98 181 -132 108 -132 c 2
 70 -132 l 1
 70 -88 l 1
 90 -88 l 2
 124 -88 140 -72 140 -48 c 2
 140 0 l 1xd0
 48 0 l 1xe0
EndSplineSet
EndChar

StartChar: quotedblleft
Encoding: 8220 8220 373
GlifName: quotedblleft
Width: 480
GlyphClass: 2
Flags: W
HStem: 408 168<124 216 340 432> 664 44<130.4 194 346.4 410>
VStem: 48 168<408 576> 48 76<576 658.219> 264 168<408 576> 264 76<576 658.219>
LayerCount: 2
Fore
SplineSet
124 576 m 1xd0
 216 576 l 1
 216 408 l 1
 48 408 l 1
 48 576 l 1xe0
 48 624 l 2
 48 674 83 708 156 708 c 2
 194 708 l 1
 194 664 l 1
 174 664 l 2
 140 664 124 648 124 624 c 2
 124 576 l 1xd0
340 576 m 1xc4
 432 576 l 1
 432 408 l 1
 264 408 l 1
 264 576 l 1xc8
 264 624 l 2
 264 674 299 708 372 708 c 2
 410 708 l 1
 410 664 l 1
 390 664 l 2
 356 664 340 648 340 624 c 2
 340 576 l 1xc4
EndSplineSet
EndChar

StartChar: quotedblright
Encoding: 8221 8221 374
GlifName: quotedblright
Width: 480
GlyphClass: 2
Flags: W
HStem: 400 44<70 133.6 286 349.6> 532 168<48 140 264 356>
VStem: 48 168<532 700> 140 76<449.781 532> 264 168<532 700> 356 76<449.781 532>
LayerCount: 2
Fore
SplineSet
140 532 m 1xd0
 48 532 l 1
 48 700 l 1
 216 700 l 1
 216 532 l 1xe0
 216 484 l 2
 216 434 181 400 108 400 c 2
 70 400 l 1
 70 444 l 1
 90 444 l 2
 124 444 140 460 140 484 c 2
 140 532 l 1xd0
264 532 m 1xc8
 264 700 l 1
 432 700 l 1
 432 532 l 1xc8
 432 484 l 2
 432 434 397 400 324 400 c 2
 286 400 l 1
 286 444 l 1
 306 444 l 2
 340 444 356 460 356 484 c 2
 356 532 l 1xc4
 264 532 l 1xc8
EndSplineSet
EndChar

StartChar: quotedblbase
Encoding: 8222 8222 375
GlifName: quotedblbase
Width: 480
GlyphClass: 2
Flags: W
HStem: -132 44<70 133.6 286 349.6> 0 168<48 140 264 356>
VStem: 48 168<0 168> 140 76<-82.2188 0> 264 168<0 168> 356 76<-82.2188 0>
LayerCount: 2
Fore
SplineSet
140 0 m 1xd0
 48 0 l 1
 48 168 l 1
 216 168 l 1
 216 0 l 1xe0
 216 -48 l 2
 216 -98 181 -132 108 -132 c 2
 70 -132 l 1
 70 -88 l 1
 90 -88 l 2
 124 -88 140 -72 140 -48 c 2
 140 0 l 1xd0
264 0 m 1xc8
 264 168 l 1
 432 168 l 1
 432 0 l 1xc8
 432 -48 l 2
 432 -98 397 -132 324 -132 c 2
 286 -132 l 1
 286 -88 l 1
 306 -88 l 2
 340 -88 356 -72 356 -48 c 2
 356 0 l 1xc4
 264 0 l 1xc8
EndSplineSet
EndChar

StartChar: dagger
Encoding: 8224 8224 376
GlifName: dagger
Width: 580
GlyphClass: 2
Flags: W
HStem: 0 21G<192 388> 392 144<40 192 388 540> 680 20G<192 388>
VStem: 192 196<0 392 536 700>
LayerCount: 2
Fore
SplineSet
388 536 m 1
 540 536 l 1
 540 392 l 1
 388 392 l 1
 388 0 l 1
 192 0 l 1
 192 392 l 1
 40 392 l 1
 40 536 l 1
 192 536 l 1
 192 700 l 1
 388 700 l 1
 388 536 l 1
EndSplineSet
EndChar

StartChar: daggerdbl
Encoding: 8225 8225 377
GlifName: daggerdbl
Width: 580
GlyphClass: 2
Flags: W
HStem: 0 21G<192 388> 164 144<40 192 388 540> 392 144<40 192 388 540> 680 20G<192 388>
VStem: 192 196<0 164 308 392 536 700>
LayerCount: 2
Fore
SplineSet
540 536 m 1
 540 392 l 1
 388 392 l 1
 388 308 l 1
 540 308 l 1
 540 164 l 1
 388 164 l 1
 388 0 l 1
 192 0 l 1
 192 164 l 1
 40 164 l 1
 40 308 l 1
 192 308 l 1
 192 392 l 1
 40 392 l 1
 40 536 l 1
 192 536 l 1
 192 700 l 1
 388 700 l 1
 388 536 l 1
 540 536 l 1
EndSplineSet
EndChar

StartChar: bullet
Encoding: 8226 8226 378
GlifName: bullet
Width: 344
GlyphClass: 2
Flags: W
HStem: 206 248<48 296>
VStem: 48 248<206 454>
LayerCount: 2
Fore
SplineSet
48 206 m 1
 48 454 l 1
 296 454 l 1
 296 206 l 1
 48 206 l 1
EndSplineSet
EndChar

StartChar: ellipsis
Encoding: 8230 8230 379
GlifName: ellipsis
Width: 696
GlyphClass: 2
Flags: W
HStem: 0 168<48 216 264 432 480 648>
VStem: 48 168<0 168> 264 168<0 168> 480 168<0 168>
CounterMasks: 1 70
LayerCount: 2
Fore
SplineSet
48 0 m 1
 48 168 l 1
 216 168 l 1
 216 0 l 1
 48 0 l 1
264 0 m 1
 264 168 l 1
 432 168 l 1
 432 0 l 1
 264 0 l 1
480 0 m 1
 480 168 l 1
 648 168 l 1
 648 0 l 1
 480 0 l 1
EndSplineSet
EndChar

StartChar: perthousand
Encoding: 8240 8240 380
GlifName: perthousand
Width: 1252
GlyphClass: 2
Flags: W
HStem: -16 120<632.872 711.128 1004.87 1083.13> 0 21G<95 308.257> 200 120<632.872 711.128 1004.87 1083.13> 380 120<176.872 255.128> 596 120<176.872 255.128> 680 20G<579.743 793>
VStem: 48 120<508.872 587.128> 264 120<508.872 587.128> 504 120<112.872 191.128> 720 120<112.872 191.128> 876 120<112.872 191.128> 1092 120<112.872 191.128>
LayerCount: 2
Fore
SplineSet
216 380 m 0x3bf0
 124 380 48 456 48 548 c 0
 48 640 124 716 216 716 c 0
 308 716 384 640 384 548 c 0
 384 456 308 380 216 380 c 0x3bf0
95 0 m 1x77f0
 594 700 l 1
 793 700 l 1
 294 0 l 1
 95 0 l 1x77f0
216 500 m 0
 243 500 264 521 264 548 c 0
 264 575 243 596 216 596 c 0x3bf0
 189 596 168 575 168 548 c 0
 168 521 189 500 216 500 c 0
672 -16 m 0xb3f0
 580 -16 504 60 504 152 c 0
 504 244 580 320 672 320 c 0
 764 320 840 244 840 152 c 0
 840 60 764 -16 672 -16 c 0xb3f0
1044 -16 m 0
 952 -16 876 60 876 152 c 0
 876 244 952 320 1044 320 c 0
 1136 320 1212 244 1212 152 c 0
 1212 60 1136 -16 1044 -16 c 0
672 104 m 0
 699 104 720 125 720 152 c 0
 720 179 699 200 672 200 c 0
 645 200 624 179 624 152 c 0
 624 125 645 104 672 104 c 0
1044 104 m 0
 1071 104 1092 125 1092 152 c 0
 1092 179 1071 200 1044 200 c 0
 1017 200 996 179 996 152 c 0
 996 125 1017 104 1044 104 c 0
EndSplineSet
EndChar

StartChar: guilsinglleft
Encoding: 8249 8249 381
GlifName: guilsinglleft
Width: 397
GlyphClass: 2
Flags: W
HStem: 480 20G<172.156 347>
VStem: 20 327
LayerCount: 2
Fore
SplineSet
347 500 m 1
 169 275 l 1
 349 50 l 1
 189 50 l 1
 20 275 l 1
 187 500 l 1
 347 500 l 1
EndSplineSet
EndChar

StartChar: guilsinglright
Encoding: 8250 8250 382
GlifName: guilsinglright
Width: 397
GlyphClass: 2
Flags: W
HStem: 480 20G<50 224.844>
VStem: 50 327
LayerCount: 2
Fore
SplineSet
50 500 m 1
 210 500 l 1
 377 275 l 1
 208 50 l 1
 48 50 l 1
 228 275 l 1
 50 500 l 1
EndSplineSet
EndChar

StartChar: fraction
Encoding: 8260 8260 383
GlifName: fraction
Width: 840
GlyphClass: 2
Flags: W
LayerCount: 2
Fore
SplineSet
40 -80 m 1
 597 740 l 1
 800 740 l 1
 243 -80 l 1
 40 -80 l 1
EndSplineSet
EndChar

StartChar: Euro
Encoding: 8364 8364 384
GlifName: E_uro
Width: 869
GlyphClass: 2
Flags: W
HStem: -16 172<425.571 579.776> 224 96<40 151 379 508> 384 96<40 151 381 508> 544 172<425.419 578.627>
LayerCount: 2
Fore
SplineSet
501 156 m 0
 573 156 620 197 639 258 c 1
 829 214 l 1
 780 73 658 -16 501 -16 c 0
 350 -16 218 76 170 224 c 1
 40 224 l 1
 40 320 l 1
 151 320 l 1
 150 330 150 341 150 352 c 0
 150 363 150 374 151 384 c 1
 40 384 l 1
 40 480 l 1
 170 480 l 1
 219 625 350 716 501 716 c 0
 658 716 780 628 829 487 c 1
 638 444 l 1
 617 504 570 544 501 544 c 0
 452 544 409 521 381 480 c 1
 508 480 l 1
 508 384 l 1
 348 384 l 1
 347 374 346 363 346 352 c 0
 346 341 347 330 348 320 c 1
 508 320 l 1
 508 224 l 1
 379 224 l 1
 407 180 451 156 501 156 c 0
EndSplineSet
EndChar

StartChar: trademark
Encoding: 8482 8482 385
GlifName: trademark
Width: 930
GlyphClass: 2
Flags: W
HStem: 380 320<158 266 454 562 762 870> 592 108<40 158 266 384>
VStem: 158 108<380 592> 454 108<380 547> 762 108<380 547>
LayerCount: 2
Fore
SplineSet
158 592 m 1x78
 40 592 l 1
 40 700 l 1
 384 700 l 1
 384 592 l 1
 266 592 l 1x78
 266 380 l 1
 158 380 l 1xb8
 158 592 l 1x78
562 380 m 1xb8
 454 380 l 1
 454 700 l 1xb8
 607 700 l 1
 662 514 l 1
 717 700 l 1x78
 870 700 l 1
 870 380 l 1
 762 380 l 1
 762 547 l 1
 710 380 l 1
 614 380 l 1
 562 547 l 1
 562 380 l 1xb8
EndSplineSet
EndChar

StartChar: uni2126
Encoding: 8486 8486 386
GlifName: uni2126
Width: 799
GlyphClass: 2
Flags: W
HStem: 0 144<52 209 590 748> 572 144<324.296 475.345>
VStem: 40 196<286.325 480.72> 444 304<0 144> 563 196<286.325 480.72>
LayerCount: 2
Fore
SplineSet
759 385 m 0xe8
 759 276 687 193 590 144 c 1
 748 144 l 1
 748 0 l 1
 444 0 l 1
 444 149 l 1xf0
 534 225 563 293 563 385 c 0
 563 496 491 572 400 572 c 0
 308 572 236 496 236 385 c 0
 236 293 265 225 356 149 c 1
 356 0 l 1
 52 0 l 1
 52 144 l 1
 209 144 l 1
 112 193 40 276 40 385 c 0
 40 580 201 716 400 716 c 0
 599 716 759 580 759 385 c 0xe8
EndSplineSet
EndChar

StartChar: arrowleft
Encoding: 8592 8592 387
GlifName: arrowleft
Width: 788
GlyphClass: 2
Flags: W
HStem: 292 144<281 748>
LayerCount: 2
Fore
SplineSet
281 436 m 5
 748 436 l 5
 748 292 l 5
 281 292 l 5
 464 144 l 5
 362 42 l 5
 40 363 l 5
 365 688 l 5
 467 586 l 5
 281 436 l 5
EndSplineSet
EndChar

StartChar: arrowup
Encoding: 8593 8593 388
GlifName: arrowup
Width: 726
GlyphClass: 2
Flags: W
HStem: 0 21G<292 436> 688 20G<345 384.938>
VStem: 292 144<0 467>
LayerCount: 2
Fore
SplineSet
365 708 m 1
 686 386 l 1
 584 284 l 1
 436 467 l 1
 436 0 l 1
 292 0 l 1
 292 467 l 1
 142 281 l 1
 40 383 l 1
 365 708 l 1
EndSplineSet
EndChar

StartChar: arrowright
Encoding: 8594 8594 389
GlifName: arrowright
Width: 788
GlyphClass: 2
Flags: W
HStem: 292 144<40 507>
LayerCount: 2
Fore
SplineSet
321 586 m 5
 423 688 l 5
 748 363 l 5
 426 42 l 5
 324 144 l 5
 507 292 l 5
 40 292 l 5
 40 436 l 5
 507 436 l 5
 321 586 l 5
EndSplineSet
EndChar

StartChar: arrowdown
Encoding: 8595 8595 390
GlifName: arrowdown
Width: 726
GlyphClass: 2
Flags: W
HStem: -8 21G<345 384.938> 680 20G<292 436>
VStem: 292 144<233 700>
LayerCount: 2
Fore
SplineSet
584 416 m 5
 686 314 l 5
 365 -8 l 5
 40 317 l 5
 142 419 l 5
 292 233 l 5
 292 700 l 5
 436 700 l 5
 436 233 l 5
 584 416 l 5
EndSplineSet
EndChar

StartChar: arrowboth
Encoding: 8596 8596 391
GlifName: arrowboth
Width: 1012
GlyphClass: 2
Flags: W
HStem: 292 144<281 731>
LayerCount: 2
Fore
SplineSet
545 586 m 5
 647 688 l 5
 972 363 l 5
 650 42 l 5
 548 144 l 5
 731 292 l 5
 281 292 l 5
 464 144 l 5
 362 42 l 5
 40 363 l 5
 365 688 l 5
 467 586 l 5
 281 436 l 5
 731 436 l 5
 545 586 l 5
EndSplineSet
EndChar

StartChar: arrowupdn
Encoding: 8597 8597 392
GlifName: arrowupdn
Width: 726
GlyphClass: 2
Flags: W
VStem: 290 144<139 589>
LayerCount: 2
Fore
SplineSet
434 589 m 1
 434 139 l 1
 584 325 l 1
 686 223 l 1
 361 -102 l 1
 40 220 l 1
 142 322 l 1
 290 139 l 1
 290 589 l 1
 142 406 l 1
 40 508 l 1
 361 830 l 1
 686 505 l 1
 584 403 l 1
 434 589 l 1
EndSplineSet
EndChar

StartChar: uni2197
Encoding: 8599 8599 393
GlifName: uni2197
Width: 651
GlyphClass: 2
Flags: W
HStem: 556 144<132 201.417>
LayerCount: 2
Fore
SplineSet
132 556 m 1
 132 700 l 1
 591 700 l 1
 591 246 l 1
 447 246 l 1
 472 479 l 1
 141 148 l 1
 40 250 l 1
 370 580 l 1
 132 556 l 1
EndSplineSet
EndChar

StartChar: uni2198
Encoding: 8600 8600 394
GlifName: uni2198
Width: 651
GlyphClass: 2
Flags: W
HStem: -2 144<132 201.417>
LayerCount: 2
Fore
SplineSet
447 452 m 1
 591 452 l 1
 591 -2 l 1
 132 -2 l 1
 132 142 l 1
 370 118 l 1
 40 448 l 1
 141 550 l 1
 472 219 l 1
 447 452 l 1
EndSplineSet
EndChar

StartChar: uni21B3
Encoding: 8627 8627 395
GlifName: uni21B_3
Width: 892
GlyphClass: 2
Flags: W
HStem: 292 144<228 608>
VStem: 60 168<436 770>
LayerCount: 2
Fore
SplineSet
455 556 m 1
 557 658 l 1
 852 363 l 1
 560 72 l 1
 458 174 l 1
 608 292 l 1
 60 292 l 1
 60 770 l 1
 228 770 l 1
 228 436 l 1
 608 436 l 1
 455 556 l 1
EndSplineSet
EndChar

StartChar: carriagereturn
Encoding: 8629 8629 396
GlifName: carriagereturn
Width: 892
GlyphClass: 2
Flags: W
HStem: 292 144<284 664>
VStem: 664 168<436 770>
LayerCount: 2
Fore
SplineSet
664 436 m 1
 664 770 l 1
 832 770 l 1
 832 292 l 1
 284 292 l 1
 434 174 l 1
 332 72 l 1
 40 363 l 1
 335 658 l 1
 437 556 l 1
 284 436 l 1
 664 436 l 1
EndSplineSet
EndChar

StartChar: partialdiff
Encoding: 8706 8706 397
GlifName: partialdiff
Width: 672
GlyphClass: 2
Flags: W
HStem: -16 144<272.132 370.409> 336 144<203.169 359.208> 572 144<80.0633 336.822>
VStem: 48 196<158.318 307.621> 429 195<364 469.448>
LayerCount: 2
Fore
SplineSet
624 356 m 0
 624 68 463 -16 330 -16 c 0
 149 -16 48 99 48 233 c 0
 48 370 135 480 274 480 c 0
 392 480 429 383 429 364 c 1
 429 573 279 572 224 572 c 0
 167 572 80 553 80 553 c 1
 80 697 l 1
 80 697 167 716 224 716 c 0
 400 716 624 658 624 356 c 0
400 232 m 0
 400 293 366 336 322 336 c 0
 273 336 244 293 244 232 c 0
 244 169 275 128 322 128 c 0
 368 128 400 169 400 232 c 0
EndSplineSet
EndChar

StartChar: emptyset
Encoding: 8709 8709 398
GlifName: emptyset
Width: 750
GlyphClass: 2
Flags: W
HStem: -6 145<324.563 454.236> 459 146<295.051 424.979>
VStem: 69 146<249.021 378.949> 535 145<219.764 349.437>
LayerCount: 2
Fore
SplineSet
608 634 m 1
 710 532 l 1
 636 458 l 1
 660 418 675 373 680 325 c 1
 680 274 l 1
 666 125 549 8 400 -6 c 1
 349 -6 l 1
 301 -1 256 14 216 38 c 1
 142 -36 l 1
 40 66 l 1
 114 140 l 1
 89 179 74 225 69 274 c 1
 69 325 l 1
 83 473 201 591 349 605 c 1
 400 605 l 1
 449 600 495 585 534 560 c 1
 608 634 l 1
215 312 m 1
 215 286 l 2
 216 273 218 260 222 248 c 1
 426 452 l 1
 414 456 401 458 388 459 c 2
 362 459 l 1
 282 453 221 392 215 312 c 1
535 286 m 1
 535 312 l 2
 534 325 532 338 528 350 c 1
 324 146 l 1
 336 142 349 140 362 139 c 2
 388 139 l 1
 468 145 529 206 535 286 c 1
EndSplineSet
EndChar

StartChar: uni2206
Encoding: 8710 8710 399
GlifName: uni2206
Width: 826
GlyphClass: 2
Flags: W
HStem: 0 144<236 590> 680 20G<332.866 493.134>
LayerCount: 2
Fore
SplineSet
40 102 m 1
 343 700 l 1
 483 700 l 1
 786 102 l 1
 786 0 l 1
 40 0 l 1
 40 102 l 1
590 144 m 1
 413 493 l 1
 236 144 l 1
 590 144 l 1
EndSplineSet
EndChar

StartChar: product
Encoding: 8719 8719 400
GlifName: product
Width: 714
GlyphClass: 2
Flags: W
HStem: 0 21G<133 313 401 581> 556 144<48 133 313 401 581 666>
VStem: 133 180<0 556> 401 180<0 556>
LayerCount: 2
Fore
SplineSet
666 700 m 1
 666 556 l 1
 581 556 l 1
 581 0 l 1
 401 0 l 1
 401 556 l 1
 313 556 l 1
 313 0 l 1
 133 0 l 1
 133 556 l 1
 48 556 l 1
 48 700 l 1
 666 700 l 1
EndSplineSet
EndChar

StartChar: summation
Encoding: 8721 8721 401
GlifName: summation
Width: 540
GlyphClass: 2
Flags: W
HStem: 0 144<258 500> 556 144<258 500>
LayerCount: 2
Fore
SplineSet
40 700 m 1
 500 700 l 1
 500 556 l 1
 258 556 l 1
 399 350 l 1
 258 144 l 1
 500 144 l 1
 500 0 l 1
 40 0 l 1
 40 102 l 1
 210 350 l 1
 40 598 l 1
 40 700 l 1
EndSplineSet
EndChar

StartChar: minus
Encoding: 8722 8722 402
GlifName: minus
Width: 624
GlyphClass: 2
Flags: W
HStem: 232 144<48 576>
LayerCount: 2
Fore
SplineSet
48 232 m 1
 48 376 l 1
 576 376 l 1
 576 232 l 1
 48 232 l 1
EndSplineSet
EndChar

StartChar: radical
Encoding: 8730 8730 403
GlifName: radical
Width: 770
GlyphClass: 2
Flags: W
HStem: 0 21G<173.622 412.288> 556 144<554 750>
LayerCount: 2
Fore
SplineSet
750 700 m 1
 750 556 l 1
 554 556 l 1
 407 0 l 1
 180 0 l 1
 40 439 l 1
 205 439 l 1
 289 164 l 1
 430 696 l 1
 430 700 l 1
 750 700 l 1
EndSplineSet
EndChar

StartChar: infinity
Encoding: 8734 8734 404
GlifName: infinity
Width: 968
GlyphClass: 2
Flags: W
HStem: 130 144<214.888 347.763 620.237 753.112> 430 144<214.888 347.763 620.237 753.112>
VStem: 40 144<304.297 399.703> 784 144<304.297 399.703>
LayerCount: 2
Fore
SplineSet
710 574 m 0
 846 574 928 464 928 352 c 0
 928 240 846 130 710 130 c 0
 611 130 536 202 484 276 c 1
 432 202 357 130 258 130 c 0
 122 130 40 240 40 352 c 0
 40 464 122 574 258 574 c 0
 357 574 432 502 484 428 c 1
 536 502 611 574 710 574 c 0
288 274 m 0
 353 274 406 303 438 352 c 1
 406 401 353 430 288 430 c 0
 217 430 184 389 184 352 c 0
 184 315 217 274 288 274 c 0
680 274 m 0
 751 274 784 315 784 352 c 0
 784 389 751 430 680 430 c 0
 615 430 562 401 530 352 c 1
 562 303 615 274 680 274 c 0
EndSplineSet
EndChar

StartChar: integral
Encoding: 8747 8747 405
GlifName: integral
Width: 617
GlyphClass: 2
Flags: W
HStem: -88 144<40 197.552> 572 144<418.785 576>
VStem: 210 196<69.8927 558.107>
LayerCount: 2
Fore
SplineSet
221 -88 m 2
 40 -88 l 1
 40 56 l 1
 145 56 l 2
 191 56 210 78 210 129 c 2
 210 499 l 2
 210 618 294 716 396 716 c 2
 577 716 l 1
 576 572 l 1
 471 572 l 2
 426 572 406 550 406 499 c 2
 406 129 l 2
 406 10 323 -88 221 -88 c 2
EndSplineSet
EndChar

StartChar: approxequal
Encoding: 8776 8776 406
GlifName: approxequal
Width: 743
GlyphClass: 2
Flags: W
HStem: 54 144<419.994 523.447> 144 144<218.579 323.033> 332 144<419.994 523.447> 422 144<218.579 323.033>
LayerCount: 2
Fore
SplineSet
48 422 m 1x10
 83 492 160 566 269 566 c 0x10
 369 566 412 476 475 476 c 0
 531 476 556 548 556 548 c 1
 695 484 l 1
 659 412 583 332 475 332 c 0x20
 365 332 332 422 269 422 c 0
 213 422 187 358 187 358 c 1
 48 422 l 1x10
48 144 m 1x40
 83 214 160 288 269 288 c 0x40
 369 288 412 198 475 198 c 0
 531 198 556 270 556 270 c 1
 695 206 l 1
 659 134 583 54 475 54 c 0x80
 365 54 332 144 269 144 c 0
 213 144 187 80 187 80 c 1
 48 144 l 1x40
EndSplineSet
EndChar

StartChar: notequal
Encoding: 8800 8800 407
GlifName: notequal
Width: 624
GlyphClass: 2
Flags: W
HStem: 102 144<48 137 383 576> 366 144<48 241 487 576>
LayerCount: 2
Fore
SplineSet
576 510 m 1
 576 366 l 1
 430 366 l 1
 383 246 l 1
 576 246 l 1
 576 102 l 1
 326 102 l 1
 289 7 l 1
 100 7 l 1
 137 102 l 1
 48 102 l 1
 48 246 l 1
 194 246 l 1
 241 366 l 1
 48 366 l 1
 48 510 l 1
 298 510 l 1
 335 605 l 1
 524 605 l 1
 487 510 l 1
 576 510 l 1
EndSplineSet
EndChar

StartChar: lessequal
Encoding: 8804 8804 408
GlifName: lessequal
Width: 615
GlyphClass: 2
Flags: W
HStem: -69 144<48 567>
LayerCount: 2
Fore
SplineSet
48 478 m 1
 567 687 l 1
 567 530 l 1
 241 406 l 1
 567 282 l 1
 567 125 l 1
 48 334 l 1
 48 478 l 1
567 -69 m 1
 48 -69 l 1
 48 75 l 1
 567 75 l 1
 567 -69 l 1
EndSplineSet
EndChar

StartChar: greaterequal
Encoding: 8805 8805 409
GlifName: greaterequal
Width: 615
GlyphClass: 2
Flags: W
HStem: -69 144<48 567>
LayerCount: 2
Fore
SplineSet
48 530 m 1
 48 687 l 1
 567 478 l 1
 567 334 l 1
 48 125 l 1
 48 282 l 1
 374 406 l 1
 48 530 l 1
567 -69 m 1
 48 -69 l 1
 48 75 l 1
 567 75 l 1
 567 -69 l 1
EndSplineSet
EndChar

StartChar: uni2323
Encoding: 8995 8995 410
GlifName: uni2323
Width: 860
GlyphClass: 3
Flags: W
HStem: -40 114<323.344 537.645> 124 86<352.545 508.376> 388 148<294 380 478 564> 626 114<323.344 537.645>
VStem: 40 114<242.85 456.763> 205 86<272.144 349> 294 86<388 536> 478 86<388 536> 569 86<272.144 349> 706 114<242.85 456.763>
LayerCount: 2
Fore
SplineSet
431 -40 m 0
 215 -40 40 135 40 350 c 0
 40 564 215 740 431 740 c 0
 645 740 820 564 820 350 c 0
 820 135 645 -40 431 -40 c 0
431 74 m 0
 583 74 706 197 706 350 c 0
 706 502 583 626 431 626 c 0
 277 626 154 502 154 350 c 0
 154 197 277 74 431 74 c 0
294 388 m 1
 294 536 l 1
 380 536 l 1
 380 388 l 1
 294 388 l 1
478 388 m 1
 478 536 l 1
 564 536 l 1
 564 388 l 1
 478 388 l 1
569 349 m 1
 655 349 l 1
 655 226 555 124 431 124 c 0
 305 124 205 226 205 349 c 1
 291 349 l 1
 291 258 359 210 431 210 c 0
 502 210 569 258 569 349 c 1
EndSplineSet
LCarets2: 5 0 0 0 0 0
Ligature2: "'ccmp' Glyph Composition/Decomposition in Latin lookup 8 subtable" underscore s m i l e
EndChar

StartChar: uni24FF
Encoding: 9471 9471 411
GlifName: uni24F_F_
Width: 920
GlyphClass: 2
Flags: W
HStem: -70 194<375.228 545.367> 232 236<418.7 501.3> 576 194<375.228 545.367>
VStem: 40 231<243.518 457.574> 395 130<256.469 443.637> 649 231<243.518 457.574>
CounterMasks: 1 fc
LayerCount: 2
Fore
SplineSet
461 -70 m 0
 230 -70 40 120 40 351 c 0
 40 581 230 770 461 770 c 0
 691 770 880 581 880 351 c 0
 880 120 691 -70 461 -70 c 0
271 351 m 0
 271 221 346 124 460 124 c 0
 573 124 649 221 649 351 c 0
 649 479 573 576 460 576 c 0
 346 576 271 479 271 351 c 0
395 351 m 0
 395 399 407 468 460 468 c 0
 513 468 525 399 525 351 c 0
 525 301 513 232 460 232 c 0
 407 232 395 301 395 351 c 0
EndSplineSet
EndChar

StartChar: lozenge
Encoding: 9674 9674 412
GlifName: lozenge
Width: 687
GlyphClass: 2
Flags: W
HStem: -6 21G<327.568 360.378>
LayerCount: 2
Fore
SplineSet
40 364 m 1
 344 735 l 1
 647 364 l 1
 344 -6 l 1
 40 364 l 1
461 364 m 1
 344 508 l 1
 226 364 l 1
 344 221 l 1
 461 364 l 1
EndSplineSet
EndChar

StartChar: uni2776
Encoding: 10102 10102 413
GlifName: uni2776
Width: 920
GlyphClass: 2
Flags: W
HStem: -70 216<418.204 555.187> 554 216<407.681 555.187>
VStem: 40 239<329.468 455.245> 558 322<226.369 475.075>
LayerCount: 2
Fore
SplineSet
461 -70 m 0
 230 -70 40 120 40 351 c 0
 40 581 230 770 461 770 c 0
 691 770 880 581 880 351 c 0
 880 120 691 -70 461 -70 c 0
279 463 m 1
 279 319 l 1
 351 319 414 365 414 429 c 1
 414 146 l 1
 558 146 l 1
 558 554 l 1
 414 554 l 1
 389 479 351 463 279 463 c 1
EndSplineSet
EndChar

StartChar: uni2777
Encoding: 10103 10103 414
GlifName: uni2777
Width: 920
GlyphClass: 2
Flags: W
HStem: -70 226<336.369 585.075> 594 176<374.564 547.906>
LayerCount: 2
Fore
SplineSet
461 -70 m 0
 230 -70 40 120 40 351 c 0
 40 581 230 770 461 770 c 0
 691 770 880 581 880 351 c 0
 880 120 691 -70 461 -70 c 0
281 444 m 1
 400 424 l 1
 400 452 417 473 455 473 c 0
 501 473 519 432 474 396 c 2
 297 254 l 1
 297 156 l 1
 644 156 l 1
 644 276 l 1
 509 276 l 1
 548 311 l 2
 695 442 609 594 468 594 c 0
 340 594 284 504 281 444 c 1
EndSplineSet
EndChar

StartChar: uni2778
Encoding: 10104 10104 415
GlifName: uni2778
Width: 920
GlyphClass: 2
Flags: W
HStem: -70 194<362.782 565.01> 244 72<405.443 511.709> 396 68<405.167 503.816> 576 194<364.731 559.175>
VStem: 627 253<288.684 479.313> 637 243<222.097 413.038>
LayerCount: 2
Fore
SplineSet
461 -70 m 0xf8
 230 -70 40 120 40 351 c 0
 40 581 230 770 461 770 c 0
 691 770 880 581 880 351 c 0
 880 120 691 -70 461 -70 c 0xf8
397 288 m 1
 278 268 l 1
 284 185 344 124 470 124 c 0
 573 124 637 186 637 256 c 0xf4
 637 336 551 350 500 356 c 1
 547 364 627 390 627 456 c 0
 627 534 551 576 463 576 c 0
 364 576 286 521 278 437 c 1
 397 418 l 1
 397 449 428 464 460 464 c 0
 483 464 507 452 507 430 c 0
 507 406 481 396 397 396 c 1
 397 316 l 1
 494 316 517 307 517 281 c 0
 517 264 496 244 464 244 c 0
 425 244 397 263 397 288 c 1
EndSplineSet
EndChar

StartChar: uni2779
Encoding: 10105 10105 416
GlifName: uni2779
Width: 920
GlyphClass: 2
Flags: W
HStem: 568 202<380 585.075>
VStem: 40 206<226.369 323> 657 223<226.369 327>
LayerCount: 2
Fore
SplineSet
461 -70 m 0
 230 -70 40 120 40 351 c 0
 40 581 230 770 461 770 c 0
 691 770 880 581 880 351 c 0
 880 120 691 -70 461 -70 c 0
246 323 m 1
 246 207 l 1
 467 207 l 1
 467 146 l 1
 587 146 l 1
 587 207 l 1
 657 207 l 1
 657 327 l 1
 587 327 l 1
 587 568 l 1
 380 568 l 1
 246 323 l 1
467 327 m 1
 385 327 l 1
 467 476 l 1
 467 327 l 1
EndSplineSet
EndChar

StartChar: uni277A
Encoding: 10106 10106 417
GlifName: uni277A_
Width: 920
GlyphClass: 2
Flags: W
HStem: -70 194<353.095 546.846> 406 28<450.058 578.293> 554 216<336.369 585.075>
VStem: 639 241<221.848 469.723>
LayerCount: 2
Fore
SplineSet
461 -70 m 0
 230 -70 40 120 40 351 c 0
 40 581 230 770 461 770 c 0
 691 770 880 581 880 351 c 0
 880 120 691 -70 461 -70 c 0
400 268 m 1
 274 246 l 1
 280 188 337 124 451 124 c 0
 564 124 639 195 639 292 c 0
 639 356 590 406 519 406 c 0
 456 406 425 381 412 359 c 1
 422 434 l 1
 615 434 l 1
 615 554 l 1
 317 554 l 1
 283 301 l 1
 405 301 l 1
 405 301 417 329 460 329 c 0
 502 329 519 303 519 281 c 0
 519 258 500 232 458 232 c 0
 418 232 401 253 400 268 c 1
EndSplineSet
EndChar

StartChar: uni277B
Encoding: 10107 10107 418
GlifName: uni277B_
Width: 920
GlyphClass: 2
Flags: W
HStem: -70 194<375.271 546.861> 232 93<409.648 509.847> 404 64<423.072 535.46> 576 194<384.724 547.329>
VStem: 40 244<226.608 466.168> 401 117<240.804 315.222> 626 254<221.79 466.52>
LayerCount: 2
Fore
SplineSet
461 -70 m 0
 230 -70 40 120 40 351 c 0
 40 581 230 770 461 770 c 0
 691 770 880 581 880 351 c 0
 880 120 691 -70 461 -70 c 0
284 354 m 0
 284 176 372 124 464 124 c 0
 555 124 626 189 626 272 c 0
 626 365 567 404 502 404 c 0
 446 404 394 371 388 345 c 1
 388 417 412 468 456 468 c 0
 491 468 506 455 509 428 c 1
 615 449 l 1
 605 524 555 576 466 576 c 0
 373 576 284 504 284 354 c 0
401 277 m 0
 401 305 424 325 460 325 c 0
 496 325 518 307 518 280 c 0
 518 251 496 232 460 232 c 0
 422 232 401 251 401 277 c 0
EndSplineSet
EndChar

StartChar: uni277C
Encoding: 10108 10108 419
GlifName: uni277C_
Width: 920
GlyphClass: 2
Flags: W
HStem: -70 216<386.87 514.085> 554 216<336.369 585.075>
VStem: 40 260<446 554> 620 260<448.355 554>
LayerCount: 2
Fore
SplineSet
461 -70 m 0
 230 -70 40 120 40 351 c 0
 40 581 230 770 461 770 c 0
 691 770 880 581 880 351 c 0
 880 120 691 -70 461 -70 c 0
300 554 m 1
 300 446 l 1
 518 446 l 1
 440 383 382 288 382 146 c 1
 518 146 l 1
 518 277 508 362 620 468 c 1
 620 554 l 1
 300 554 l 1
EndSplineSet
EndChar

StartChar: uni277D
Encoding: 10109 10109 420
GlifName: uni277D_
Width: 920
GlyphClass: 2
Flags: W
HStem: -70 194<363.591 557.199> 228 90<406.305 513.695> 404 68<416.547 503.453> 576 194<366.295 549.422>
VStem: 40 253<288.684 478.069> 40 237<222.322 413.038> 397 126<238.238 307.062> 413 94<409.007 466.652> 627 253<288.684 479.657> 643 237<222.322 413.038>
LayerCount: 2
Fore
SplineSet
461 -70 m 0xf880
 230 -70 40 120 40 351 c 0
 40 581 230 770 461 770 c 0
 691 770 880 581 880 351 c 0
 880 120 691 -70 461 -70 c 0xf880
277 257 m 0xf4
 277 177 366 124 460 124 c 0
 554 124 643 177 643 257 c 0xf440
 643 312 597 353 529 361 c 1
 611 370 627 415 627 454 c 0
 627 530 538 576 460 576 c 0
 382 576 293 530 293 454 c 0xf880
 293 415 309 370 391 361 c 1
 323 353 277 312 277 257 c 0xf4
413 437 m 0xf1
 413 457 434 472 460 472 c 0
 486 472 507 457 507 437 c 0
 507 418 487 404 460 404 c 0
 433 404 413 418 413 437 c 0xf1
397 273 m 0xf2
 397 300 428 318 460 318 c 0
 492 318 523 300 523 273 c 0
 523 244 494 228 460 228 c 0
 426 228 397 244 397 273 c 0xf2
EndSplineSet
EndChar

StartChar: uni277E
Encoding: 10110 10110 421
GlifName: uni277E_
Width: 920
GlyphClass: 2
Flags: W
HStem: -70 194<366.887 534.613> 232 64<381.54 495.381> 375 93<407.153 507.352> 576 194<372.453 538.924>
VStem: 40 251<233.98 478.932> 399 117<384.778 459.196> 633 247<234.577 474.114>
LayerCount: 2
Fore
SplineSet
461 -70 m 0
 230 -70 40 120 40 351 c 0
 40 581 230 770 461 770 c 0
 691 770 880 581 880 351 c 0
 880 120 691 -70 461 -70 c 0
633 346 m 0
 633 524 545 576 453 576 c 0
 362 576 291 511 291 428 c 0
 291 335 350 296 415 296 c 0
 475 296 523 329 529 355 c 1
 529 283 505 232 461 232 c 0
 426 232 411 245 408 272 c 1
 302 251 l 1
 312 176 362 124 451 124 c 0
 544 124 633 196 633 346 c 0
516 423 m 0
 516 395 493 375 457 375 c 0
 421 375 399 393 399 420 c 0
 399 449 421 468 457 468 c 0
 495 468 516 449 516 423 c 0
EndSplineSet
EndChar

StartChar: uni2780
Encoding: 10112 10112 422
GlifName: uni2780
Width: 920
GlyphClass: 2
Flags: W
HStem: -70 124<354.406 567.017> 319 144<279 358.673> 646 124<354.406 567.017>
VStem: 40 124<244.406 457.017> 279 135<319 429> 414 144<146 429 508.141 554> 756 124<244.406 457.017>
LayerCount: 2
Fore
SplineSet
461 -70 m 0xf2
 230 -70 40 120 40 351 c 0
 40 581 230 770 461 770 c 0
 691 770 880 581 880 351 c 0
 880 120 691 -70 461 -70 c 0xf2
461 54 m 0
 623 54 756 188 756 351 c 0
 756 513 623 646 461 646 c 0
 298 646 164 513 164 351 c 0
 164 188 298 54 461 54 c 0
279 319 m 1xfa
 279 463 l 1xfa
 351 463 389 479 414 554 c 1
 558 554 l 1
 558 146 l 1
 414 146 l 1xf6
 414 429 l 1
 414 365 351 319 279 319 c 1xfa
EndSplineSet
EndChar

StartChar: uni2781
Encoding: 10113 10113 423
GlifName: uni2781
Width: 920
GlyphClass: 2
Flags: W
HStem: -70 124<354.406 567.017> 156 120<509 644> 473 121<407.834 495.389> 646 124<354.406 567.017>
VStem: 40 124<244.406 457.017> 756 124<244.406 457.017>
LayerCount: 2
Fore
SplineSet
461 -70 m 0
 230 -70 40 120 40 351 c 0
 40 581 230 770 461 770 c 0
 691 770 880 581 880 351 c 0
 880 120 691 -70 461 -70 c 0
461 54 m 0
 623 54 756 188 756 351 c 0
 756 513 623 646 461 646 c 0
 298 646 164 513 164 351 c 0
 164 188 298 54 461 54 c 0
400 424 m 1
 281 444 l 1
 284 504 340 594 468 594 c 0
 609 594 695 442 548 311 c 2
 509 276 l 1
 644 276 l 1
 644 156 l 1
 297 156 l 1
 297 254 l 1
 474 396 l 2
 519 432 501 473 455 473 c 0
 417 473 400 452 400 424 c 1
EndSplineSet
EndChar

StartChar: uni2782
Encoding: 10114 10114 424
GlifName: uni2782
Width: 920
GlyphClass: 2
Flags: W
HStem: -70 124<354.406 567.017> 124 120<405.725 511.39> 316 80<397 499.288> 464 112<405.424 503.683> 646 124<354.406 567.017>
VStem: 40 124<244.406 457.017> 507 120<404.848 496.313> 517 120<252.255 307.296> 756 124<244.406 457.017>
LayerCount: 2
Fore
SplineSet
461 -70 m 0xfc80
 230 -70 40 120 40 351 c 0
 40 581 230 770 461 770 c 0
 691 770 880 581 880 351 c 0
 880 120 691 -70 461 -70 c 0xfc80
461 54 m 0
 623 54 756 188 756 351 c 0
 756 513 623 646 461 646 c 0
 298 646 164 513 164 351 c 0
 164 188 298 54 461 54 c 0
278 268 m 1
 397 288 l 1
 397 263 425 244 464 244 c 0
 496 244 517 264 517 281 c 0xfd80
 517 307 494 316 397 316 c 1
 397 396 l 1
 481 396 507 406 507 430 c 0
 507 452 483 464 460 464 c 0
 428 464 397 449 397 418 c 1
 278 437 l 1
 286 521 364 576 463 576 c 0
 551 576 627 534 627 456 c 0xfe80
 627 390 547 364 500 356 c 1
 551 350 637 336 637 256 c 0xfd80
 637 186 573 124 470 124 c 0
 344 124 284 185 278 268 c 1
EndSplineSet
EndChar

StartChar: uni2783
Encoding: 10115 10115 425
GlifName: uni2783
Width: 920
GlyphClass: 2
Flags: W
HStem: -70 124<354.406 567.017> 207 120<385 467 587 657> 646 124<354.406 567.017>
VStem: 40 124<244.406 457.017> 467 120<146 207 327 476> 756 124<244.406 457.017>
LayerCount: 2
Fore
SplineSet
461 -70 m 0
 230 -70 40 120 40 351 c 0
 40 581 230 770 461 770 c 0
 691 770 880 581 880 351 c 0
 880 120 691 -70 461 -70 c 0
461 54 m 0
 623 54 756 188 756 351 c 0
 756 513 623 646 461 646 c 0
 298 646 164 513 164 351 c 0
 164 188 298 54 461 54 c 0
467 207 m 1
 246 207 l 1
 246 323 l 1
 380 568 l 1
 587 568 l 1
 587 327 l 1
 657 327 l 1
 657 207 l 1
 587 207 l 1
 587 146 l 1
 467 146 l 1
 467 207 l 1
467 476 m 1
 385 327 l 1
 467 327 l 1
 467 476 l 1
EndSplineSet
EndChar

StartChar: uni2784
Encoding: 10116 10116 426
GlifName: uni2784
Width: 920
GlyphClass: 2
Flags: W
HStem: -70 124<354.406 567.017> 124 108<405.788 507.517> 329 77<436.171 554.5> 434 120<422 615> 646 124<354.406 567.017>
VStem: 40 124<244.406 457.017> 519 120<243.723 318.841> 756 124<244.406 457.017>
LayerCount: 2
Fore
SplineSet
461 -70 m 0
 230 -70 40 120 40 351 c 0
 40 581 230 770 461 770 c 0
 691 770 880 581 880 351 c 0
 880 120 691 -70 461 -70 c 0
461 54 m 0
 623 54 756 188 756 351 c 0
 756 513 623 646 461 646 c 0
 298 646 164 513 164 351 c 0
 164 188 298 54 461 54 c 0
274 246 m 1
 400 268 l 1
 401 253 418 232 458 232 c 0
 500 232 519 258 519 281 c 0
 519 303 502 329 460 329 c 0
 417 329 405 301 405 301 c 1
 283 301 l 1
 317 554 l 1
 615 554 l 1
 615 434 l 1
 422 434 l 1
 412 359 l 1
 425 381 456 406 519 406 c 0
 590 406 639 356 639 292 c 0
 639 195 564 124 451 124 c 0
 337 124 280 188 274 246 c 1
EndSplineSet
EndChar

StartChar: uni2785
Encoding: 10117 10117 427
GlifName: uni2785
Width: 920
GlyphClass: 2
Flags: W
HStem: -70 124<354.406 567.017> 124 108<408.709 509.369> 325 79<422.833 511.136> 468 108<414.993 502.575> 646 124<354.406 567.017>
VStem: 40 124<244.406 457.017> 284 104<345 435.802> 518 108<241.307 315.967> 756 124<244.406 457.017>
LayerCount: 2
Fore
SplineSet
461 -70 m 0
 230 -70 40 120 40 351 c 0
 40 581 230 770 461 770 c 0
 691 770 880 581 880 351 c 0
 880 120 691 -70 461 -70 c 0
461 54 m 0
 623 54 756 188 756 351 c 0
 756 513 623 646 461 646 c 0
 298 646 164 513 164 351 c 0
 164 188 298 54 461 54 c 0
284 354 m 0
 284 504 377 576 466 576 c 0
 555 576 605 524 615 449 c 1
 509 428 l 1
 506 455 491 468 456 468 c 0
 412 468 388 417 388 345 c 1
 394 371 446 404 502 404 c 0
 567 404 626 365 626 272 c 0
 626 189 555 124 464 124 c 0
 372 124 284 176 284 354 c 0
401 277 m 0
 401 251 422 232 460 232 c 0
 496 232 518 251 518 280 c 0
 518 307 496 325 460 325 c 0
 424 325 401 305 401 277 c 0
EndSplineSet
EndChar

StartChar: uni2786
Encoding: 10118 10118 428
GlifName: uni2786
Width: 920
GlyphClass: 2
Flags: W
HStem: -70 124<354.406 567.017> 446 108<300 518> 646 124<354.406 567.017>
VStem: 40 124<244.406 457.017> 382 136<146 281.58> 756 124<244.406 457.017>
LayerCount: 2
Fore
SplineSet
461 -70 m 0
 230 -70 40 120 40 351 c 0
 40 581 230 770 461 770 c 0
 691 770 880 581 880 351 c 0
 880 120 691 -70 461 -70 c 0
461 54 m 0
 623 54 756 188 756 351 c 0
 756 513 623 646 461 646 c 0
 298 646 164 513 164 351 c 0
 164 188 298 54 461 54 c 0
518 446 m 1
 300 446 l 1
 300 554 l 1
 620 554 l 1
 620 468 l 1
 508 362 518 277 518 146 c 1
 382 146 l 1
 382 288 440 383 518 446 c 1
EndSplineSet
EndChar

StartChar: uni2787
Encoding: 10119 10119 429
GlifName: uni2787
Width: 920
GlyphClass: 2
Flags: W
HStem: -70 124<354.406 567.017> 124 104<406.485 513.515> 318 86<416.5 503.5> 472 104<417.784 502.216> 646 124<354.406 567.017>
VStem: 40 124<244.406 457.017> 277 120<238.497 306.505> 293 120<409.408 465.57> 507 120<409.408 465.57> 523 120<238.497 306.505> 756 124<244.406 457.017>
LayerCount: 2
Fore
SplineSet
461 -70 m 0xfc20
 230 -70 40 120 40 351 c 0
 40 581 230 770 461 770 c 0
 691 770 880 581 880 351 c 0
 880 120 691 -70 461 -70 c 0xfc20
461 54 m 0
 623 54 756 188 756 351 c 0
 756 513 623 646 461 646 c 0
 298 646 164 513 164 351 c 0
 164 188 298 54 461 54 c 0
277 257 m 0xfe60
 277 312 323 353 391 361 c 1
 309 370 293 415 293 454 c 0
 293 530 382 576 460 576 c 0
 538 576 627 530 627 454 c 0xfda0
 627 415 611 370 529 361 c 1
 597 353 643 312 643 257 c 0
 643 177 554 124 460 124 c 0
 366 124 277 177 277 257 c 0xfe60
413 437 m 0
 413 418 433 404 460 404 c 0
 487 404 507 418 507 437 c 0
 507 457 486 472 460 472 c 0
 434 472 413 457 413 437 c 0
397 273 m 0xfe60
 397 244 426 228 460 228 c 0
 494 228 523 244 523 273 c 0
 523 300 492 318 460 318 c 0
 428 318 397 300 397 273 c 0xfe60
EndSplineSet
EndChar

StartChar: uni2788
Encoding: 10120 10120 430
GlifName: uni2788
Width: 920
GlyphClass: 2
Flags: W
HStem: -70 124<354.406 567.841> 124 108<414.425 502.75> 296 79<405.864 495.957> 468 108<407.631 508.291> 646 124<354.406 567.017>
VStem: 40 124<244.406 457.017> 291 108<384.033 458.693> 529 104<264.198 355> 756 124<244.406 457.017>
LayerCount: 2
Fore
SplineSet
461 -70 m 0
 230 -70 40 120 40 351 c 0
 40 581 230 770 461 770 c 0
 691 770 880 581 880 351 c 0
 880 120 691 -70 461 -70 c 0
461 54 m 0
 627 54 756 188 756 351 c 0
 756 513 623 646 461 646 c 0
 298 646 164 513 164 351 c 0
 164 188 298 54 461 54 c 0
633 346 m 0
 633 196 544 124 451 124 c 0
 362 124 312 176 302 251 c 1
 408 272 l 1
 411 245 426 232 461 232 c 0
 505 232 529 283 529 355 c 1
 523 329 475 296 415 296 c 0
 350 296 291 335 291 428 c 0
 291 511 362 576 453 576 c 0
 545 576 633 524 633 346 c 0
516 423 m 0
 516 449 495 468 457 468 c 0
 421 468 399 449 399 420 c 0
 399 393 421 375 457 375 c 0
 493 375 516 395 516 423 c 0
EndSplineSet
EndChar

StartChar: u1F10B
Encoding: 65537 127243 431
GlifName: u1F_10B_
Width: 920
GlyphClass: 2
Flags: W
HStem: -70 124<354.406 567.017> 124 108<418.924 500.932> 468 108<418.924 500.932> 646 124<354.406 567.017>
VStem: 40 124<244.406 457.017> 271 124<256.03 441.896> 525 124<256.03 441.896> 756 124<244.406 457.017>
LayerCount: 2
Fore
SplineSet
461 -70 m 0
 230 -70 40 120 40 351 c 0
 40 581 230 770 461 770 c 0
 691 770 880 581 880 351 c 0
 880 120 691 -70 461 -70 c 0
461 54 m 0
 623 54 756 188 756 351 c 0
 756 513 623 646 461 646 c 0
 298 646 164 513 164 351 c 0
 164 188 298 54 461 54 c 0
271 351 m 0
 271 479 346 576 460 576 c 0
 573 576 649 479 649 351 c 0
 649 221 573 124 460 124 c 0
 346 124 271 221 271 351 c 0
395 351 m 0
 395 301 407 232 460 232 c 0
 513 232 525 301 525 351 c 0
 525 399 513 468 460 468 c 0
 407 468 395 399 395 351 c 0
EndSplineSet
EndChar

StartChar: i.loclTRK
Encoding: 65538 -1 432
GlifName: i.loclT_R_K_
Width: 316
GlyphClass: 2
Flags: W
HStem: 0 21G<60 256> 580 168<77 245>
VStem: 60 196<0 499> 77 168<580 748>
AnchorPoint: "Anchor-2" 158 748 basechar 0
AnchorPoint: "Anchor-1" 162 9 basechar 0
AnchorPoint: "Anchor-0" 158 0 basechar 0
LayerCount: 2
Fore
SplineSet
77 580 m 1xd0
 77 748 l 1
 245 748 l 1
 245 580 l 1
 77 580 l 1xd0
256 0 m 1xe0
 60 0 l 1
 60 499 l 1
 256 499 l 1
 256 0 l 1xe0
EndSplineSet
EndChar

StartChar: f_f
Encoding: 65539 -1 433
GlifName: f_f
Width: 794
GlyphClass: 3
Flags: W
HStem: 0 21G<111 307 455 651> 356 144<20 111 307 455 651 781> 572 144<315.03 402 659.03 806>
VStem: 111 196<0 356 500 559.891> 455 196<0 356 500 559.891>
LayerCount: 2
Fore
SplineSet
806 572 m 1
 701 572 l 2
 674 572 651 551 651 525 c 2
 651 500 l 1
 781 500 l 1
 781 356 l 1
 651 356 l 1
 651 0 l 1
 455 0 l 1
 455 356 l 1
 307 356 l 1
 307 0 l 1
 111 0 l 1
 111 356 l 1
 20 356 l 1
 20 500 l 1
 111 500 l 1
 111 520 l 2
 111 601 171 716 307 716 c 2
 402 716 l 1
 402 572 l 1
 357 572 l 2
 330 572 307 551 307 525 c 2
 307 500 l 1
 455 500 l 1
 455 520 l 2
 455 601 515 716 651 716 c 2
 806 716 l 1
 806 572 l 1
EndSplineSet
LCarets2: 1 0
Ligature2: "'liga' Standard Ligatures in Latin lookup 6 subtable" f f
EndChar

StartChar: f_f_i
Encoding: 65540 -1 434
GlifName: f_f_i
Width: 1053
GlyphClass: 3
Flags: W
HStem: 0 21G<111 307 455 651 799 995> 356 144<20 111 307 455 651 799> 563 166<797 997> 572 144<315.03 402 659.03 746>
VStem: 111 196<0 356 500 559.891> 455 196<0 356 500 559.891> 799 196<0 356 563 729>
CounterMasks: 1 0e
LayerCount: 2
Fore
SplineSet
797 563 m 1xee
 797 729 l 1
 997 729 l 1
 997 563 l 1
 797 563 l 1xee
651 525 m 2
 651 500 l 1
 995 500 l 1
 995 0 l 1
 799 0 l 1
 799 356 l 1
 651 356 l 1
 651 0 l 1
 455 0 l 1
 455 356 l 1
 307 356 l 1
 307 0 l 1
 111 0 l 1
 111 356 l 1
 20 356 l 1
 20 500 l 1
 111 500 l 1
 111 520 l 2
 111 601 171 716 307 716 c 2
 402 716 l 1
 402 572 l 1
 357 572 l 2
 330 572 307 551 307 525 c 2
 307 500 l 1
 455 500 l 1
 455 520 l 2
 455 601 515 716 651 716 c 2
 746 716 l 1
 746 572 l 1
 701 572 l 2xde
 674 572 651 551 651 525 c 2
EndSplineSet
LCarets2: 2 0 0
Ligature2: "'liga' Standard Ligatures in Latin lookup 6 subtable" f f i
EndChar

StartChar: f_f_j
Encoding: 65541 -1 435
GlifName: f_f_j
Width: 1060
GlyphClass: 3
Flags: W
HStem: -200 144<632 792.559> 0 21G<111 307 455 651> 356 144<20 111 307 455 651 806> 563 166<804 1004> 572 144<315.03 402 659.03 746>
VStem: 111 196<0 356 500 559.891> 455 196<0 356 500 559.891> 806 196<-40.9608 356 563 729>
LayerCount: 2
Fore
SplineSet
804 563 m 1xf7
 804 729 l 1
 1004 729 l 1
 1004 563 l 1
 804 563 l 1xf7
651 500 m 1
 1002 500 l 1
 1002 24 l 2
 1002 -110 892 -200 726 -200 c 2
 632 -200 l 1
 632 -56 l 1
 746 -56 l 2
 782 -56 806 -32 806 4 c 2
 806 356 l 1
 651 356 l 1
 651 0 l 1
 455 0 l 1
 455 356 l 1
 307 356 l 1
 307 0 l 1
 111 0 l 1
 111 356 l 1
 20 356 l 1
 20 500 l 1
 111 500 l 1
 111 520 l 2
 111 601 171 716 307 716 c 2
 402 716 l 1
 402 572 l 1
 357 572 l 2
 330 572 307 551 307 525 c 2
 307 500 l 1
 455 500 l 1
 455 520 l 2
 455 601 515 716 651 716 c 2
 746 716 l 1
 746 572 l 1
 701 572 l 2xef
 674 572 651 551 651 525 c 2
 651 500 l 1
EndSplineSet
LCarets2: 2 0 0
Ligature2: "'dlig' Discretionary Ligatures in Latin lookup 5 subtable" f f j
EndChar

StartChar: f_f_l
Encoding: 65542 -1 436
GlifName: f_f_l
Width: 1051
GlyphClass: 3
Flags: W
HStem: 0 21G<111 307 455 651 799 995> 356 144<20 111 307 455 651 729> 572 144<315.03 402 659.03 799>
VStem: 111 196<0 356 500 559.891> 455 196<0 356 500 559.891> 799 196<0 572>
CounterMasks: 1 1c
LayerCount: 2
Fore
SplineSet
651 716 m 2
 995 716 l 1
 995 0 l 1
 799 0 l 1
 799 572 l 1
 701 572 l 2
 674 572 651 551 651 525 c 2
 651 500 l 1
 729 500 l 1
 729 356 l 1
 651 356 l 1
 651 0 l 1
 455 0 l 1
 455 356 l 1
 307 356 l 1
 307 0 l 1
 111 0 l 1
 111 356 l 1
 20 356 l 1
 20 500 l 1
 111 500 l 1
 111 520 l 2
 111 601 171 716 307 716 c 2
 402 716 l 1
 402 572 l 1
 357 572 l 2
 330 572 307 551 307 525 c 2
 307 500 l 1
 455 500 l 1
 455 520 l 2
 455 601 515 716 651 716 c 2
EndSplineSet
Ligature2: "'liga' Standard Ligatures in Latin lookup 6 subtable" f f l
EndChar

StartChar: f_f_t
Encoding: 65543 -1 437
GlifName: f_f_t
Width: 1176
GlyphClass: 3
Flags: W
HStem: 0 144<1006.17 1140> 356 144<20 111 307 455 651 799 995 1125> 572 144<315.03 402 659.03 746>
VStem: 111 196<0 356 500 559.891> 455 196<0 356 500 559.891> 799 196<152.78 356 500 652>
CounterMasks: 1 1c
LayerCount: 2
Fore
SplineSet
1045 144 m 2
 1140 144 l 1
 1140 0 l 1
 1055 0 l 2
 871 0 799 55 799 196 c 2
 799 356 l 1
 651 356 l 1
 651 0 l 1
 455 0 l 1
 455 356 l 1
 307 356 l 1
 307 0 l 1
 111 0 l 1
 111 356 l 1
 20 356 l 1
 20 500 l 1
 111 500 l 1
 111 520 l 2
 111 601 171 716 307 716 c 2
 402 716 l 1
 402 572 l 1
 357 572 l 2
 330 572 307 551 307 525 c 2
 307 500 l 1
 455 500 l 1
 455 520 l 2
 455 601 515 716 651 716 c 2
 746 716 l 1
 746 572 l 1
 701 572 l 2
 674 572 651 551 651 525 c 2
 651 500 l 1
 799 500 l 1
 799 652 l 1
 995 652 l 1
 995 500 l 1
 1125 500 l 1
 1125 356 l 1
 995 356 l 1
 995 191 l 2
 995 159 1011 144 1045 144 c 2
EndSplineSet
Ligature2: "'dlig' Discretionary Ligatures in Latin lookup 5 subtable" f f t
EndChar

StartChar: f_i
Encoding: 65544 -1 438
GlifName: f_i
Width: 709
GlyphClass: 3
Flags: W
HStem: 0 21G<111 307 455 651> 356 144<20 111 307 455> 563 166<453 653> 572 144<315.03 402>
VStem: 111 196<0 356 500 559.891> 455 196<0 356 563 729>
LayerCount: 2
Fore
SplineSet
453 563 m 1xec
 453 729 l 1
 653 729 l 1
 653 563 l 1
 453 563 l 1xec
307 525 m 2
 307 500 l 1
 651 500 l 1
 651 0 l 1
 455 0 l 1
 455 356 l 1
 307 356 l 1
 307 0 l 1
 111 0 l 1
 111 356 l 1
 20 356 l 1
 20 500 l 1
 111 500 l 1
 111 520 l 2
 111 601 171 716 307 716 c 2
 402 716 l 1
 402 572 l 1
 357 572 l 2xdc
 330 572 307 551 307 525 c 2
EndSplineSet
Ligature2: "'liga' Standard Ligatures in Latin lookup 6 subtable" f i
EndChar

StartChar: f_j
Encoding: 65545 -1 439
GlifName: f_j
Width: 716
GlyphClass: 3
Flags: W
HStem: -200 144<288 448.559> 0 21G<111 307> 356 144<20 111 307 462> 563 166<460 660> 572 144<315.03 402>
VStem: 111 196<0 356 500 559.891> 462 196<-40.9608 356 563 729>
LayerCount: 2
Fore
SplineSet
460 563 m 1xf6
 460 729 l 1
 660 729 l 1
 660 563 l 1
 460 563 l 1xf6
307 500 m 1
 658 500 l 1
 658 24 l 2
 658 -110 548 -200 382 -200 c 2
 288 -200 l 1
 288 -56 l 1
 402 -56 l 2
 438 -56 462 -32 462 4 c 2
 462 356 l 1
 307 356 l 1
 307 0 l 1
 111 0 l 1
 111 356 l 1
 20 356 l 1
 20 500 l 1
 111 500 l 1
 111 520 l 2
 111 601 171 716 307 716 c 2
 402 716 l 1
 402 572 l 1
 357 572 l 2xee
 330 572 307 551 307 525 c 2
 307 500 l 1
EndSplineSet
LCarets2: 1 0
Ligature2: "'dlig' Discretionary Ligatures in Latin lookup 5 subtable" f j
EndChar

StartChar: f_l
Encoding: 65546 -1 440
GlifName: f_l
Width: 707
GlyphClass: 3
Flags: W
HStem: 0 21G<111 307 455 651> 356 144<20 111 307 385> 572 144<315.03 455>
VStem: 111 196<0 356 500 559.891> 455 196<0 572>
LayerCount: 2
Fore
SplineSet
307 716 m 2
 651 716 l 1
 651 0 l 1
 455 0 l 1
 455 572 l 1
 357 572 l 2
 330 572 307 551 307 525 c 2
 307 500 l 1
 385 500 l 1
 385 356 l 1
 307 356 l 1
 307 0 l 1
 111 0 l 1
 111 356 l 1
 20 356 l 1
 20 500 l 1
 111 500 l 1
 111 520 l 2
 111 601 171 716 307 716 c 2
EndSplineSet
Ligature2: "'liga' Standard Ligatures in Latin lookup 6 subtable" f l
EndChar

StartChar: f_t
Encoding: 65547 -1 441
GlifName: f_t
Width: 832
GlyphClass: 3
Flags: W
HStem: 0 144<662.17 796> 356 144<20 111 307 455 651 781> 572 144<315.03 402>
VStem: 111 196<0 356 500 559.891> 455 196<152.78 356 500 652>
LayerCount: 2
Fore
SplineSet
701 144 m 2
 796 144 l 1
 796 0 l 1
 711 0 l 2
 527 0 455 55 455 196 c 2
 455 356 l 1
 307 356 l 1
 307 0 l 1
 111 0 l 1
 111 356 l 1
 20 356 l 1
 20 500 l 1
 111 500 l 1
 111 520 l 2
 111 601 171 716 307 716 c 2
 402 716 l 1
 402 572 l 1
 357 572 l 2
 330 572 307 551 307 525 c 2
 307 500 l 1
 455 500 l 1
 455 652 l 1
 651 652 l 1
 651 500 l 1
 781 500 l 1
 781 356 l 1
 651 356 l 1
 651 191 l 2
 651 159 667 144 701 144 c 2
EndSplineSet
Ligature2: "'dlig' Discretionary Ligatures in Latin lookup 5 subtable" f t
EndChar

StartChar: t_t
Encoding: 65548 -1 442
GlifName: t_t
Width: 812
GlyphClass: 3
Flags: W
HStem: 0 144<298.17 362 642.17 776> 356 144<0 91 287 435 631 761>
VStem: 91 196<152.78 356 500 652> 435 196<152.78 356 500 652>
LayerCount: 2
Fore
SplineSet
681 144 m 2
 776 144 l 1
 776 0 l 1
 691 0 l 2
 507 0 435 55 435 196 c 2
 435 356 l 1
 287 356 l 1
 287 191 l 2
 287 159 303 144 337 144 c 2
 362 144 l 1
 362 0 l 1
 347 0 l 2
 163 0 91 55 91 196 c 2
 91 356 l 1
 0 356 l 1
 0 500 l 1
 91 500 l 1
 91 652 l 1
 287 652 l 1
 287 500 l 1
 435 500 l 1
 435 652 l 1
 631 652 l 1
 631 500 l 1
 761 500 l 1
 761 356 l 1
 631 356 l 1
 631 191 l 2
 631 159 647 144 681 144 c 2
EndSplineSet
Ligature2: "'dlig' Discretionary Ligatures in Latin lookup 5 subtable" t t
EndChar

StartChar: zero.zero
Encoding: 65549 -1 443
GlifName: zero.zero
Width: 718
GlyphClass: 2
Flags: W
HStem: -16 144<299.205 417.935> 572 144<300.065 418.92>
VStem: 40 196<317.057 485.703> 482 196<215.398 383.873>
LayerCount: 2
Fore
SplineSet
359 716 m 0
 546 716 678 570 678 351 c 0
 678 131 546 -16 359 -16 c 0
 172 -16 40 131 40 351 c 0
 40 570 172 716 359 716 c 0
359 572 m 0
 279 572 236 484 236 351 c 0
 236 338 236 325 237 313 c 1
 445 521 l 1
 424 554 396 572 359 572 c 0
359 128 m 0
 439 128 482 217 482 351 c 0
 482 363 482 375 481 387 c 1
 273 179 l 1
 294 146 323 128 359 128 c 0
EndSplineSet
EndChar

StartChar: uni2323.blackCircled
Encoding: 65550 -1 444
GlifName: uni2323.blackC_ircled
Width: 860
GlyphClass: 3
Flags: W
HStem: -40 164<340.082 520.949> 536 204<305.573 380 478 555.439>
VStem: 40 165<256.948 349> 380 98<388 536> 655 165<256.948 349>
LayerCount: 2
Fore
SplineSet
431 -40 m 0
 215 -40 40 135 40 350 c 0
 40 564 215 740 431 740 c 0
 645 740 820 564 820 350 c 0
 820 135 645 -40 431 -40 c 0
380 536 m 1
 294 536 l 1
 294 388 l 1
 380 388 l 1
 380 536 l 1
564 536 m 1
 478 536 l 1
 478 388 l 1
 564 388 l 1
 564 536 l 1
655 349 m 1
 569 349 l 1
 569 258 502 210 431 210 c 0
 359 210 291 258 291 349 c 1
 205 349 l 1
 205 226 305 124 431 124 c 0
 555 124 655 226 655 349 c 1
EndSplineSet
Ligature2: "'ccmp' Glyph Composition/Decomposition in Latin lookup 8 subtable" underscore b l a c k s m i l e
EndChar

StartChar: uni0338.001
Encoding: 65551 -1 445
GlifName: uni0338.001
Width: 0
GlyphClass: 4
Flags: W
AnchorPoint: "Anchor-3" -314 330 mark 0
LayerCount: 2
Fore
SplineSet
-583 18 m 1
 -121 688 l 1
 -40 637 l 1
 -503 -35 l 1
 -583 18 l 1
EndSplineSet
EndChar

StartChar: dash
Encoding: 65552 -1 446
GlifName: dash
Width: 1636
GlyphClass: 3
Flags: W
HStem: 212 144<48 1588>
LayerCount: 2
Fore
SplineSet
48 212 m 1
 48 356 l 1
 1588 356 l 1
 1588 212 l 1
 48 212 l 1
EndSplineSet
Ligature2: "'ccmp' Glyph Composition/Decomposition in Latin lookup 8 subtable" emdash emdash
EndChar

StartChar: uppercasea
Encoding: 65553 -1 447
GlifName: uppercasea
Width: 780
GlyphClass: 2
Flags: W
HStem: 0 21G<36 247.674 532.326 744> 141 144<324 456> 680 20G<245.829 534.171>
LayerCount: 2
Fore
SplineSet
744 0 m 1
 538 0 l 1
 498 141 l 1
 282 141 l 1
 242 0 l 1
 36 0 l 1
 252 700 l 1
 528 700 l 1
 744 0 l 1
390 528 m 1
 324 285 l 1
 456 285 l 1
 390 528 l 1
EndSplineSet
EndChar

StartChar: quotesingle
Encoding: 39 39 448
GlifName: quotesingle
Width: 216
Flags: W
HStem: 382 318<36 180>
VStem: 36 144<382 700>
LayerCount: 2
Fore
SplineSet
36 382 m 5
 36 700 l 5
 180 700 l 5
 180 382 l 5
 36 382 l 5
EndSplineSet
EndChar

StartChar: Ohorn
Encoding: 416 416 449
GlifName: O_horn
Width: 827
Flags: HW
HStem: -16 182<326.275 501.346> 532 182<326.304 501.317> 695 125<792.025 912.231>
VStem: 40 196<255.299 443.883> 591 196<255.307 443.875>
AnchorPoint: "Anchor-0" 414 0 basechar 0
AnchorPoint: "Anchor-1" 470 10 basechar 0
AnchorPoint: "Anchor-2" 414 716 basechar 0
AnchorPoint: "Anchor-3" 414 350 basechar 0
AnchorPoint: "Anchor-4" 513 699 basechar 0
LayerCount: 2
Fore
SplineSet
236 350 m 0
 236 239.629882812 307.125976562 166 414 166 c 0
 520.028320312 166 591 239.858398438 591 350 c 0
 591 459.040039062 520.173828125 532 414 532 c 0
 306.979492188 532 236 459.266601562 236 350 c 0
40 350 m 0
 40 557.971679688 200.314453125 714 414 714 c 0
 627.375 714 787 558.2265625 787 350 c 0
 787 140.240234375 627.771484375 -16 414 -16 c 0
 199.91796875 -16 40 140.497070312 40 350 c 0
487 699 m 5
 644 699 l 6
 691 699 696 735 696 752 c 6
 696 810 l 5
 850 810 l 5
 850 716 l 6
 850 659 829.791992188 574 661 574 c 6
 487 574 l 5
 487 699 l 5
EndSplineSet
EndChar

StartChar: ohorn
Encoding: 417 417 450
GlifName: ohorn
Width: 660
Flags: HW
HStem: -16 159<267.128 392.872> 357 159<267.128 392.872> 479 125<620.025 740.231>
VStem: 36 196<180.088 321.06> 428 196<180.088 321.06>
AnchorPoint: "Anchor-0" 330 0 basechar 0
AnchorPoint: "Anchor-1" 331 0 basechar 0
AnchorPoint: "Anchor-2" 330 540 basechar 0
LayerCount: 2
Fore
SplineSet
36 251 m 0
 36 410 154.029296875 516 330 516 c 0
 505.970703125 516 624 410 624 251 c 0
 624 91 505.970703125 -16 330 -16 c 0
 154.029296875 -16 36 91 36 251 c 0
232 251 m 0
 232 186.024414062 270.948242188 143 330 143 c 0
 389.051757812 143 428 186.024414062 428 251 c 0
 428 314.950195312 389.051757812 357 330 357 c 0
 270.948242188 357 232 314.950195312 232 251 c 0
410 500 m 1
 477 500 l 2
 524 500 529 536 529 553 c 2
 529 611 l 1
 683 611 l 1
 683 517 l 2
 683 460 662.791992188 375 494 375 c 2
 410 375 l 1
 410 500 l 1
EndSplineSet
EndChar

